<mxfile host="app.diagrams.net" modified="2023-08-22T05:54:53.847Z" agent="Mozilla/5.0 (Windows NT 10.0; Win64; x64) AppleWebKit/537.36 (KHTML, like Gecko) Chrome/115.0.0.0 Safari/537.36 Edg/115.0.1901.203" etag="rCIq0R-zJjfzV-7kSn_c" version="21.6.8" type="github">
  <diagram name="Page-1" id="Page-1">
    <mxGraphModel dx="1276" dy="711" grid="1" gridSize="10" guides="1" tooltips="1" connect="1" arrows="1" fold="1" page="1" pageScale="1" pageWidth="850" pageHeight="1100" math="0" shadow="0">
      <root>
        <mxCell id="0" />
        <mxCell id="1" parent="0" />
        <UserObject label="&lt;div style=&quot;font-size: 1px&quot;&gt;&lt;font style=&quot;font-size:14.11px;font-family:Calibri;color:#000000;direction:ltr;letter-spacing:0px;line-height:120%;opacity:1&quot;&gt;Pega Cluster&lt;br&gt;&lt;/font&gt;&lt;/div&gt;" tags="Background" id="2">
          <mxCell style="verticalAlign=top;align=center;overflow=width;vsdxID=2;fillColor=#ffe6cc;shape=stencil(nZBLDsIwDAVP4y0yzoIDlHIBThARQyxCUqXhe3rSukhVFyy6s98by9KAaXpvOwbCvuR05ae44sHsgUii5yylTmBaMM05Zb7kdI9O985WknBM2OnNdqAJbT4d5cNTRpudxnp3S4/h30tb1Oo9saj7QdEgcYb+ylXwH3QluHhfh9GIupIQVOi8Xxqskdo37Rc=);dashed=1;strokeColor=#d79b00;points=[[0.5,1,0],[1,0.5,0],[0.5,0,0],[0,0.5,0],[0.5,0.5,0]];labelBackgroundColor=none;rounded=1;html=1;whiteSpace=wrap;" parent="1" vertex="1">
            <mxGeometry x="282.5" y="277" width="584" height="106" as="geometry" />
          </mxCell>
        </UserObject>
        <UserObject label="&lt;div style=&quot;font-size: 1px&quot;&gt;&lt;font style=&quot;font-size:14.11px;font-family:Calibri;color:#000000;direction:ltr;letter-spacing:0px;line-height:120%;opacity:1&quot;&gt;API Gateway /SMTP / SSO&lt;br&gt;&lt;/font&gt;&lt;/div&gt;" tags="Background" id="4">
          <mxCell style="verticalAlign=top;align=center;overflow=width;vsdxID=3;fillColor=#ffe6cc;shape=stencil(nZBLDsIwDAVP4y0yzoIDlHIBThARQyxCUqXhe3rSukhVFyy6s98by9KAaXpvOwbCvuR05ae44sHsgUii5yylTmBaMM05Zb7kdI9O985WknBM2OnNdqAJbT4d5cNTRpudxnp3S4/h30tb1Oo9saj7QdEgcYb+ylXwH3QluHhfh9GIupIQVOi8Xxqskdo37Rc=);dashed=1;strokeColor=#d79b00;points=[[0.5,1,0],[1,0.5,0],[0.5,0,0],[0,0.5,0],[0.5,0.5,0]];labelBackgroundColor=none;rounded=1;html=1;whiteSpace=wrap;" parent="1" vertex="1">
            <mxGeometry x="282.5" y="440" width="584" height="30" as="geometry" />
          </mxCell>
        </UserObject>
        <UserObject label="" tags="Background" id="204">
          <mxCell style="vsdxID=6;edgeStyle=none;dashed=1;startArrow=none;endArrow=none;startSize=5;endSize=5;strokeWidth=2;strokeColor=#9dbb61;spacingTop=0;spacingBottom=0;spacingLeft=0;spacingRight=0;verticalAlign=top;html=1;labelBackgroundColor=#ffffff;rounded=0;" parent="1" edge="1">
            <mxGeometry relative="1" as="geometry">
              <mxPoint x="-1" as="offset" />
              <Array as="points" />
              <mxPoint x="136.5" y="413" as="sourcePoint" />
              <mxPoint x="993.5" y="413" as="targetPoint" />
            </mxGeometry>
          </mxCell>
        </UserObject>
        <UserObject label="&lt;div style=&quot;font-size: 1px&quot;&gt;&lt;font style=&quot;font-size:16.93px;font-family:Calibri;color:#000000;direction:ltr;letter-spacing:0px;line-height:120%;opacity:1&quot;&gt;Internal Zone&lt;br/&gt;&lt;/font&gt;&lt;/div&gt;" tags="Background" id="7">
          <mxCell style="verticalAlign=top;align=center;overflow=width;vsdxID=7;fillColor=none;gradientColor=none;shape=stencil(nZBLDoAgDERP0z3SIyjew0SURgSD+Lu9kMZoXLhwN9O+tukAlrNpJg1SzDH4QW/URgNYgZTkjA4UkwJUgGXng+6DX1zLfmoymdXo17xh5zmRJ6Q42BWCfc2oJfdAr+Yv+AP9Cb7OJ3H/2JG1HNGz/84klThPVCc=);strokeColor=none;points=[];labelBackgroundColor=none;rounded=0;html=1;whiteSpace=wrap;" parent="1" vertex="1">
            <mxGeometry x="136.5" y="463" width="101" height="50" as="geometry" />
          </mxCell>
        </UserObject>
        <UserObject label="&lt;div style=&quot;font-size: 1px&quot;&gt;&lt;font style=&quot;font-size:16.93px;font-family:Calibri;color:#000000;direction:ltr;letter-spacing:0px;line-height:120%;opacity:1&quot;&gt;Local Zone&lt;br&gt;&lt;/font&gt;&lt;/div&gt;" tags="Background" id="8">
          <mxCell style="verticalAlign=top;align=center;overflow=width;vsdxID=8;fillColor=none;gradientColor=none;shape=stencil(nZBLDoAgDERP0z3SIyjew0SURgSD+Lu9kMZoXLhwN9O+tukAlrNpJg1SzDH4QW/URgNYgZTkjA4UkwJUgGXng+6DX1zLfmoymdXo17xh5zmRJ6Q42BWCfc2oJfdAr+Yv+AP9Cb7OJ3H/2JG1HNGz/84klThPVCc=);strokeColor=none;points=[];labelBackgroundColor=none;rounded=0;html=1;whiteSpace=wrap;" parent="1" vertex="1">
            <mxGeometry x="136.5" y="296" width="101" height="50" as="geometry" />
          </mxCell>
        </UserObject>
        <UserObject label="" tags="Background" id="23">
          <mxCell style="vsdxID=22;fillColor=#c4d6a0;gradientColor=none;shape=stencil(vVHRDsIgDPwaHkkQ4hfM+R+N6xgRx1LQ4d8LKcZpfPLBt7veXdu0wnRxggWFVjFROOPqhjQJcxBau3lCcqkgYXphujEQWgrXeWC+QHVWdAm32iFzTtWEVndmO6ZHdgKdikTNqfdspeZtND+TXzupLCG7KCkkSC7Mb0M9kEVZpsjRg205luKKuGzKP+/1v60KeB15dN7zj7b651NKiR9q+gc=);points=[[1,0.5,0],[0.5,0.5,0],[0.5,0,0],[0.5,0.2,0]];labelBackgroundColor=none;rounded=0;html=1;whiteSpace=wrap;" parent="1" vertex="1">
            <mxGeometry x="900" y="280" width="119" height="127" as="geometry" />
          </mxCell>
        </UserObject>
        <mxCell id="24" style="vsdxID=23;fillColor=#c4d6a0;gradientColor=none;shape=stencil(nZHBDsIgDIafhiMJg3jwPOd7ENdtRISloMO3F1KMm1EP3vq3X/s3LVNtmPQMTIoQ0Z9hMX2cmDowKY2bAE3MEVMdU+3gEUb0V9eTnnUhS3TxtzIhUZ8oHVLcSe1JHonUeMolrOSuoljZpur0lB9HicR1MoGjjzoa7zauVuMIPNvwweqxzqFSWADmVXqzmDUOvjs3P9h/ye1hcvC652CspXes6+/3zyn6neoe);points=[[0,0.5,0],[1,0.5,0],[0.5,1,0],[0.5,0,0],[0.5,0.2,0]];labelBackgroundColor=none;rounded=0;html=1;whiteSpace=wrap;" parent="23" vertex="1">
          <mxGeometry width="113.05000000000001" height="88.9" as="geometry" />
        </mxCell>
        <mxCell id="25" value="&lt;div style=&quot;font-size: 1px&quot;&gt;&lt;font style=&quot;font-size:14.11px;font-family:Calibri;color:#000000;direction:ltr;letter-spacing:0px;line-height:120%;opacity:1&quot;&gt;Database / Oracle&lt;br&gt;&lt;/font&gt;&lt;/div&gt;&lt;div style=&quot;font-size: 1px&quot;&gt;&lt;font style=&quot;font-size:14.11px;font-family:Calibri;color:#000000;direction:ltr;letter-spacing:0px;line-height:120%;opacity:1&quot;&gt;&lt;font style=&quot;border-color: var(--border-color); letter-spacing: 0px; font-size: 8.47px; text-align: left; direction: ltr; line-height: 10.164px; opacity: 1;&quot;&gt;&amp;nbsp;(&lt;/font&gt;&lt;font style=&quot;border-color: var(--border-color); letter-spacing: 0px; font-size: 8.47px; text-align: left; direction: ltr; line-height: 10.164px; opacity: 1;&quot;&gt;Core â€“ 4 . RAM 16 GB)&lt;/font&gt;&lt;br&gt;&lt;/font&gt;&lt;/div&gt;&lt;div style=&quot;font-size: 1px&quot;&gt;&lt;font style=&quot;font-size:14.11px;font-family:Calibri;color:#000000;direction:ltr;letter-spacing:0px;line-height:120%;opacity:1&quot;&gt;&lt;font style=&quot;border-color: var(--border-color); letter-spacing: 0px; font-size: 8.47px; text-align: left; direction: ltr; line-height: 10.164px; opacity: 1;&quot;&gt;3 Schemas&lt;/font&gt;&lt;/font&gt;&lt;/div&gt;&lt;div style=&quot;font-size: 1px&quot;&gt;&lt;br&gt;&lt;/div&gt;" style="text;vsdxID=22;fillColor=none;gradientColor=none;points=[[1,0.5,0],[0.5,0.5,0],[0.5,0,0],[0.5,0.2,0]];labelBackgroundColor=none;rounded=0;html=1;whiteSpace=wrap;verticalAlign=middle;align=center;overflow=width;strokeColor=none;;html=1;" parent="23" vertex="1">
          <mxGeometry x="16.596107382550315" y="20.53293413173653" width="79.86577181208054" height="68.82335329341318" as="geometry" />
        </mxCell>
        <UserObject label="" tags="Background" id="211">
          <mxCell style="vsdxID=31;edgeStyle=none;startArrow=blockThin;endArrow=blockThin;startSize=5;endSize=5;strokeWidth=2;strokeColor=#789440;spacingTop=0;spacingBottom=0;spacingLeft=0;spacingRight=0;verticalAlign=top;html=1;labelBackgroundColor=#ffffff;rounded=0;" parent="1" edge="1">
            <mxGeometry relative="1" as="geometry">
              <Array as="points" />
              <mxPoint x="435.5" y="384" as="sourcePoint" />
              <mxPoint x="435.5" y="440" as="targetPoint" />
            </mxGeometry>
          </mxCell>
        </UserObject>
        <UserObject label="" tags="Background" id="212">
          <mxCell style="vsdxID=32;edgeStyle=none;startArrow=blockThin;endArrow=blockThin;startSize=5;endSize=5;strokeWidth=2;strokeColor=#789440;spacingTop=0;spacingBottom=0;spacingLeft=0;spacingRight=0;verticalAlign=top;html=1;labelBackgroundColor=#ffffff;rounded=0;" parent="1" edge="1">
            <mxGeometry relative="1" as="geometry">
              <Array as="points" />
              <mxPoint x="495.5" y="384" as="sourcePoint" />
              <mxPoint x="495.5" y="440" as="targetPoint" />
            </mxGeometry>
          </mxCell>
        </UserObject>
        <UserObject label="" tags="Background" id="213">
          <mxCell style="vsdxID=33;edgeStyle=none;startArrow=blockThin;endArrow=blockThin;startSize=5;endSize=5;strokeWidth=2;strokeColor=#789440;spacingTop=0;spacingBottom=0;spacingLeft=0;spacingRight=0;verticalAlign=top;html=1;labelBackgroundColor=#ffffff;rounded=0;" parent="1" edge="1">
            <mxGeometry relative="1" as="geometry">
              <Array as="points" />
              <mxPoint x="555.5" y="384" as="sourcePoint" />
              <mxPoint x="555.5" y="439" as="targetPoint" />
            </mxGeometry>
          </mxCell>
        </UserObject>
        <UserObject label="" tags="Background" id="214">
          <mxCell style="vsdxID=34;edgeStyle=none;startArrow=blockThin;endArrow=blockThin;startSize=5;endSize=5;strokeWidth=2;strokeColor=#789440;spacingTop=0;spacingBottom=0;spacingLeft=0;spacingRight=0;verticalAlign=top;html=1;labelBackgroundColor=#ffffff;rounded=0;" parent="1" edge="1">
            <mxGeometry relative="1" as="geometry">
              <Array as="points" />
              <mxPoint x="619.5" y="384" as="sourcePoint" />
              <mxPoint x="619.5" y="440" as="targetPoint" />
            </mxGeometry>
          </mxCell>
        </UserObject>
        <UserObject label="" tags="Background" id="215">
          <mxCell style="vsdxID=35;edgeStyle=none;startArrow=blockThin;endArrow=blockThin;startSize=5;endSize=5;strokeWidth=2;strokeColor=#789440;spacingTop=0;spacingBottom=0;spacingLeft=0;spacingRight=0;verticalAlign=top;html=1;labelBackgroundColor=#ffffff;rounded=0;" parent="1" edge="1">
            <mxGeometry relative="1" as="geometry">
              <Array as="points" />
              <mxPoint x="682.5" y="384" as="sourcePoint" />
              <mxPoint x="682.5" y="440" as="targetPoint" />
            </mxGeometry>
          </mxCell>
        </UserObject>
        <UserObject label="&lt;div style=&quot;font-size: 1px&quot;&gt;&lt;font style=&quot;font-size:11.29px;font-family:Calibri;color:#000000;direction:ltr;letter-spacing:0px;line-height:120%;opacity:1&quot;&gt;Local Zone&lt;/font&gt;&lt;font style=&quot;font-size:11.29px;font-family:Calibri;color:#000000;direction:ltr;letter-spacing:0px;line-height:120%;opacity:1&quot;&gt;&lt;br&gt;&lt;/font&gt;&lt;/div&gt;" tags="Background" id="29">
          <mxCell style="verticalAlign=top;align=left;overflow=width;vsdxID=1096;fillColor=#f0f0f0;gradientColor=#ffffff;gradientDirection=north;shape=stencil(nZBLDoAgDERP0z3SIyjew0SURgSD+Lu9kMZoXLhwN9O+tukAlrNpJg1SzDH4QW/URgNYgZTkjA4UkwJUgGXng+6DX1zLfmoymdXo17xh5zmRJ6Q42BWCfc2oJfdAr+Yv+AP9Cb7OJ3H/2JG1HNGz/84klThPVCc=);strokeColor=#404040;shadow=1;points=[[1,0.5,0],[0.5,0,0],[0.5,0.5,0],[0.5,0.5,0]];labelBackgroundColor=none;rounded=0;html=1;whiteSpace=wrap;" parent="1" vertex="1">
            <mxGeometry x="139" y="1388" width="812" height="422" as="geometry" />
          </mxCell>
        </UserObject>
        <UserObject label="&lt;div style=&quot;font-size: 1px&quot;&gt;&lt;font style=&quot;font-size:11.29px;font-family:Calibri;color:#000000;direction:ltr;letter-spacing:0px;line-height:120%;opacity:1&quot;&gt;WebUser Nodes&lt;br&gt;&lt;/font&gt;&lt;/div&gt;" tags="Background" id="33">
          <mxCell style="verticalAlign=top;align=center;overflow=width;vsdxID=1100;fillColor=#8fa350;gradientColor=none;fillOpacity=20;shape=stencil(vVPLlsIgDP0aluUgtFO71s5/cJS2nMHSk+JY/15qcBQ7OKtxl8cN4Sa5RGzGTg6KcDY6sF/qpPeuI2JLONd9p0A7bxFRE7FpLKgW7LHfoz/IGTlbB/s9vzBhXVVSXs1VnJ0xsmLs6n8iXMLO5yDAOS0FoiHAK1p8YGSK62/vVYwWoWbK5KTHDKyTTtse8wFtJLQq892yxsg2So0npYZFOPzP6F69aE7z8hWbnMds1jSP2Sznw97Fxc969UvnBJNi/bwXlkdMEoN5A5HUPaQubMHkdnOpwfxs/f+5/KkXb9y11mhjUKqP+Wdt+hDqWtQX);strokeColor=#404040;shadow=1;points=[[0.5,0,0],[0.5,0,0],[0.5,0.5,0],[1,0.5,0],[0.5,0.5,0]];labelBackgroundColor=none;rounded=0;html=1;whiteSpace=wrap;" parent="1" vertex="1">
            <mxGeometry x="150" y="1431" width="180" height="173" as="geometry" />
          </mxCell>
        </UserObject>
        <UserObject label="&lt;div style=&quot;font-size: 1px&quot;&gt;&lt;font style=&quot;font-size:33.87px;font-family:Calibri;color:#000000;direction:ltr;letter-spacing:0px;line-height:120%;opacity:1&quot;&gt;Production Environment&lt;br/&gt;&lt;/font&gt;&lt;/div&gt;" tags="Background" id="34">
          <mxCell style="verticalAlign=middle;align=center;overflow=width;vsdxID=1101;fillColor=#dae8fc;gradientDirection=north;shape=stencil(nZBLDoAgDERP0z3SIyjew0SURgSD+Lu9kMZoXLhwN9O+tukAlrNpJg1SzDH4QW/URgNYgZTkjA4UkwJUgGXng+6DX1zLfmoymdXo17xh5zmRJ6Q42BWCfc2oJfdAr+Yv+AP9Cb7OJ3H/2JG1HNGz/84klThPVCc=);strokeColor=#6c8ebf;shadow=1;points=[[1,0.5,0],[0.5,0,0],[0.5,0.5,0],[0.5,0.5,0]];labelBackgroundColor=none;rounded=0;html=1;whiteSpace=wrap;" parent="1" vertex="1">
            <mxGeometry x="136.5" y="1283.5" width="814" height="49" as="geometry" />
          </mxCell>
        </UserObject>
        <UserObject label="" tags="Background" id="216">
          <mxCell style="vsdxID=1111;edgeStyle=orthogonalEdgeStyle;dashed=1;dashPattern=8.00 4.00 1.00 4.00;startArrow=none;endArrow=none;spacingTop=0;spacingBottom=0;spacingLeft=0;spacingRight=0;verticalAlign=middle;html=1;labelBackgroundColor=#ffffff;rounded=0;" parent="1" edge="1">
            <mxGeometry relative="1" as="geometry">
              <mxPoint as="offset" />
              <mxPoint x="126" y="1355" as="sourcePoint" />
              <mxPoint x="991" y="1355" as="targetPoint" />
            </mxGeometry>
          </mxCell>
        </UserObject>
        <UserObject label="" tags="Background" id="75">
          <mxCell style="vsdxID=1187;fillColor=none;gradientColor=none;points=[[0.5,0.5,0]];labelBackgroundColor=none;rounded=0;strokeColor=none;html=1;whiteSpace=wrap;" parent="1" vertex="1">
            <mxGeometry x="290" y="1640" width="360" height="110" as="geometry" />
          </mxCell>
        </UserObject>
        <mxCell id="76" style="vsdxID=1188;edgeStyle=none;startArrow=none;endArrow=none;startSize=5;endSize=5;spacingTop=0;spacingBottom=0;spacingLeft=0;spacingRight=0;verticalAlign=middle;html=1;labelBackgroundColor=none;rounded=0;" parent="75" edge="1">
          <mxGeometry relative="1" as="geometry">
            <mxPoint x="-1" as="offset" />
            <Array as="points" />
            <mxPoint x="76.9811320754717" y="61.285714285714285" as="sourcePoint" />
            <mxPoint x="185.66037735849062" y="61.285714285714285" as="targetPoint" />
          </mxGeometry>
        </mxCell>
        <mxCell id="77" style="vsdxID=1189;fillColor=#FFFFFF;gradientColor=none;shape=stencil(nZBLDoAgDERP0z3SIyjew0SURgSD+Lu9kMZoXLhwN9O+tukAlrNpJg1SzDH4QW/URgNYgZTkjA4UkwJUgGXng+6DX1zLfmoymdXo17xh5zmRJ6Q42BWCfc2oJfdAr+Yv+AP9Cb7OJ3H/2JG1HNGz/84klThPVCc=);points=[[0.5,0.5,0]];labelBackgroundColor=none;rounded=0;html=1;whiteSpace=wrap;" parent="75" vertex="1">
          <mxGeometry x="185.66037735849062" y="41.642857142857146" width="79.24528301886792" height="36.92857142857143" as="geometry" />
        </mxCell>
        <mxCell id="78" style="vsdxID=1190;fillColor=#fff2cc;shape=stencil(vVzbdtw2DPwaP0aHF1Ein3v5D5/WSXzqxjkbt03+vtjuSoRmsNSKafuWyOCOSIIACAz0EH/48vHx89NDcF/eTq+/Pf31/Ovbx4f440MIz58+Pp2e3+RfD/Gnh/jD+9fT04fT6x+ffr38//PjWfL8r99f/zz/wtfLOHceEdy3y//mwc3/PPj5Ivvy/Omm7DQNaWwID8635X/543R5E7+MCOU64vpkdkNMl0dfw+WRHwe3SF0fzXEYw1UqXh5FX6UiSt2AH/PgMuCrX76CTX7IGfDVW17BpjD4aYu/s1znEfOR9eUBuHk4QRmBE8xDnrfzS7C43g0wt+tLrRPzfpibC7sO8Digoo6AqkQW2DiUchQ5DtNE4NkDeBxiIPxcAD8MZSb8MjXxwyKg8QsuuUglwl+lFD6vfGnuuIxBeNGBRPAB4UW3cPkFC9BFqDTR/apdCh53XoQYncFzIPTgd9DHzOiZ4H0k+DgCvhvmTPhjG1/GRMJHcyJSE564QObsLJUYP+7gR8/4ZYs/lqqhFT/BkRepyRP+1Jy/jKGDL2Mi4Y8z4U8j4aPqh2VFbsM7Vj44eWLyZ7Q8IjQBejbQc3vyuZqUip4DwQeGz5HgPRoekWq60nFef0bj4+bPqz4o/IKLPw+e51+aR1/GOLQ8uPNTtacLeFxjhhV8Wt96BReptiOfWPPiqg0KH41+HDzCp2WhNbxvGn0ZMzO8R/i0ngWNnwk/oeGLO2ZXxvhC+AGXf2S7K1LgdEQq4cGPi125hT8OEQ1v9bAKn7yOSKHuj6sj0vjtkx8HAx7svgiR3eEwUqRI9UWqDS9ng/HHCfBXC7LBx+2vplDjt7e/ui+Fn3D5JQ5A0xPZ7vuqyhU/NWMOGZPo6A8JTY+vSlLx0fD6gTd/x+u4gXWfnI4b0OfVQHEFF//J4HkH3KPLjat/X9CjuFzeejh4IjTz3NvRrowZ0ejHdQMVPEU8kXxezNWBKPzmzsuYCZ2ejMHp5yVw0viZ4D2b/bbPjXNd1wqPPlek1pdU8ODzRCry9HPz4MsYY/czHPyoHJrCx+2fFlXb4De1T8ZE1n30+SLFqw9XnZgGBi/txU/WqS+4+IlvWiIVCd5hwLNK3cIfDaNfUPXFm7HqFzB6UXkmBd/0+bH+jMbHvY81jFf4uPexGvCIUrfxVz+p8MHpxTCw6hU8esFSvdJWPbkKGtNH1fPW0SuofJy6qVK38N3qulr4bgkcW/ih1KD43vnLmICXDV5+kXLG9sP6B9PytrdfxiS2/JhnEKlgzB8sf5jXY3u3+suYiWOOAokGkYocc+F1Q6Q44mwf/jCtZlbDg9cXqckwfQHgp/qS9xo/GYOJNWVUF/i0ukJt+FH70sC2p233ZUhgdMzriZTjoCfj5o/Wfaft92SMcfgy2F6RCrz5GVe/noe7/X5Y45INPsDX4FZHPbj6pultRz0yxrHuz2D6QxhmAx91PyyXi/ujPhkTWPlx90N1qSrkxemr3Pa9Ma+MSbz6E07fW7uPaZ7gOMW6F/DLmNmI+AHeWUc/4fTdMB697cgYz5Y3YdGiVJuu8EH5RSqx5W/f9mRM5OUfM+Gz4R8ngncGfPPs+zwY6AHQs3XXi+D3RMqx7rev+l75KnXXB8MvUobljbj6c60V3JvqkDGU5lNJlAVsqpULlWqBqFekKMe7l+rxZqbL4+5PVa9VqmkmfOPK0051+WTlOjzUV7yZ6nKIn2r5795M33kMwTuGX2PjFZ6wSfX3Upx+rJn7mmLFK4dIRSPFC5bnXNTk/Ho7xasiHJ3iRd2PVnkF3e7ZYXB9o+12zwed8/vo987qQPC486E68HvT+/VXdHEBFz+w4qkSRMVKePD3ihu1+qTxE07e17hUFXdw8z3nePeKO94sbpHh9Xzwubh0lmL49vQ9xzyqalZLx0ZtK6Ddr9Xzu2t75zGs+zj7msC7WVgUmcCK3za6hX2OKpeGRShhvKMqr3ERCrjyexXdUq9wtwvKpSrn7XpyodzqXjU7V1Oiiulwzcm1YKBOAZRV8uqj7i7lqyEehyhwj4EGEwmMctoeePWW36oGQozniJeSKa3ntrhI2NgyczLyO/7fNTq+QQktIlMtMnsjZloc18zC1tg8FRgGmKfi+JGkCxCTLJTRqPYAORY91khZuaYlvMcU9thhIwZCjoX2FhUeORZ9bsgIQSwviBpvesEeL0x5J6ZY6FihPkp4++qLQibefKx2qVBJBUG4+j0xWI3tKCpT8Z8RgmC1qTP+JHfEFAsdJav4F0PAnvh75DorUyz0LaHiY86z6/6RjJQ/gCfj2o8Mi857FykeMyz07VBdBxC/59458cFnioW+HSt8jD/77t2Fk05IsdDZAXXvx9tPX97BSHohxUJnR1TeA3W/J++STYoH2v1MhocpFl1Zp2Jc+5FhoTNjCh53vy/nRuQqZljozKDK+cEVoDPnOKHhZYaFToyqlCvBH8+4eqvYhXdvnRdW8Ijfk3EOzOxjloVOi6uEO8D35dtnLncgy0JXBRQ8Tr+v3mCUW5BloYsiKhVE8MerLaO1++h2dU1IwWO+v6falAxmIbEsdE1M4eP2dxXbDMuLXl8XBFUgAuh9lUbj6CPNQtdDOQ76nkLrbFUbMOepq8EKHi1fT505c/qDaRa6Gq7wcfN76uyqgt+s8xvFLqrzd/AMNINB4TPPwTh8/wrPwlsML8JXbJAGfh/PhA8fsVyike9nmksfy2Yytn8mfGrnYJpFF8toNGkekGpQVCgFjwS3Ho5VsqpdSLPQTDCFHwj/MMVsousmkSw0B07ZfVS9PnZdNgw/7r3iACp83Ps+dqFx9JBloTmQCh8Xv4ddqWibCh/gs8XwQpZFF7e0WHV2rDZpBqzCR93v49Ya5FLk9Dtr95Fl0Ucs5pgHORaK+qzAkVDfQan21mUPwb116pFh0cUnDxa/BhkWmvWu8EHxO/n0mXceGRaa9a9um8gp7+knUJ0KCj8AfjSMPlIsuroplJ9SV33uJrEoHrj8fd0klOZjioXueVGpFlT+vm4aI9WFFAvd86NSTdhN09NNNBm5DmRYjGamCxkWnb1UhbUPKRa63WvFB/C+LrIRfS5TLHSvm0rxounp6aJT/XkqxYu6nznNxxSLviZCaiRjhoVudKSM//c1UJLdYYqF7vJU1QXc/L7+UeqdDmT3dZerKu5g73Zf/6xR2zL6d2dWPqN/93j/sOeIhzkWySxuIceis3/aqK/g9FWL983KYk/reGCvwyQL1d5ewZFk0dk3T+0cdt8+4tt9+4e/GxD5psVUC/11A1VNh/pK13cT/p0vNhz+UITRs+0o1NIfvrg+ymRutdD10d63MZDiEQdqWc7Us+q2sEZSxbVg1c14gXVbTLfFUy8VtwL3zNJtoTJ3xxFbz1HJ5A7+DBBZxlrjWH51syrbD5ssf+wSLhleZSvOr3J4ALzO3lTLtOzYfe9/UHyEtMHudA8PwBfanfBquu+bwUFxBynC3fc/PABfaDvhkmq0uf7Expg/nn6RP57WzyAtPuL0bX2yGPLrT0p0NNs/6b6+e/z6/OXd6fXt8e359dPmGL88nj48vRO4d+9fHj9c1+vypy9/PT19Vo/d973g7Tn/Jy8o/6ifq3r//PJy+dqV/jt+3koeXT6NFX/6Gw==);points=[[0.5,0.5,0]];labelBackgroundColor=none;rounded=0;html=1;whiteSpace=wrap;strokeColor=#d6b656;" parent="75" vertex="1">
          <mxGeometry x="2.2641509433962264" width="253.58490566037736" height="73.07142857142858" as="geometry" />
        </mxCell>
        <mxCell id="79" value="&lt;div style=&quot;font-size: 1px&quot;&gt;&lt;font style=&quot;font-size:14.11px;font-family:Calibri;color:#4d1e1a;direction:ltr;letter-spacing:0px;line-height:120%;opacity:1&quot;&gt;Oracle SERVER Core-4 Ram 16 GB 200 GB&lt;br&gt;&lt;/font&gt;&lt;/div&gt;&lt;div style=&quot;font-size: 1px&quot;&gt;&lt;font style=&quot;font-size:14.11px;font-family:Calibri;color:#4d1e1a;direction:ltr;letter-spacing:0px;line-height:120%;opacity:1&quot;&gt;Schemas&lt;/font&gt;&lt;/div&gt;&lt;div style=&quot;font-size: 1px&quot;&gt;&lt;font style=&quot;font-size:14.11px;font-family:Calibri;color:#4d1e1a;direction:ltr;letter-spacing:0px;line-height:120%;opacity:1&quot;&gt;PegaRules/&lt;/font&gt;&lt;span style=&quot;color: rgb(77, 30, 26); font-family: Calibri; font-size: 14.11px; letter-spacing: 0px; background-color: initial;&quot;&gt;PegaData/&lt;/span&gt;&lt;span style=&quot;color: rgb(77, 30, 26); font-family: Calibri; font-size: 14.11px; letter-spacing: 0px; background-color: initial;&quot;&gt;Customer&lt;/span&gt;&lt;/div&gt;&lt;div style=&quot;font-size: 1px&quot;&gt;&lt;br&gt;&lt;/div&gt;&lt;div style=&quot;font-size: 1px&quot;&gt;&lt;font style=&quot;font-size:14.11px;font-family:Calibri;color:#4d1e1a;direction:ltr;letter-spacing:0px;line-height:120%;opacity:1&quot;&gt;&lt;br&gt;&lt;/font&gt;&lt;/div&gt;" style="text;vsdxID=1187;fillColor=none;gradientColor=none;points=[[0.5,0.5,0]];labelBackgroundColor=none;rounded=0;strokeColor=none;html=1;whiteSpace=wrap;verticalAlign=middle;align=center;overflow=width;;html=1;" parent="75" vertex="1">
          <mxGeometry x="-89.2301886792453" y="79.35714285714286" width="449.2301886792453" height="30.642857142857142" as="geometry" />
        </mxCell>
        <UserObject label="&lt;div style=&quot;font-size: 1px&quot;&gt;&lt;/div&gt;" tags="Background" id="92">
          <mxCell style="verticalAlign=top;align=center;overflow=width;vsdxID=1216;fillColor=#0070c0;gradientColor=none;fillOpacity=20;shape=stencil(vZNLcsMgDIZPw9IMFkkcr9PkHkyDbabUeGSSuLcvrugDu0xWyU5IvxCfkJg8jJ0aNAMxenRv+mbOvmPyhQGYvtNofLCYPDJ5aBzqFt2lP9N5ULNytt7ddb5hory64qKcs0B8kKcU4ut8IrnC1xDDKJe83JAaoxy2fEeeKc3/vq8KglhhKtRkxgKdV964nuJRbRW2ugjVisaqNgmNN62HlTu+z5pe54vDhss6jwO82i1wgG/LhGfdIfEsGuB1/U/lDMp+iSI57BOUXG+egJKbicyUiWo5ZQnIqjE///54krsbE4zfbWuMtbSsf+PL7Qwu2mx5/AQ=);strokeColor=#404040;shadow=1;points=[[0.5,0,0],[0.5,0,0],[0.5,0.5,0],[1,0.5,0],[0.5,0.5,0]];labelBackgroundColor=none;rounded=0;html=1;whiteSpace=wrap;" parent="1" vertex="1">
            <mxGeometry x="160" y="1444" width="160" height="150" as="geometry" />
          </mxCell>
        </UserObject>
        <UserObject label="" tags="Connector" id="219">
          <mxCell parent="1" vertex="1" visible="0">
            <mxGeometry as="geometry" />
          </mxCell>
        </UserObject>
        <mxCell id="eVqFTHC-zei_5W3eOslK-220" style="edgeStyle=orthogonalEdgeStyle;rounded=0;orthogonalLoop=1;jettySize=auto;html=1;exitX=0;exitY=0.5;exitDx=0;exitDy=0;exitPerimeter=0;" parent="1" source="AOl4R3P963WcKR29roIO-220" target="eVqFTHC-zei_5W3eOslK-219" edge="1">
          <mxGeometry relative="1" as="geometry">
            <mxPoint x="540" y="250" as="targetPoint" />
          </mxGeometry>
        </mxCell>
        <UserObject label="&lt;div style=&quot;font-size: 1px&quot;&gt;&lt;font style=&quot;font-size:14.11px;font-family:Calibri;color:#000000;direction:ltr;letter-spacing:0px;line-height:120%;opacity:1&quot;&gt;&lt;font style=&quot;border-color: var(--border-color); font-size: 8.47px; letter-spacing: 0px; text-align: left; direction: ltr; line-height: 10.164px; opacity: 1;&quot;&gt;Setup Behind Load Balancer&lt;/font&gt;&lt;/font&gt;&lt;/div&gt;&lt;div style=&quot;font-size: 1px&quot;&gt;&lt;font style=&quot;font-size:14.11px;font-family:Calibri;color:#000000;direction:ltr;letter-spacing:0px;line-height:120%;opacity:1&quot;&gt;&lt;font style=&quot;border-color: var(--border-color); font-size: 8.47px; letter-spacing: 0px; text-align: left; direction: ltr; line-height: 10.164px; opacity: 1;&quot;&gt;Web Server x2&lt;/font&gt;&lt;/font&gt;&lt;/div&gt;&lt;div style=&quot;font-size: 1px&quot;&gt;&lt;font style=&quot;font-size:14.11px;font-family:Calibri;color:#000000;direction:ltr;letter-spacing:0px;line-height:120%;opacity:1&quot;&gt;&lt;font style=&quot;border-color: var(--border-color); font-size: 8.47px; letter-spacing: 0px; text-align: left; direction: ltr; line-height: 10.164px; opacity: 1;&quot;&gt;&amp;nbsp;(&lt;/font&gt;&lt;font style=&quot;border-color: var(--border-color); font-size: 8.47px; letter-spacing: 0px; text-align: left; direction: ltr; line-height: 10.164px; opacity: 1;&quot;&gt;Core â€“ 4 . RAM 16 GB)&lt;/font&gt;&lt;br&gt;&lt;/font&gt;&lt;/div&gt;" tags="Background" id="AOl4R3P963WcKR29roIO-220">
          <mxCell style="verticalAlign=middle;align=center;overflow=width;vsdxID=5;fillColor=#dae8fc;shape=stencil(nZFLDsIwDERP4y0yCRLqupQLcIKIGmIRkipN+Z2etC5S1AWLZmXPPNvSBHTdW9MRKOxTDDd6cpss6AMoxd5S5JQr0A3o+hIiXWMYfCt9ZzKpcFKolZntSCs08XziD81atcFdVby9QLLlHh7j9ZewKNZ7nkTpj4I69gX6M1fBf9CV4OJ8LqZ8JDl2TuIt/WWeWZK/0M0X);strokeColor=#6c8ebf;points=[[0.5,1,0],[1,0.5,0],[0.5,0,0],[0,0.5,0],[0.5,0.5,0]];labelBackgroundColor=none;rounded=1;html=1;whiteSpace=wrap;" parent="1" vertex="1">
            <mxGeometry x="309" y="300" width="133" height="60" as="geometry" />
          </mxCell>
        </UserObject>
        <UserObject label="" tags="Background" id="M_-9Dg6sCtWMjmafzQ-w-238">
          <mxCell style="vsdxID=6;edgeStyle=none;dashed=1;startArrow=none;endArrow=none;startSize=5;endSize=5;strokeWidth=2;strokeColor=#9dbb61;spacingTop=0;spacingBottom=0;spacingLeft=0;spacingRight=0;verticalAlign=top;html=1;labelBackgroundColor=#ffffff;rounded=0;" parent="1" edge="1">
            <mxGeometry relative="1" as="geometry">
              <mxPoint x="-1" as="offset" />
              <Array as="points" />
              <mxPoint x="136.5" y="254" as="sourcePoint" />
              <mxPoint x="993.5" y="254" as="targetPoint" />
            </mxGeometry>
          </mxCell>
        </UserObject>
        <UserObject label="&lt;div style=&quot;font-size: 1px&quot;&gt;&lt;font style=&quot;font-size:14.11px;font-family:Calibri;color:#000000;direction:ltr;letter-spacing:0px;line-height:120%;opacity:1&quot;&gt;&lt;div style=&quot;border-color: var(--border-color); font-family: Helvetica; font-size: 1px;&quot;&gt;&lt;font style=&quot;border-color: var(--border-color); font-size: 14.11px; font-family: Calibri; direction: ltr; letter-spacing: 0px; line-height: 16.932px; opacity: 1;&quot;&gt;&lt;font style=&quot;border-color: var(--border-color); font-size: 8.47px; letter-spacing: 0px; text-align: left; direction: ltr; line-height: 10.164px; opacity: 1;&quot;&gt;Background&amp;nbsp; x4&lt;/font&gt;&lt;/font&gt;&lt;/div&gt;&lt;div style=&quot;border-color: var(--border-color); font-family: Helvetica; font-size: 1px;&quot;&gt;&lt;font style=&quot;border-color: var(--border-color); font-size: 14.11px; font-family: Calibri; direction: ltr; letter-spacing: 0px; line-height: 16.932px; opacity: 1;&quot;&gt;&lt;font style=&quot;border-color: var(--border-color); font-size: 8.47px; letter-spacing: 0px; text-align: left; direction: ltr; line-height: 10.164px; opacity: 1;&quot;&gt;&amp;nbsp;(&lt;/font&gt;&lt;font style=&quot;border-color: var(--border-color); font-size: 8.47px; letter-spacing: 0px; text-align: left; direction: ltr; line-height: 10.164px; opacity: 1;&quot;&gt;Core â€“ 4 . RAM 16 GB)&lt;/font&gt;&lt;/font&gt;&lt;/div&gt;&lt;/font&gt;&lt;/div&gt;" tags="Background" id="M_-9Dg6sCtWMjmafzQ-w-245">
          <mxCell style="verticalAlign=middle;align=center;overflow=width;vsdxID=5;fillColor=#dae8fc;shape=stencil(nZFLDsIwDERP4y0yCRLqupQLcIKIGmIRkipN+Z2etC5S1AWLZmXPPNvSBHTdW9MRKOxTDDd6cpss6AMoxd5S5JQr0A3o+hIiXWMYfCt9ZzKpcFKolZntSCs08XziD81atcFdVby9QLLlHh7j9ZewKNZ7nkTpj4I69gX6M1fBf9CV4OJ8LqZ8JDl2TuIt/WWeWZK/0M0X);strokeColor=#6c8ebf;points=[[0.5,1,0],[1,0.5,0],[0.5,0,0],[0,0.5,0],[0.5,0.5,0]];labelBackgroundColor=none;rounded=1;html=1;whiteSpace=wrap;" parent="1" vertex="1">
            <mxGeometry x="455" y="300" width="133" height="60" as="geometry" />
          </mxCell>
        </UserObject>
        <UserObject label="&lt;div style=&quot;font-size: 1px&quot;&gt;&lt;font style=&quot;font-size:14.11px;font-family:Calibri;color:#000000;direction:ltr;letter-spacing:0px;line-height:120%;opacity:1&quot;&gt;&lt;div style=&quot;border-color: var(--border-color); font-family: Helvetica; font-size: 1px;&quot;&gt;&lt;font style=&quot;border-color: var(--border-color); font-size: 14.11px; font-family: Calibri; direction: ltr; letter-spacing: 0px; line-height: 16.932px; opacity: 1;&quot;&gt;&lt;font style=&quot;border-color: var(--border-color); font-size: 8.47px; letter-spacing: 0px; text-align: left; direction: ltr; line-height: 10.164px; opacity: 1;&quot;&gt;Search x1&lt;/font&gt;&lt;/font&gt;&lt;/div&gt;&lt;div style=&quot;border-color: var(--border-color); font-family: Helvetica; font-size: 1px;&quot;&gt;&lt;font style=&quot;border-color: var(--border-color); font-size: 14.11px; font-family: Calibri; direction: ltr; letter-spacing: 0px; line-height: 16.932px; opacity: 1;&quot;&gt;&lt;font style=&quot;border-color: var(--border-color); font-size: 8.47px; letter-spacing: 0px; text-align: left; direction: ltr; line-height: 10.164px; opacity: 1;&quot;&gt;&amp;nbsp;(&lt;/font&gt;&lt;font style=&quot;border-color: var(--border-color); font-size: 8.47px; letter-spacing: 0px; text-align: left; direction: ltr; line-height: 10.164px; opacity: 1;&quot;&gt;Core â€“ 4 . RAM 16 GB)&lt;/font&gt;&lt;/font&gt;&lt;/div&gt;&lt;/font&gt;&lt;/div&gt;" tags="Background" id="M_-9Dg6sCtWMjmafzQ-w-246">
          <mxCell style="verticalAlign=middle;align=center;overflow=width;vsdxID=5;fillColor=#dae8fc;shape=stencil(nZFLDsIwDERP4y0yCRLqupQLcIKIGmIRkipN+Z2etC5S1AWLZmXPPNvSBHTdW9MRKOxTDDd6cpss6AMoxd5S5JQr0A3o+hIiXWMYfCt9ZzKpcFKolZntSCs08XziD81atcFdVby9QLLlHh7j9ZewKNZ7nkTpj4I69gX6M1fBf9CV4OJ8LqZ8JDl2TuIt/WWeWZK/0M0X);strokeColor=#6c8ebf;points=[[0.5,1,0],[1,0.5,0],[0.5,0,0],[0,0.5,0],[0.5,0.5,0]];labelBackgroundColor=none;rounded=1;html=1;whiteSpace=wrap;" parent="1" vertex="1">
            <mxGeometry x="594.5" y="300" width="133" height="60" as="geometry" />
          </mxCell>
        </UserObject>
        <UserObject label="&lt;div style=&quot;font-size: 1px&quot;&gt;&lt;font style=&quot;font-size:14.11px;font-family:Calibri;color:#000000;direction:ltr;letter-spacing:0px;line-height:120%;opacity:1&quot;&gt;&lt;div style=&quot;border-color: var(--border-color); font-family: Helvetica; font-size: 1px;&quot;&gt;&lt;font style=&quot;border-color: var(--border-color); font-size: 14.11px; font-family: Calibri; direction: ltr; letter-spacing: 0px; line-height: 16.932px; opacity: 1;&quot;&gt;&lt;font style=&quot;border-color: var(--border-color); font-size: 8.47px; letter-spacing: 0px; text-align: left; direction: ltr; line-height: 10.164px; opacity: 1;&quot;&gt;Stream x2&lt;/font&gt;&lt;/font&gt;&lt;/div&gt;&lt;div style=&quot;border-color: var(--border-color); font-family: Helvetica; font-size: 1px;&quot;&gt;&lt;font style=&quot;border-color: var(--border-color); font-size: 14.11px; font-family: Calibri; direction: ltr; letter-spacing: 0px; line-height: 16.932px; opacity: 1;&quot;&gt;&lt;font style=&quot;border-color: var(--border-color); font-size: 8.47px; letter-spacing: 0px; text-align: left; direction: ltr; line-height: 10.164px; opacity: 1;&quot;&gt;&amp;nbsp;(&lt;/font&gt;&lt;font style=&quot;border-color: var(--border-color); font-size: 8.47px; letter-spacing: 0px; text-align: left; direction: ltr; line-height: 10.164px; opacity: 1;&quot;&gt;Core â€“ 4 . RAM 16 GB)&lt;/font&gt;&lt;/font&gt;&lt;/div&gt;&lt;/font&gt;&lt;/div&gt;" tags="Background" id="M_-9Dg6sCtWMjmafzQ-w-248">
          <mxCell style="verticalAlign=middle;align=center;overflow=width;vsdxID=5;fillColor=#dae8fc;shape=stencil(nZFLDsIwDERP4y0yCRLqupQLcIKIGmIRkipN+Z2etC5S1AWLZmXPPNvSBHTdW9MRKOxTDDd6cpss6AMoxd5S5JQr0A3o+hIiXWMYfCt9ZzKpcFKolZntSCs08XziD81atcFdVby9QLLlHh7j9ZewKNZ7nkTpj4I69gX6M1fBf9CV4OJ8LqZ8JDl2TuIt/WWeWZK/0M0X);strokeColor=#6c8ebf;points=[[0.5,1,0],[1,0.5,0],[0.5,0,0],[0,0.5,0],[0.5,0.5,0]];labelBackgroundColor=none;rounded=1;html=1;whiteSpace=wrap;" parent="1" vertex="1">
            <mxGeometry x="731.5" y="300" width="133" height="60" as="geometry" />
          </mxCell>
        </UserObject>
        <UserObject label="&lt;div style=&quot;font-size: 1px&quot;&gt;&lt;font style=&quot;font-size:8.47px;font-family:Calibri;color:#000000;direction:ltr;letter-spacing:0px;line-height:120%;opacity:1&quot;&gt;&lt;font style=&quot;border-color: var(--border-color); letter-spacing: 0px; direction: ltr; line-height: 10.164px; opacity: 1;&quot;&gt;Tomcat Serverâ€“ 1 (&lt;/font&gt;&lt;font style=&quot;border-color: var(--border-color); letter-spacing: 0px; direction: ltr; line-height: 10.164px; opacity: 1;&quot;&gt;Core â€“ 4 . RAM 16 GB)&lt;/font&gt;&lt;br&gt;&lt;/font&gt;&lt;/div&gt;" tags="Background" id="M_-9Dg6sCtWMjmafzQ-w-267">
          <mxCell style="verticalAlign=top;align=left;overflow=width;vsdxID=1109;fillColor=#d7d0e3;gradientColor=#e7e3ee;gradientDirection=north;shape=stencil(nZBLDoAgDERP0z3SIyjew0SURgSD+Lu9kMZoXLhwN9O+tukAlrNpJg1SzDH4QW/URgNYgZTkjA4UkwJUgGXng+6DX1zLfmoymdXo17xh5zmRJ6Q42BWCfc2oJfdAr+Yv+AP9Cb7OJ3H/2JG1HNGz/84klThPVCc=);strokeColor=#404040;shadow=1;points=[[1,0.5,0],[0.5,0,0],[0.5,0.5,0],[0.5,0.5,0]];labelBackgroundColor=none;rounded=0;html=1;whiteSpace=wrap;" parent="1" vertex="1">
            <mxGeometry x="186.41" y="1521" width="121.5" height="60" as="geometry" />
          </mxCell>
        </UserObject>
        <UserObject label="&lt;div style=&quot;font-size: 1px&quot;&gt;&lt;font style=&quot;font-size:8.47px;font-family:Calibri;color:#000000;direction:ltr;letter-spacing:0px;line-height:100%;opacity:1&quot;&gt;Pega NodeType:WebUser&lt;br&gt;&lt;/font&gt;&lt;/div&gt;" tags="Background" id="M_-9Dg6sCtWMjmafzQ-w-268">
          <mxCell style="verticalAlign=middle;align=center;overflow=width;vsdxID=1217;fillColor=#44aac4;gradientColor=#31859b;gradientDirection=north;shape=stencil(vVPLcsMgDPwajtYA6qTmnKb/wTTYZkqNB9PG/fviymmCXSan5KbHSmIlluF+7PRgmORjDP7dnOwxdgxfmJS270ywMVkMDwz3jQ+mDf6zP5I/6Bk5Wx/+a+4wUZ3aQY1zleTfFBGc//qvBNfhLeXCAkdASehwhgsQFJny+nO/WsHTAqj0ZMcq+Kij9T2lF7DToTVVGlY1TrdZajwZM2zCy/Oc7U15tuCwK5ORoFRORoGqMzLb9fBHcUEQz/9MLpyF4+osHER+l8JmHsCk8B8KTNSaCa6ZbDbzd/b7c7mpl2RctNZY50iq1/m1NlOIdI2HHw==);strokeColor=#404040;shadow=1;spacingTop=-3;spacingBottom=-3;spacingLeft=-3;spacingRight=-3;points=[[0.5,0,0],[0.5,0,0],[0.5,0.5,0],[1,0.5,0],[0.5,0.5,0]];labelBackgroundColor=none;rounded=0;html=1;whiteSpace=wrap;" parent="1" vertex="1">
            <mxGeometry x="197.91" y="1544" width="100" height="29" as="geometry" />
          </mxCell>
        </UserObject>
        <UserObject label="&lt;div style=&quot;font-size: 1px&quot;&gt;&lt;font style=&quot;font-size:8.47px;font-family:Calibri;color:#000000;direction:ltr;letter-spacing:0px;line-height:120%;opacity:1&quot;&gt;&lt;font style=&quot;border-color: var(--border-color); letter-spacing: 0px; direction: ltr; line-height: 10.164px; opacity: 1;&quot;&gt;Tomcat Serverâ€“ 1 (&lt;/font&gt;&lt;font style=&quot;border-color: var(--border-color); letter-spacing: 0px; direction: ltr; line-height: 10.164px; opacity: 1;&quot;&gt;Core â€“ 4 . RAM 16 GB)&lt;/font&gt;&lt;br&gt;&lt;/font&gt;&lt;/div&gt;" tags="Background" id="M_-9Dg6sCtWMjmafzQ-w-292">
          <mxCell style="verticalAlign=top;align=left;overflow=width;vsdxID=1109;fillColor=#d7d0e3;gradientColor=#e7e3ee;gradientDirection=north;shape=stencil(nZBLDoAgDERP0z3SIyjew0SURgSD+Lu9kMZoXLhwN9O+tukAlrNpJg1SzDH4QW/URgNYgZTkjA4UkwJUgGXng+6DX1zLfmoymdXo17xh5zmRJ6Q42BWCfc2oJfdAr+Yv+AP9Cb7OJ3H/2JG1HNGz/84klThPVCc=);strokeColor=#404040;shadow=1;points=[[1,0.5,0],[0.5,0,0],[0.5,0.5,0],[0.5,0.5,0]];labelBackgroundColor=none;rounded=0;html=1;whiteSpace=wrap;" parent="1" vertex="1">
            <mxGeometry x="185.5" y="1452" width="121.5" height="60" as="geometry" />
          </mxCell>
        </UserObject>
        <UserObject label="&lt;div style=&quot;font-size: 1px&quot;&gt;&lt;font style=&quot;font-size:8.47px;font-family:Calibri;color:#000000;direction:ltr;letter-spacing:0px;line-height:100%;opacity:1&quot;&gt;Pega NodeType:WebUser&lt;br&gt;&lt;/font&gt;&lt;/div&gt;" tags="Background" id="M_-9Dg6sCtWMjmafzQ-w-293">
          <mxCell style="verticalAlign=middle;align=center;overflow=width;vsdxID=1217;fillColor=#44aac4;gradientColor=#31859b;gradientDirection=north;shape=stencil(vVPLcsMgDPwajtYA6qTmnKb/wTTYZkqNB9PG/fviymmCXSan5KbHSmIlluF+7PRgmORjDP7dnOwxdgxfmJS270ywMVkMDwz3jQ+mDf6zP5I/6Bk5Wx/+a+4wUZ3aQY1zleTfFBGc//qvBNfhLeXCAkdASehwhgsQFJny+nO/WsHTAqj0ZMcq+Kij9T2lF7DToTVVGlY1TrdZajwZM2zCy/Oc7U15tuCwK5ORoFRORoGqMzLb9fBHcUEQz/9MLpyF4+osHER+l8JmHsCk8B8KTNSaCa6ZbDbzd/b7c7mpl2RctNZY50iq1/m1NlOIdI2HHw==);strokeColor=#404040;shadow=1;spacingTop=-3;spacingBottom=-3;spacingLeft=-3;spacingRight=-3;points=[[0.5,0,0],[0.5,0,0],[0.5,0.5,0],[1,0.5,0],[0.5,0.5,0]];labelBackgroundColor=none;rounded=0;html=1;whiteSpace=wrap;" parent="1" vertex="1">
            <mxGeometry x="197" y="1475" width="100" height="29" as="geometry" />
          </mxCell>
        </UserObject>
        <mxCell id="eVqFTHC-zei_5W3eOslK-219" value="" style="outlineConnect=0;dashed=0;verticalLabelPosition=bottom;verticalAlign=top;align=center;html=1;shape=mxgraph.aws3.application_load_balancer;fillColor=#F58534;gradientColor=none;" parent="1" vertex="1">
          <mxGeometry x="148.91" y="320" width="69" height="72" as="geometry" />
        </mxCell>
        <UserObject label="&lt;div style=&quot;font-size: 1px&quot;&gt;&lt;font style=&quot;font-size:11.29px;font-family:Calibri;color:#000000;direction:ltr;letter-spacing:0px;line-height:120%;opacity:1&quot;&gt;Search Node&lt;br&gt;&lt;/font&gt;&lt;/div&gt;" tags="Background" id="JCutN4eRb9OTuJJ_0cN7-220">
          <mxCell style="verticalAlign=top;align=center;overflow=width;vsdxID=1100;fillColor=#8fa350;gradientColor=none;fillOpacity=20;shape=stencil(vVPLlsIgDP0aluUgtFO71s5/cJS2nMHSk+JY/15qcBQ7OKtxl8cN4Sa5RGzGTg6KcDY6sF/qpPeuI2JLONd9p0A7bxFRE7FpLKgW7LHfoz/IGTlbB/s9vzBhXVVSXs1VnJ0xsmLs6n8iXMLO5yDAOS0FoiHAK1p8YGSK62/vVYwWoWbK5KTHDKyTTtse8wFtJLQq892yxsg2So0npYZFOPzP6F69aE7z8hWbnMds1jSP2Sznw97Fxc969UvnBJNi/bwXlkdMEoN5A5HUPaQubMHkdnOpwfxs/f+5/KkXb9y11mhjUKqP+Wdt+hDqWtQX);strokeColor=#404040;shadow=1;points=[[0.5,0,0],[0.5,0,0],[0.5,0.5,0],[1,0.5,0],[0.5,0.5,0]];labelBackgroundColor=none;rounded=0;html=1;whiteSpace=wrap;" vertex="1" parent="1">
            <mxGeometry x="727.5" y="1443.25" width="183" height="103.5" as="geometry" />
          </mxCell>
        </UserObject>
        <UserObject label="&lt;div style=&quot;font-size: 1px&quot;&gt;&lt;/div&gt;" tags="Background" id="JCutN4eRb9OTuJJ_0cN7-221">
          <mxCell style="verticalAlign=top;align=center;overflow=width;vsdxID=1216;fillColor=#0070c0;gradientColor=none;fillOpacity=20;shape=stencil(vZNLcsMgDIZPw9IMFkkcr9PkHkyDbabUeGSSuLcvrugDu0xWyU5IvxCfkJg8jJ0aNAMxenRv+mbOvmPyhQGYvtNofLCYPDJ5aBzqFt2lP9N5ULNytt7ddb5hory64qKcs0B8kKcU4ut8IrnC1xDDKJe83JAaoxy2fEeeKc3/vq8KglhhKtRkxgKdV964nuJRbRW2ugjVisaqNgmNN62HlTu+z5pe54vDhss6jwO82i1wgG/LhGfdIfEsGuB1/U/lDMp+iSI57BOUXG+egJKbicyUiWo5ZQnIqjE///54krsbE4zfbWuMtbSsf+PL7Qwu2mx5/AQ=);strokeColor=#404040;shadow=1;points=[[0.5,0,0],[0.5,0,0],[0.5,0.5,0],[1,0.5,0],[0.5,0.5,0]];labelBackgroundColor=none;rounded=0;html=1;whiteSpace=wrap;" vertex="1" parent="1">
            <mxGeometry x="737.5" y="1456.25" width="160" height="80.5" as="geometry" />
          </mxCell>
        </UserObject>
        <UserObject label="&lt;div style=&quot;font-size: 1px&quot;&gt;&lt;font style=&quot;font-size:8.47px;font-family:Calibri;color:#000000;direction:ltr;letter-spacing:0px;line-height:120%;opacity:1&quot;&gt;&lt;font style=&quot;border-color: var(--border-color); letter-spacing: 0px; direction: ltr; line-height: 10.164px; opacity: 1;&quot;&gt;Tomcat Serverâ€“ 1 (&lt;/font&gt;&lt;font style=&quot;border-color: var(--border-color); letter-spacing: 0px; direction: ltr; line-height: 10.164px; opacity: 1;&quot;&gt;Core â€“ 4 . RAM 16 GB)&lt;/font&gt;&lt;br&gt;&lt;/font&gt;&lt;/div&gt;" tags="Background" id="JCutN4eRb9OTuJJ_0cN7-224">
          <mxCell style="verticalAlign=top;align=left;overflow=width;vsdxID=1109;fillColor=#d7d0e3;gradientColor=#e7e3ee;gradientDirection=north;shape=stencil(nZBLDoAgDERP0z3SIyjew0SURgSD+Lu9kMZoXLhwN9O+tukAlrNpJg1SzDH4QW/URgNYgZTkjA4UkwJUgGXng+6DX1zLfmoymdXo17xh5zmRJ6Q42BWCfc2oJfdAr+Yv+AP9Cb7OJ3H/2JG1HNGz/84klThPVCc=);strokeColor=#404040;shadow=1;points=[[1,0.5,0],[0.5,0,0],[0.5,0.5,0],[0.5,0.5,0]];labelBackgroundColor=none;rounded=0;html=1;whiteSpace=wrap;" vertex="1" parent="1">
            <mxGeometry x="763" y="1464.25" width="121.5" height="60" as="geometry" />
          </mxCell>
        </UserObject>
        <UserObject label="&lt;div style=&quot;font-size: 1px&quot;&gt;&lt;font style=&quot;font-size:8.47px;font-family:Calibri;color:#000000;direction:ltr;letter-spacing:0px;line-height:100%;opacity:1&quot;&gt;Pega NodeType:Search&lt;br&gt;&lt;/font&gt;&lt;/div&gt;" tags="Background" id="JCutN4eRb9OTuJJ_0cN7-225">
          <mxCell style="verticalAlign=middle;align=center;overflow=width;vsdxID=1217;fillColor=#44aac4;gradientColor=#31859b;gradientDirection=north;shape=stencil(vVPLcsMgDPwajtYA6qTmnKb/wTTYZkqNB9PG/fviymmCXSan5KbHSmIlluF+7PRgmORjDP7dnOwxdgxfmJS270ywMVkMDwz3jQ+mDf6zP5I/6Bk5Wx/+a+4wUZ3aQY1zleTfFBGc//qvBNfhLeXCAkdASehwhgsQFJny+nO/WsHTAqj0ZMcq+Kij9T2lF7DToTVVGlY1TrdZajwZM2zCy/Oc7U15tuCwK5ORoFRORoGqMzLb9fBHcUEQz/9MLpyF4+osHER+l8JmHsCk8B8KTNSaCa6ZbDbzd/b7c7mpl2RctNZY50iq1/m1NlOIdI2HHw==);strokeColor=#404040;shadow=1;spacingTop=-3;spacingBottom=-3;spacingLeft=-3;spacingRight=-3;points=[[0.5,0,0],[0.5,0,0],[0.5,0.5,0],[1,0.5,0],[0.5,0.5,0]];labelBackgroundColor=none;rounded=0;html=1;whiteSpace=wrap;" vertex="1" parent="1">
            <mxGeometry x="774.5" y="1487.25" width="100" height="29" as="geometry" />
          </mxCell>
        </UserObject>
        <UserObject label="&lt;div style=&quot;font-size: 1px&quot;&gt;&lt;font style=&quot;font-size:11.29px;font-family:Calibri;color:#000000;direction:ltr;letter-spacing:0px;line-height:120%;opacity:1&quot;&gt;Background Nodes&lt;br&gt;&lt;/font&gt;&lt;/div&gt;" tags="Background" id="JCutN4eRb9OTuJJ_0cN7-226">
          <mxCell style="verticalAlign=top;align=center;overflow=width;vsdxID=1100;fillColor=#8fa350;gradientColor=none;fillOpacity=20;shape=stencil(vVPLlsIgDP0aluUgtFO71s5/cJS2nMHSk+JY/15qcBQ7OKtxl8cN4Sa5RGzGTg6KcDY6sF/qpPeuI2JLONd9p0A7bxFRE7FpLKgW7LHfoz/IGTlbB/s9vzBhXVVSXs1VnJ0xsmLs6n8iXMLO5yDAOS0FoiHAK1p8YGSK62/vVYwWoWbK5KTHDKyTTtse8wFtJLQq892yxsg2So0npYZFOPzP6F69aE7z8hWbnMds1jSP2Sznw97Fxc969UvnBJNi/bwXlkdMEoN5A5HUPaQubMHkdnOpwfxs/f+5/KkXb9y11mhjUKqP+Wdt+hDqWtQX);strokeColor=#404040;shadow=1;points=[[0.5,0,0],[0.5,0,0],[0.5,0.5,0],[1,0.5,0],[0.5,0.5,0]];labelBackgroundColor=none;rounded=0;html=1;whiteSpace=wrap;" vertex="1" parent="1">
            <mxGeometry x="337.5" y="1431" width="180" height="173" as="geometry" />
          </mxCell>
        </UserObject>
        <UserObject label="&lt;div style=&quot;font-size: 1px&quot;&gt;&lt;/div&gt;" tags="Background" id="JCutN4eRb9OTuJJ_0cN7-227">
          <mxCell style="verticalAlign=top;align=center;overflow=width;vsdxID=1216;fillColor=#0070c0;gradientColor=none;fillOpacity=20;shape=stencil(vZNLcsMgDIZPw9IMFkkcr9PkHkyDbabUeGSSuLcvrugDu0xWyU5IvxCfkJg8jJ0aNAMxenRv+mbOvmPyhQGYvtNofLCYPDJ5aBzqFt2lP9N5ULNytt7ddb5hory64qKcs0B8kKcU4ut8IrnC1xDDKJe83JAaoxy2fEeeKc3/vq8KglhhKtRkxgKdV964nuJRbRW2ugjVisaqNgmNN62HlTu+z5pe54vDhss6jwO82i1wgG/LhGfdIfEsGuB1/U/lDMp+iSI57BOUXG+egJKbicyUiWo5ZQnIqjE///54krsbE4zfbWuMtbSsf+PL7Qwu2mx5/AQ=);strokeColor=#404040;shadow=1;points=[[0.5,0,0],[0.5,0,0],[0.5,0.5,0],[1,0.5,0],[0.5,0.5,0]];labelBackgroundColor=none;rounded=0;html=1;whiteSpace=wrap;" vertex="1" parent="1">
            <mxGeometry x="347.5" y="1444" width="160" height="150" as="geometry" />
          </mxCell>
        </UserObject>
        <UserObject label="&lt;div style=&quot;font-size: 1px&quot;&gt;&lt;font style=&quot;font-size:8.47px;font-family:Calibri;color:#000000;direction:ltr;letter-spacing:0px;line-height:120%;opacity:1&quot;&gt;&lt;font style=&quot;border-color: var(--border-color); letter-spacing: 0px; direction: ltr; line-height: 10.164px; opacity: 1;&quot;&gt;Tomcat Serverâ€“ 1 (&lt;/font&gt;&lt;font style=&quot;border-color: var(--border-color); letter-spacing: 0px; direction: ltr; line-height: 10.164px; opacity: 1;&quot;&gt;Core â€“ 4 . RAM 16 GB)&lt;/font&gt;&lt;br&gt;&lt;/font&gt;&lt;/div&gt;" tags="Background" id="JCutN4eRb9OTuJJ_0cN7-228">
          <mxCell style="verticalAlign=top;align=left;overflow=width;vsdxID=1109;fillColor=#d7d0e3;gradientColor=#e7e3ee;gradientDirection=north;shape=stencil(nZBLDoAgDERP0z3SIyjew0SURgSD+Lu9kMZoXLhwN9O+tukAlrNpJg1SzDH4QW/URgNYgZTkjA4UkwJUgGXng+6DX1zLfmoymdXo17xh5zmRJ6Q42BWCfc2oJfdAr+Yv+AP9Cb7OJ3H/2JG1HNGz/84klThPVCc=);strokeColor=#404040;shadow=1;points=[[1,0.5,0],[0.5,0,0],[0.5,0.5,0],[0.5,0.5,0]];labelBackgroundColor=none;rounded=0;html=1;whiteSpace=wrap;" vertex="1" parent="1">
            <mxGeometry x="373.90999999999997" y="1521" width="121.5" height="60" as="geometry" />
          </mxCell>
        </UserObject>
        <UserObject label="&lt;div style=&quot;font-size: 1px&quot;&gt;&lt;font style=&quot;font-size:8.47px;font-family:Calibri;color:#000000;direction:ltr;letter-spacing:0px;line-height:100%;opacity:1&quot;&gt;Pega NodeType:Background&lt;br&gt;&lt;/font&gt;&lt;/div&gt;" tags="Background" id="JCutN4eRb9OTuJJ_0cN7-229">
          <mxCell style="verticalAlign=middle;align=center;overflow=width;vsdxID=1217;fillColor=#44aac4;gradientColor=#31859b;gradientDirection=north;shape=stencil(vVPLcsMgDPwajtYA6qTmnKb/wTTYZkqNB9PG/fviymmCXSan5KbHSmIlluF+7PRgmORjDP7dnOwxdgxfmJS270ywMVkMDwz3jQ+mDf6zP5I/6Bk5Wx/+a+4wUZ3aQY1zleTfFBGc//qvBNfhLeXCAkdASehwhgsQFJny+nO/WsHTAqj0ZMcq+Kij9T2lF7DToTVVGlY1TrdZajwZM2zCy/Oc7U15tuCwK5ORoFRORoGqMzLb9fBHcUEQz/9MLpyF4+osHER+l8JmHsCk8B8KTNSaCa6ZbDbzd/b7c7mpl2RctNZY50iq1/m1NlOIdI2HHw==);strokeColor=#404040;shadow=1;spacingTop=-3;spacingBottom=-3;spacingLeft=-3;spacingRight=-3;points=[[0.5,0,0],[0.5,0,0],[0.5,0.5,0],[1,0.5,0],[0.5,0.5,0]];labelBackgroundColor=none;rounded=0;html=1;whiteSpace=wrap;" vertex="1" parent="1">
            <mxGeometry x="385.40999999999997" y="1544" width="100" height="29" as="geometry" />
          </mxCell>
        </UserObject>
        <UserObject label="&lt;div style=&quot;font-size: 1px&quot;&gt;&lt;font style=&quot;font-size:8.47px;font-family:Calibri;color:#000000;direction:ltr;letter-spacing:0px;line-height:120%;opacity:1&quot;&gt;&lt;font style=&quot;border-color: var(--border-color); letter-spacing: 0px; direction: ltr; line-height: 10.164px; opacity: 1;&quot;&gt;Tomcat Serverâ€“ 1 (&lt;/font&gt;&lt;font style=&quot;border-color: var(--border-color); letter-spacing: 0px; direction: ltr; line-height: 10.164px; opacity: 1;&quot;&gt;Core â€“ 4 . RAM 16 GB)&lt;/font&gt;&lt;br&gt;&lt;/font&gt;&lt;/div&gt;" tags="Background" id="JCutN4eRb9OTuJJ_0cN7-230">
          <mxCell style="verticalAlign=top;align=left;overflow=width;vsdxID=1109;fillColor=#d7d0e3;gradientColor=#e7e3ee;gradientDirection=north;shape=stencil(nZBLDoAgDERP0z3SIyjew0SURgSD+Lu9kMZoXLhwN9O+tukAlrNpJg1SzDH4QW/URgNYgZTkjA4UkwJUgGXng+6DX1zLfmoymdXo17xh5zmRJ6Q42BWCfc2oJfdAr+Yv+AP9Cb7OJ3H/2JG1HNGz/84klThPVCc=);strokeColor=#404040;shadow=1;points=[[1,0.5,0],[0.5,0,0],[0.5,0.5,0],[0.5,0.5,0]];labelBackgroundColor=none;rounded=0;html=1;whiteSpace=wrap;" vertex="1" parent="1">
            <mxGeometry x="373" y="1452" width="121.5" height="60" as="geometry" />
          </mxCell>
        </UserObject>
        <UserObject label="&lt;div style=&quot;font-size: 1px&quot;&gt;&lt;font style=&quot;font-size:8.47px;font-family:Calibri;color:#000000;direction:ltr;letter-spacing:0px;line-height:100%;opacity:1&quot;&gt;Pega NodeType:Background&lt;br&gt;&lt;/font&gt;&lt;/div&gt;" tags="Background" id="JCutN4eRb9OTuJJ_0cN7-231">
          <mxCell style="verticalAlign=middle;align=center;overflow=width;vsdxID=1217;fillColor=#44aac4;gradientColor=#31859b;gradientDirection=north;shape=stencil(vVPLcsMgDPwajtYA6qTmnKb/wTTYZkqNB9PG/fviymmCXSan5KbHSmIlluF+7PRgmORjDP7dnOwxdgxfmJS270ywMVkMDwz3jQ+mDf6zP5I/6Bk5Wx/+a+4wUZ3aQY1zleTfFBGc//qvBNfhLeXCAkdASehwhgsQFJny+nO/WsHTAqj0ZMcq+Kij9T2lF7DToTVVGlY1TrdZajwZM2zCy/Oc7U15tuCwK5ORoFRORoGqMzLb9fBHcUEQz/9MLpyF4+osHER+l8JmHsCk8B8KTNSaCa6ZbDbzd/b7c7mpl2RctNZY50iq1/m1NlOIdI2HHw==);strokeColor=#404040;shadow=1;spacingTop=-3;spacingBottom=-3;spacingLeft=-3;spacingRight=-3;points=[[0.5,0,0],[0.5,0,0],[0.5,0.5,0],[1,0.5,0],[0.5,0.5,0]];labelBackgroundColor=none;rounded=0;html=1;whiteSpace=wrap;" vertex="1" parent="1">
            <mxGeometry x="384.5" y="1475" width="100" height="29" as="geometry" />
          </mxCell>
        </UserObject>
        <UserObject label="&lt;div style=&quot;font-size: 1px&quot;&gt;&lt;font style=&quot;font-size:11.29px;font-family:Calibri;color:#000000;direction:ltr;letter-spacing:0px;line-height:120%;opacity:1&quot;&gt;Stream Nodes&lt;br&gt;&lt;/font&gt;&lt;/div&gt;" tags="Background" id="JCutN4eRb9OTuJJ_0cN7-232">
          <mxCell style="verticalAlign=top;align=center;overflow=width;vsdxID=1100;fillColor=#8fa350;gradientColor=none;fillOpacity=20;shape=stencil(vVPLlsIgDP0aluUgtFO71s5/cJS2nMHSk+JY/15qcBQ7OKtxl8cN4Sa5RGzGTg6KcDY6sF/qpPeuI2JLONd9p0A7bxFRE7FpLKgW7LHfoz/IGTlbB/s9vzBhXVVSXs1VnJ0xsmLs6n8iXMLO5yDAOS0FoiHAK1p8YGSK62/vVYwWoWbK5KTHDKyTTtse8wFtJLQq892yxsg2So0npYZFOPzP6F69aE7z8hWbnMds1jSP2Sznw97Fxc969UvnBJNi/bwXlkdMEoN5A5HUPaQubMHkdnOpwfxs/f+5/KkXb9y11mhjUKqP+Wdt+hDqWtQX);strokeColor=#404040;shadow=1;points=[[0.5,0,0],[0.5,0,0],[0.5,0.5,0],[1,0.5,0],[0.5,0.5,0]];labelBackgroundColor=none;rounded=0;html=1;whiteSpace=wrap;" vertex="1" parent="1">
            <mxGeometry x="527" y="1431" width="180" height="173" as="geometry" />
          </mxCell>
        </UserObject>
        <UserObject label="&lt;div style=&quot;font-size: 1px&quot;&gt;&lt;/div&gt;" tags="Background" id="JCutN4eRb9OTuJJ_0cN7-233">
          <mxCell style="verticalAlign=top;align=center;overflow=width;vsdxID=1216;fillColor=#0070c0;gradientColor=none;fillOpacity=20;shape=stencil(vZNLcsMgDIZPw9IMFkkcr9PkHkyDbabUeGSSuLcvrugDu0xWyU5IvxCfkJg8jJ0aNAMxenRv+mbOvmPyhQGYvtNofLCYPDJ5aBzqFt2lP9N5ULNytt7ddb5hory64qKcs0B8kKcU4ut8IrnC1xDDKJe83JAaoxy2fEeeKc3/vq8KglhhKtRkxgKdV964nuJRbRW2ugjVisaqNgmNN62HlTu+z5pe54vDhss6jwO82i1wgG/LhGfdIfEsGuB1/U/lDMp+iSI57BOUXG+egJKbicyUiWo5ZQnIqjE///54krsbE4zfbWuMtbSsf+PL7Qwu2mx5/AQ=);strokeColor=#404040;shadow=1;points=[[0.5,0,0],[0.5,0,0],[0.5,0.5,0],[1,0.5,0],[0.5,0.5,0]];labelBackgroundColor=none;rounded=0;html=1;whiteSpace=wrap;" vertex="1" parent="1">
            <mxGeometry x="537" y="1444" width="160" height="150" as="geometry" />
          </mxCell>
        </UserObject>
        <UserObject label="&lt;div style=&quot;font-size: 1px&quot;&gt;&lt;font style=&quot;font-size:8.47px;font-family:Calibri;color:#000000;direction:ltr;letter-spacing:0px;line-height:120%;opacity:1&quot;&gt;&lt;font style=&quot;border-color: var(--border-color); letter-spacing: 0px; direction: ltr; line-height: 10.164px; opacity: 1;&quot;&gt;Tomcat Serverâ€“ 1 (&lt;/font&gt;&lt;font style=&quot;border-color: var(--border-color); letter-spacing: 0px; direction: ltr; line-height: 10.164px; opacity: 1;&quot;&gt;Core â€“ 4 . RAM 16 GB)&lt;/font&gt;&lt;br&gt;&lt;/font&gt;&lt;/div&gt;" tags="Background" id="JCutN4eRb9OTuJJ_0cN7-234">
          <mxCell style="verticalAlign=top;align=left;overflow=width;vsdxID=1109;fillColor=#d7d0e3;gradientColor=#e7e3ee;gradientDirection=north;shape=stencil(nZBLDoAgDERP0z3SIyjew0SURgSD+Lu9kMZoXLhwN9O+tukAlrNpJg1SzDH4QW/URgNYgZTkjA4UkwJUgGXng+6DX1zLfmoymdXo17xh5zmRJ6Q42BWCfc2oJfdAr+Yv+AP9Cb7OJ3H/2JG1HNGz/84klThPVCc=);strokeColor=#404040;shadow=1;points=[[1,0.5,0],[0.5,0,0],[0.5,0.5,0],[0.5,0.5,0]];labelBackgroundColor=none;rounded=0;html=1;whiteSpace=wrap;" vertex="1" parent="1">
            <mxGeometry x="563.41" y="1521" width="121.5" height="60" as="geometry" />
          </mxCell>
        </UserObject>
        <UserObject label="&lt;div style=&quot;font-size: 1px&quot;&gt;&lt;font style=&quot;font-size:8.47px;font-family:Calibri;color:#000000;direction:ltr;letter-spacing:0px;line-height:100%;opacity:1&quot;&gt;Pega NodeType:Stream&lt;br&gt;&lt;/font&gt;&lt;/div&gt;" tags="Background" id="JCutN4eRb9OTuJJ_0cN7-235">
          <mxCell style="verticalAlign=middle;align=center;overflow=width;vsdxID=1217;fillColor=#44aac4;gradientColor=#31859b;gradientDirection=north;shape=stencil(vVPLcsMgDPwajtYA6qTmnKb/wTTYZkqNB9PG/fviymmCXSan5KbHSmIlluF+7PRgmORjDP7dnOwxdgxfmJS270ywMVkMDwz3jQ+mDf6zP5I/6Bk5Wx/+a+4wUZ3aQY1zleTfFBGc//qvBNfhLeXCAkdASehwhgsQFJny+nO/WsHTAqj0ZMcq+Kij9T2lF7DToTVVGlY1TrdZajwZM2zCy/Oc7U15tuCwK5ORoFRORoGqMzLb9fBHcUEQz/9MLpyF4+osHER+l8JmHsCk8B8KTNSaCa6ZbDbzd/b7c7mpl2RctNZY50iq1/m1NlOIdI2HHw==);strokeColor=#404040;shadow=1;spacingTop=-3;spacingBottom=-3;spacingLeft=-3;spacingRight=-3;points=[[0.5,0,0],[0.5,0,0],[0.5,0.5,0],[1,0.5,0],[0.5,0.5,0]];labelBackgroundColor=none;rounded=0;html=1;whiteSpace=wrap;" vertex="1" parent="1">
            <mxGeometry x="574.91" y="1544" width="100" height="29" as="geometry" />
          </mxCell>
        </UserObject>
        <UserObject label="&lt;div style=&quot;font-size: 1px&quot;&gt;&lt;font style=&quot;font-size:8.47px;font-family:Calibri;color:#000000;direction:ltr;letter-spacing:0px;line-height:120%;opacity:1&quot;&gt;&lt;font style=&quot;border-color: var(--border-color); letter-spacing: 0px; direction: ltr; line-height: 10.164px; opacity: 1;&quot;&gt;Tomcat Serverâ€“ 1 (&lt;/font&gt;&lt;font style=&quot;border-color: var(--border-color); letter-spacing: 0px; direction: ltr; line-height: 10.164px; opacity: 1;&quot;&gt;Core â€“ 4 . RAM 16 GB)&lt;/font&gt;&lt;br&gt;&lt;/font&gt;&lt;/div&gt;" tags="Background" id="JCutN4eRb9OTuJJ_0cN7-236">
          <mxCell style="verticalAlign=top;align=left;overflow=width;vsdxID=1109;fillColor=#d7d0e3;gradientColor=#e7e3ee;gradientDirection=north;shape=stencil(nZBLDoAgDERP0z3SIyjew0SURgSD+Lu9kMZoXLhwN9O+tukAlrNpJg1SzDH4QW/URgNYgZTkjA4UkwJUgGXng+6DX1zLfmoymdXo17xh5zmRJ6Q42BWCfc2oJfdAr+Yv+AP9Cb7OJ3H/2JG1HNGz/84klThPVCc=);strokeColor=#404040;shadow=1;points=[[1,0.5,0],[0.5,0,0],[0.5,0.5,0],[0.5,0.5,0]];labelBackgroundColor=none;rounded=0;html=1;whiteSpace=wrap;" vertex="1" parent="1">
            <mxGeometry x="562.5" y="1452" width="121.5" height="60" as="geometry" />
          </mxCell>
        </UserObject>
        <UserObject label="&lt;div style=&quot;font-size: 1px&quot;&gt;&lt;font style=&quot;font-size:8.47px;font-family:Calibri;color:#000000;direction:ltr;letter-spacing:0px;line-height:100%;opacity:1&quot;&gt;Pega NodeType:Stream&lt;br&gt;&lt;/font&gt;&lt;/div&gt;" tags="Background" id="JCutN4eRb9OTuJJ_0cN7-237">
          <mxCell style="verticalAlign=middle;align=center;overflow=width;vsdxID=1217;fillColor=#44aac4;gradientColor=#31859b;gradientDirection=north;shape=stencil(vVPLcsMgDPwajtYA6qTmnKb/wTTYZkqNB9PG/fviymmCXSan5KbHSmIlluF+7PRgmORjDP7dnOwxdgxfmJS270ywMVkMDwz3jQ+mDf6zP5I/6Bk5Wx/+a+4wUZ3aQY1zleTfFBGc//qvBNfhLeXCAkdASehwhgsQFJny+nO/WsHTAqj0ZMcq+Kij9T2lF7DToTVVGlY1TrdZajwZM2zCy/Oc7U15tuCwK5ORoFRORoGqMzLb9fBHcUEQz/9MLpyF4+osHER+l8JmHsCk8B8KTNSaCa6ZbDbzd/b7c7mpl2RctNZY50iq1/m1NlOIdI2HHw==);strokeColor=#404040;shadow=1;spacingTop=-3;spacingBottom=-3;spacingLeft=-3;spacingRight=-3;points=[[0.5,0,0],[0.5,0,0],[0.5,0.5,0],[1,0.5,0],[0.5,0.5,0]];labelBackgroundColor=none;rounded=0;html=1;whiteSpace=wrap;" vertex="1" parent="1">
            <mxGeometry x="574" y="1475" width="100" height="29" as="geometry" />
          </mxCell>
        </UserObject>
        <UserObject label="&lt;div style=&quot;font-size: 1px&quot;&gt;&lt;font style=&quot;font-size:11.29px;font-family:Calibri;color:#000000;direction:ltr;letter-spacing:0px;line-height:120%;opacity:1&quot;&gt;Local Zone&lt;/font&gt;&lt;font style=&quot;font-size:11.29px;font-family:Calibri;color:#000000;direction:ltr;letter-spacing:0px;line-height:120%;opacity:1&quot;&gt;&lt;br&gt;&lt;/font&gt;&lt;/div&gt;" tags="Background" id="JCutN4eRb9OTuJJ_0cN7-238">
          <mxCell style="verticalAlign=top;align=left;overflow=width;vsdxID=1096;fillColor=#f0f0f0;gradientColor=#ffffff;gradientDirection=north;shape=stencil(nZBLDoAgDERP0z3SIyjew0SURgSD+Lu9kMZoXLhwN9O+tukAlrNpJg1SzDH4QW/URgNYgZTkjA4UkwJUgGXng+6DX1zLfmoymdXo17xh5zmRJ6Q42BWCfc2oJfdAr+Yv+AP9Cb7OJ3H/2JG1HNGz/84klThPVCc=);strokeColor=#404040;shadow=1;points=[[1,0.5,0],[0.5,0,0],[0.5,0.5,0],[0.5,0.5,0]];labelBackgroundColor=none;rounded=0;html=1;whiteSpace=wrap;" vertex="1" parent="1">
            <mxGeometry x="1021.5" y="1388" width="812" height="422" as="geometry" />
          </mxCell>
        </UserObject>
        <UserObject label="&lt;div style=&quot;font-size: 1px&quot;&gt;&lt;font style=&quot;font-size:11.29px;font-family:Calibri;color:#000000;direction:ltr;letter-spacing:0px;line-height:120%;opacity:1&quot;&gt;WebUser Nodes&lt;br&gt;&lt;/font&gt;&lt;/div&gt;" tags="Background" id="JCutN4eRb9OTuJJ_0cN7-239">
          <mxCell style="verticalAlign=top;align=center;overflow=width;vsdxID=1100;fillColor=#8fa350;gradientColor=none;fillOpacity=20;shape=stencil(vVPLlsIgDP0aluUgtFO71s5/cJS2nMHSk+JY/15qcBQ7OKtxl8cN4Sa5RGzGTg6KcDY6sF/qpPeuI2JLONd9p0A7bxFRE7FpLKgW7LHfoz/IGTlbB/s9vzBhXVVSXs1VnJ0xsmLs6n8iXMLO5yDAOS0FoiHAK1p8YGSK62/vVYwWoWbK5KTHDKyTTtse8wFtJLQq892yxsg2So0npYZFOPzP6F69aE7z8hWbnMds1jSP2Sznw97Fxc969UvnBJNi/bwXlkdMEoN5A5HUPaQubMHkdnOpwfxs/f+5/KkXb9y11mhjUKqP+Wdt+hDqWtQX);strokeColor=#404040;shadow=1;points=[[0.5,0,0],[0.5,0,0],[0.5,0.5,0],[1,0.5,0],[0.5,0.5,0]];labelBackgroundColor=none;rounded=0;html=1;whiteSpace=wrap;" vertex="1" parent="1">
            <mxGeometry x="1032.5" y="1431" width="180" height="173" as="geometry" />
          </mxCell>
        </UserObject>
        <UserObject label="&lt;div style=&quot;font-size: 1px&quot;&gt;&lt;font style=&quot;font-size:33.87px;font-family:Calibri;color:#000000;direction:ltr;letter-spacing:0px;line-height:120%;opacity:1&quot;&gt;Pre-Prod Environment&lt;br&gt;&lt;/font&gt;&lt;/div&gt;" tags="Background" id="JCutN4eRb9OTuJJ_0cN7-240">
          <mxCell style="verticalAlign=middle;align=center;overflow=width;vsdxID=1101;fillColor=#dae8fc;gradientDirection=north;shape=stencil(nZBLDoAgDERP0z3SIyjew0SURgSD+Lu9kMZoXLhwN9O+tukAlrNpJg1SzDH4QW/URgNYgZTkjA4UkwJUgGXng+6DX1zLfmoymdXo17xh5zmRJ6Q42BWCfc2oJfdAr+Yv+AP9Cb7OJ3H/2JG1HNGz/84klThPVCc=);strokeColor=#6c8ebf;shadow=1;points=[[1,0.5,0],[0.5,0,0],[0.5,0.5,0],[0.5,0.5,0]];labelBackgroundColor=none;rounded=0;html=1;whiteSpace=wrap;" vertex="1" parent="1">
            <mxGeometry x="1019" y="1283.5" width="814" height="49" as="geometry" />
          </mxCell>
        </UserObject>
        <UserObject label="" tags="Background" id="JCutN4eRb9OTuJJ_0cN7-241">
          <mxCell style="vsdxID=1187;fillColor=none;gradientColor=none;points=[[0.5,0.5,0]];labelBackgroundColor=none;rounded=0;strokeColor=none;html=1;whiteSpace=wrap;" vertex="1" parent="1">
            <mxGeometry x="1172.5" y="1640" width="360" height="110" as="geometry" />
          </mxCell>
        </UserObject>
        <mxCell id="JCutN4eRb9OTuJJ_0cN7-242" style="vsdxID=1188;edgeStyle=none;startArrow=none;endArrow=none;startSize=5;endSize=5;spacingTop=0;spacingBottom=0;spacingLeft=0;spacingRight=0;verticalAlign=middle;html=1;labelBackgroundColor=none;rounded=0;" edge="1" parent="JCutN4eRb9OTuJJ_0cN7-241">
          <mxGeometry relative="1" as="geometry">
            <mxPoint x="-1" as="offset" />
            <Array as="points" />
            <mxPoint x="76.9811320754717" y="61.285714285714285" as="sourcePoint" />
            <mxPoint x="185.66037735849062" y="61.285714285714285" as="targetPoint" />
          </mxGeometry>
        </mxCell>
        <mxCell id="JCutN4eRb9OTuJJ_0cN7-243" style="vsdxID=1189;fillColor=#FFFFFF;gradientColor=none;shape=stencil(nZBLDoAgDERP0z3SIyjew0SURgSD+Lu9kMZoXLhwN9O+tukAlrNpJg1SzDH4QW/URgNYgZTkjA4UkwJUgGXng+6DX1zLfmoymdXo17xh5zmRJ6Q42BWCfc2oJfdAr+Yv+AP9Cb7OJ3H/2JG1HNGz/84klThPVCc=);points=[[0.5,0.5,0]];labelBackgroundColor=none;rounded=0;html=1;whiteSpace=wrap;" vertex="1" parent="JCutN4eRb9OTuJJ_0cN7-241">
          <mxGeometry x="185.66037735849062" y="41.642857142857146" width="79.24528301886792" height="36.92857142857143" as="geometry" />
        </mxCell>
        <mxCell id="JCutN4eRb9OTuJJ_0cN7-244" style="vsdxID=1190;fillColor=#fff2cc;shape=stencil(vVzbdtw2DPwaP0aHF1Ein3v5D5/WSXzqxjkbt03+vtjuSoRmsNSKafuWyOCOSIIACAz0EH/48vHx89NDcF/eTq+/Pf31/Ovbx4f440MIz58+Pp2e3+RfD/Gnh/jD+9fT04fT6x+ffr38//PjWfL8r99f/zz/wtfLOHceEdy3y//mwc3/PPj5Ivvy/Omm7DQNaWwID8635X/543R5E7+MCOU64vpkdkNMl0dfw+WRHwe3SF0fzXEYw1UqXh5FX6UiSt2AH/PgMuCrX76CTX7IGfDVW17BpjD4aYu/s1znEfOR9eUBuHk4QRmBE8xDnrfzS7C43g0wt+tLrRPzfpibC7sO8Digoo6AqkQW2DiUchQ5DtNE4NkDeBxiIPxcAD8MZSb8MjXxwyKg8QsuuUglwl+lFD6vfGnuuIxBeNGBRPAB4UW3cPkFC9BFqDTR/apdCh53XoQYncFzIPTgd9DHzOiZ4H0k+DgCvhvmTPhjG1/GRMJHcyJSE564QObsLJUYP+7gR8/4ZYs/lqqhFT/BkRepyRP+1Jy/jKGDL2Mi4Y8z4U8j4aPqh2VFbsM7Vj44eWLyZ7Q8IjQBejbQc3vyuZqUip4DwQeGz5HgPRoekWq60nFef0bj4+bPqz4o/IKLPw+e51+aR1/GOLQ8uPNTtacLeFxjhhV8Wt96BReptiOfWPPiqg0KH41+HDzCp2WhNbxvGn0ZMzO8R/i0ngWNnwk/oeGLO2ZXxvhC+AGXf2S7K1LgdEQq4cGPi125hT8OEQ1v9bAKn7yOSKHuj6sj0vjtkx8HAx7svgiR3eEwUqRI9UWqDS9ng/HHCfBXC7LBx+2vplDjt7e/ui+Fn3D5JQ5A0xPZ7vuqyhU/NWMOGZPo6A8JTY+vSlLx0fD6gTd/x+u4gXWfnI4b0OfVQHEFF//J4HkH3KPLjat/X9CjuFzeejh4IjTz3NvRrowZ0ejHdQMVPEU8kXxezNWBKPzmzsuYCZ2ejMHp5yVw0viZ4D2b/bbPjXNd1wqPPlek1pdU8ODzRCry9HPz4MsYY/czHPyoHJrCx+2fFlXb4De1T8ZE1n30+SLFqw9XnZgGBi/txU/WqS+4+IlvWiIVCd5hwLNK3cIfDaNfUPXFm7HqFzB6UXkmBd/0+bH+jMbHvY81jFf4uPexGvCIUrfxVz+p8MHpxTCw6hU8esFSvdJWPbkKGtNH1fPW0SuofJy6qVK38N3qulr4bgkcW/ih1KD43vnLmICXDV5+kXLG9sP6B9PytrdfxiS2/JhnEKlgzB8sf5jXY3u3+suYiWOOAokGkYocc+F1Q6Q44mwf/jCtZlbDg9cXqckwfQHgp/qS9xo/GYOJNWVUF/i0ukJt+FH70sC2p233ZUhgdMzriZTjoCfj5o/Wfaft92SMcfgy2F6RCrz5GVe/noe7/X5Y45INPsDX4FZHPbj6pultRz0yxrHuz2D6QxhmAx91PyyXi/ujPhkTWPlx90N1qSrkxemr3Pa9Ma+MSbz6E07fW7uPaZ7gOMW6F/DLmNmI+AHeWUc/4fTdMB697cgYz5Y3YdGiVJuu8EH5RSqx5W/f9mRM5OUfM+Gz4R8ngncGfPPs+zwY6AHQs3XXi+D3RMqx7rev+l75KnXXB8MvUobljbj6c60V3JvqkDGU5lNJlAVsqpULlWqBqFekKMe7l+rxZqbL4+5PVa9VqmkmfOPK0051+WTlOjzUV7yZ6nKIn2r5795M33kMwTuGX2PjFZ6wSfX3Upx+rJn7mmLFK4dIRSPFC5bnXNTk/Ho7xasiHJ3iRd2PVnkF3e7ZYXB9o+12zwed8/vo987qQPC486E68HvT+/VXdHEBFz+w4qkSRMVKePD3ihu1+qTxE07e17hUFXdw8z3nePeKO94sbpHh9Xzwubh0lmL49vQ9xzyqalZLx0ZtK6Ddr9Xzu2t75zGs+zj7msC7WVgUmcCK3za6hX2OKpeGRShhvKMqr3ERCrjyexXdUq9wtwvKpSrn7XpyodzqXjU7V1Oiiulwzcm1YKBOAZRV8uqj7i7lqyEehyhwj4EGEwmMctoeePWW36oGQozniJeSKa3ntrhI2NgyczLyO/7fNTq+QQktIlMtMnsjZloc18zC1tg8FRgGmKfi+JGkCxCTLJTRqPYAORY91khZuaYlvMcU9thhIwZCjoX2FhUeORZ9bsgIQSwviBpvesEeL0x5J6ZY6FihPkp4++qLQibefKx2qVBJBUG4+j0xWI3tKCpT8Z8RgmC1qTP+JHfEFAsdJav4F0PAnvh75DorUyz0LaHiY86z6/6RjJQ/gCfj2o8Mi857FykeMyz07VBdBxC/59458cFnioW+HSt8jD/77t2Fk05IsdDZAXXvx9tPX97BSHohxUJnR1TeA3W/J++STYoH2v1MhocpFl1Zp2Jc+5FhoTNjCh53vy/nRuQqZljozKDK+cEVoDPnOKHhZYaFToyqlCvBH8+4eqvYhXdvnRdW8Ijfk3EOzOxjloVOi6uEO8D35dtnLncgy0JXBRQ8Tr+v3mCUW5BloYsiKhVE8MerLaO1++h2dU1IwWO+v6falAxmIbEsdE1M4eP2dxXbDMuLXl8XBFUgAuh9lUbj6CPNQtdDOQ76nkLrbFUbMOepq8EKHi1fT505c/qDaRa6Gq7wcfN76uyqgt+s8xvFLqrzd/AMNINB4TPPwTh8/wrPwlsML8JXbJAGfh/PhA8fsVyike9nmksfy2Yytn8mfGrnYJpFF8toNGkekGpQVCgFjwS3Ho5VsqpdSLPQTDCFHwj/MMVsousmkSw0B07ZfVS9PnZdNgw/7r3iACp83Ps+dqFx9JBloTmQCh8Xv4ddqWibCh/gs8XwQpZFF7e0WHV2rDZpBqzCR93v49Ya5FLk9Dtr95Fl0Ucs5pgHORaK+qzAkVDfQan21mUPwb116pFh0cUnDxa/BhkWmvWu8EHxO/n0mXceGRaa9a9um8gp7+knUJ0KCj8AfjSMPlIsuroplJ9SV33uJrEoHrj8fd0klOZjioXueVGpFlT+vm4aI9WFFAvd86NSTdhN09NNNBm5DmRYjGamCxkWnb1UhbUPKRa63WvFB/C+LrIRfS5TLHSvm0rxounp6aJT/XkqxYu6nznNxxSLviZCaiRjhoVudKSM//c1UJLdYYqF7vJU1QXc/L7+UeqdDmT3dZerKu5g73Zf/6xR2zL6d2dWPqN/93j/sOeIhzkWySxuIceis3/aqK/g9FWL983KYk/reGCvwyQL1d5ewZFk0dk3T+0cdt8+4tt9+4e/GxD5psVUC/11A1VNh/pK13cT/p0vNhz+UITRs+0o1NIfvrg+ymRutdD10d63MZDiEQdqWc7Us+q2sEZSxbVg1c14gXVbTLfFUy8VtwL3zNJtoTJ3xxFbz1HJ5A7+DBBZxlrjWH51syrbD5ssf+wSLhleZSvOr3J4ALzO3lTLtOzYfe9/UHyEtMHudA8PwBfanfBquu+bwUFxBynC3fc/PABfaDvhkmq0uf7Expg/nn6RP57WzyAtPuL0bX2yGPLrT0p0NNs/6b6+e/z6/OXd6fXt8e359dPmGL88nj48vRO4d+9fHj9c1+vypy9/PT19Vo/d973g7Tn/Jy8o/6ifq3r//PJy+dqV/jt+3koeXT6NFX/6Gw==);points=[[0.5,0.5,0]];labelBackgroundColor=none;rounded=0;html=1;whiteSpace=wrap;strokeColor=#d6b656;" vertex="1" parent="JCutN4eRb9OTuJJ_0cN7-241">
          <mxGeometry x="2.2641509433962264" width="253.58490566037736" height="73.07142857142858" as="geometry" />
        </mxCell>
        <mxCell id="JCutN4eRb9OTuJJ_0cN7-245" value="&lt;div style=&quot;font-size: 1px&quot;&gt;&lt;font style=&quot;font-size:14.11px;font-family:Calibri;color:#4d1e1a;direction:ltr;letter-spacing:0px;line-height:120%;opacity:1&quot;&gt;Oracle SERVER Core-4 Ram 16 GB 200 GB&lt;br&gt;&lt;/font&gt;&lt;/div&gt;&lt;div style=&quot;font-size: 1px&quot;&gt;&lt;font style=&quot;font-size:14.11px;font-family:Calibri;color:#4d1e1a;direction:ltr;letter-spacing:0px;line-height:120%;opacity:1&quot;&gt;Schemas&lt;/font&gt;&lt;/div&gt;&lt;div style=&quot;font-size: 1px&quot;&gt;&lt;font style=&quot;font-size:14.11px;font-family:Calibri;color:#4d1e1a;direction:ltr;letter-spacing:0px;line-height:120%;opacity:1&quot;&gt;PegaRules/&lt;/font&gt;&lt;span style=&quot;color: rgb(77, 30, 26); font-family: Calibri; font-size: 14.11px; letter-spacing: 0px; background-color: initial;&quot;&gt;PegaData/&lt;/span&gt;&lt;span style=&quot;color: rgb(77, 30, 26); font-family: Calibri; font-size: 14.11px; letter-spacing: 0px; background-color: initial;&quot;&gt;Customer&lt;/span&gt;&lt;/div&gt;&lt;div style=&quot;font-size: 1px&quot;&gt;&lt;br&gt;&lt;/div&gt;&lt;div style=&quot;font-size: 1px&quot;&gt;&lt;font style=&quot;font-size:14.11px;font-family:Calibri;color:#4d1e1a;direction:ltr;letter-spacing:0px;line-height:120%;opacity:1&quot;&gt;&lt;br&gt;&lt;/font&gt;&lt;/div&gt;" style="text;vsdxID=1187;fillColor=none;gradientColor=none;points=[[0.5,0.5,0]];labelBackgroundColor=none;rounded=0;strokeColor=none;html=1;whiteSpace=wrap;verticalAlign=middle;align=center;overflow=width;;html=1;" vertex="1" parent="JCutN4eRb9OTuJJ_0cN7-241">
          <mxGeometry x="-89.2301886792453" y="79.35714285714286" width="449.2301886792453" height="30.642857142857142" as="geometry" />
        </mxCell>
        <UserObject label="&lt;div style=&quot;font-size: 1px&quot;&gt;&lt;/div&gt;" tags="Background" id="JCutN4eRb9OTuJJ_0cN7-246">
          <mxCell style="verticalAlign=top;align=center;overflow=width;vsdxID=1216;fillColor=#0070c0;gradientColor=none;fillOpacity=20;shape=stencil(vZNLcsMgDIZPw9IMFkkcr9PkHkyDbabUeGSSuLcvrugDu0xWyU5IvxCfkJg8jJ0aNAMxenRv+mbOvmPyhQGYvtNofLCYPDJ5aBzqFt2lP9N5ULNytt7ddb5hory64qKcs0B8kKcU4ut8IrnC1xDDKJe83JAaoxy2fEeeKc3/vq8KglhhKtRkxgKdV964nuJRbRW2ugjVisaqNgmNN62HlTu+z5pe54vDhss6jwO82i1wgG/LhGfdIfEsGuB1/U/lDMp+iSI57BOUXG+egJKbicyUiWo5ZQnIqjE///54krsbE4zfbWuMtbSsf+PL7Qwu2mx5/AQ=);strokeColor=#404040;shadow=1;points=[[0.5,0,0],[0.5,0,0],[0.5,0.5,0],[1,0.5,0],[0.5,0.5,0]];labelBackgroundColor=none;rounded=0;html=1;whiteSpace=wrap;" vertex="1" parent="1">
            <mxGeometry x="1042.5" y="1444" width="160" height="150" as="geometry" />
          </mxCell>
        </UserObject>
        <UserObject label="&lt;div style=&quot;font-size: 1px&quot;&gt;&lt;font style=&quot;font-size:8.47px;font-family:Calibri;color:#000000;direction:ltr;letter-spacing:0px;line-height:120%;opacity:1&quot;&gt;&lt;font style=&quot;border-color: var(--border-color); letter-spacing: 0px; direction: ltr; line-height: 10.164px; opacity: 1;&quot;&gt;Tomcat Serverâ€“ 1 (&lt;/font&gt;&lt;font style=&quot;border-color: var(--border-color); letter-spacing: 0px; direction: ltr; line-height: 10.164px; opacity: 1;&quot;&gt;Core â€“ 4 . RAM 16 GB)&lt;/font&gt;&lt;br&gt;&lt;/font&gt;&lt;/div&gt;" tags="Background" id="JCutN4eRb9OTuJJ_0cN7-247">
          <mxCell style="verticalAlign=top;align=left;overflow=width;vsdxID=1109;fillColor=#d7d0e3;gradientColor=#e7e3ee;gradientDirection=north;shape=stencil(nZBLDoAgDERP0z3SIyjew0SURgSD+Lu9kMZoXLhwN9O+tukAlrNpJg1SzDH4QW/URgNYgZTkjA4UkwJUgGXng+6DX1zLfmoymdXo17xh5zmRJ6Q42BWCfc2oJfdAr+Yv+AP9Cb7OJ3H/2JG1HNGz/84klThPVCc=);strokeColor=#404040;shadow=1;points=[[1,0.5,0],[0.5,0,0],[0.5,0.5,0],[0.5,0.5,0]];labelBackgroundColor=none;rounded=0;html=1;whiteSpace=wrap;" vertex="1" parent="1">
            <mxGeometry x="1068.9099999999999" y="1521" width="121.5" height="60" as="geometry" />
          </mxCell>
        </UserObject>
        <UserObject label="&lt;div style=&quot;font-size: 1px&quot;&gt;&lt;font style=&quot;font-size:8.47px;font-family:Calibri;color:#000000;direction:ltr;letter-spacing:0px;line-height:100%;opacity:1&quot;&gt;Pega NodeType:WebUser&lt;br&gt;&lt;/font&gt;&lt;/div&gt;" tags="Background" id="JCutN4eRb9OTuJJ_0cN7-248">
          <mxCell style="verticalAlign=middle;align=center;overflow=width;vsdxID=1217;fillColor=#44aac4;gradientColor=#31859b;gradientDirection=north;shape=stencil(vVPLcsMgDPwajtYA6qTmnKb/wTTYZkqNB9PG/fviymmCXSan5KbHSmIlluF+7PRgmORjDP7dnOwxdgxfmJS270ywMVkMDwz3jQ+mDf6zP5I/6Bk5Wx/+a+4wUZ3aQY1zleTfFBGc//qvBNfhLeXCAkdASehwhgsQFJny+nO/WsHTAqj0ZMcq+Kij9T2lF7DToTVVGlY1TrdZajwZM2zCy/Oc7U15tuCwK5ORoFRORoGqMzLb9fBHcUEQz/9MLpyF4+osHER+l8JmHsCk8B8KTNSaCa6ZbDbzd/b7c7mpl2RctNZY50iq1/m1NlOIdI2HHw==);strokeColor=#404040;shadow=1;spacingTop=-3;spacingBottom=-3;spacingLeft=-3;spacingRight=-3;points=[[0.5,0,0],[0.5,0,0],[0.5,0.5,0],[1,0.5,0],[0.5,0.5,0]];labelBackgroundColor=none;rounded=0;html=1;whiteSpace=wrap;" vertex="1" parent="1">
            <mxGeometry x="1080.4099999999999" y="1544" width="100" height="29" as="geometry" />
          </mxCell>
        </UserObject>
        <UserObject label="&lt;div style=&quot;font-size: 1px&quot;&gt;&lt;font style=&quot;font-size:8.47px;font-family:Calibri;color:#000000;direction:ltr;letter-spacing:0px;line-height:120%;opacity:1&quot;&gt;&lt;font style=&quot;border-color: var(--border-color); letter-spacing: 0px; direction: ltr; line-height: 10.164px; opacity: 1;&quot;&gt;Tomcat Serverâ€“ 1 (&lt;/font&gt;&lt;font style=&quot;border-color: var(--border-color); letter-spacing: 0px; direction: ltr; line-height: 10.164px; opacity: 1;&quot;&gt;Core â€“ 4 . RAM 16 GB)&lt;/font&gt;&lt;br&gt;&lt;/font&gt;&lt;/div&gt;" tags="Background" id="JCutN4eRb9OTuJJ_0cN7-249">
          <mxCell style="verticalAlign=top;align=left;overflow=width;vsdxID=1109;fillColor=#d7d0e3;gradientColor=#e7e3ee;gradientDirection=north;shape=stencil(nZBLDoAgDERP0z3SIyjew0SURgSD+Lu9kMZoXLhwN9O+tukAlrNpJg1SzDH4QW/URgNYgZTkjA4UkwJUgGXng+6DX1zLfmoymdXo17xh5zmRJ6Q42BWCfc2oJfdAr+Yv+AP9Cb7OJ3H/2JG1HNGz/84klThPVCc=);strokeColor=#404040;shadow=1;points=[[1,0.5,0],[0.5,0,0],[0.5,0.5,0],[0.5,0.5,0]];labelBackgroundColor=none;rounded=0;html=1;whiteSpace=wrap;" vertex="1" parent="1">
            <mxGeometry x="1068" y="1452" width="121.5" height="60" as="geometry" />
          </mxCell>
        </UserObject>
        <UserObject label="&lt;div style=&quot;font-size: 1px&quot;&gt;&lt;font style=&quot;font-size:8.47px;font-family:Calibri;color:#000000;direction:ltr;letter-spacing:0px;line-height:100%;opacity:1&quot;&gt;Pega NodeType:Background&lt;br&gt;&lt;/font&gt;&lt;/div&gt;" tags="Background" id="JCutN4eRb9OTuJJ_0cN7-250">
          <mxCell style="verticalAlign=middle;align=center;overflow=width;vsdxID=1217;fillColor=#44aac4;gradientColor=#31859b;gradientDirection=north;shape=stencil(vVPLcsMgDPwajtYA6qTmnKb/wTTYZkqNB9PG/fviymmCXSan5KbHSmIlluF+7PRgmORjDP7dnOwxdgxfmJS270ywMVkMDwz3jQ+mDf6zP5I/6Bk5Wx/+a+4wUZ3aQY1zleTfFBGc//qvBNfhLeXCAkdASehwhgsQFJny+nO/WsHTAqj0ZMcq+Kij9T2lF7DToTVVGlY1TrdZajwZM2zCy/Oc7U15tuCwK5ORoFRORoGqMzLb9fBHcUEQz/9MLpyF4+osHER+l8JmHsCk8B8KTNSaCa6ZbDbzd/b7c7mpl2RctNZY50iq1/m1NlOIdI2HHw==);strokeColor=#404040;shadow=1;spacingTop=-3;spacingBottom=-3;spacingLeft=-3;spacingRight=-3;points=[[0.5,0,0],[0.5,0,0],[0.5,0.5,0],[1,0.5,0],[0.5,0.5,0]];labelBackgroundColor=none;rounded=0;html=1;whiteSpace=wrap;" vertex="1" parent="1">
            <mxGeometry x="1079.5" y="1475" width="100" height="29" as="geometry" />
          </mxCell>
        </UserObject>
        <UserObject label="&lt;div style=&quot;font-size: 1px&quot;&gt;&lt;font style=&quot;font-size:11.29px;font-family:Calibri;color:#000000;direction:ltr;letter-spacing:0px;line-height:120%;opacity:1&quot;&gt;Search Node&lt;br&gt;&lt;/font&gt;&lt;/div&gt;" tags="Background" id="JCutN4eRb9OTuJJ_0cN7-251">
          <mxCell style="verticalAlign=top;align=center;overflow=width;vsdxID=1100;fillColor=#8fa350;gradientColor=none;fillOpacity=20;shape=stencil(vVPLlsIgDP0aluUgtFO71s5/cJS2nMHSk+JY/15qcBQ7OKtxl8cN4Sa5RGzGTg6KcDY6sF/qpPeuI2JLONd9p0A7bxFRE7FpLKgW7LHfoz/IGTlbB/s9vzBhXVVSXs1VnJ0xsmLs6n8iXMLO5yDAOS0FoiHAK1p8YGSK62/vVYwWoWbK5KTHDKyTTtse8wFtJLQq892yxsg2So0npYZFOPzP6F69aE7z8hWbnMds1jSP2Sznw97Fxc969UvnBJNi/bwXlkdMEoN5A5HUPaQubMHkdnOpwfxs/f+5/KkXb9y11mhjUKqP+Wdt+hDqWtQX);strokeColor=#404040;shadow=1;points=[[0.5,0,0],[0.5,0,0],[0.5,0.5,0],[1,0.5,0],[0.5,0.5,0]];labelBackgroundColor=none;rounded=0;html=1;whiteSpace=wrap;" vertex="1" parent="1">
            <mxGeometry x="1608.5" y="1428.75" width="183" height="103.5" as="geometry" />
          </mxCell>
        </UserObject>
        <UserObject label="&lt;div style=&quot;font-size: 1px&quot;&gt;&lt;/div&gt;" tags="Background" id="JCutN4eRb9OTuJJ_0cN7-252">
          <mxCell style="verticalAlign=top;align=center;overflow=width;vsdxID=1216;fillColor=#0070c0;gradientColor=none;fillOpacity=20;shape=stencil(vZNLcsMgDIZPw9IMFkkcr9PkHkyDbabUeGSSuLcvrugDu0xWyU5IvxCfkJg8jJ0aNAMxenRv+mbOvmPyhQGYvtNofLCYPDJ5aBzqFt2lP9N5ULNytt7ddb5hory64qKcs0B8kKcU4ut8IrnC1xDDKJe83JAaoxy2fEeeKc3/vq8KglhhKtRkxgKdV964nuJRbRW2ugjVisaqNgmNN62HlTu+z5pe54vDhss6jwO82i1wgG/LhGfdIfEsGuB1/U/lDMp+iSI57BOUXG+egJKbicyUiWo5ZQnIqjE///54krsbE4zfbWuMtbSsf+PL7Qwu2mx5/AQ=);strokeColor=#404040;shadow=1;points=[[0.5,0,0],[0.5,0,0],[0.5,0.5,0],[1,0.5,0],[0.5,0.5,0]];labelBackgroundColor=none;rounded=0;html=1;whiteSpace=wrap;" vertex="1" parent="1">
            <mxGeometry x="1620" y="1444" width="160" height="80.5" as="geometry" />
          </mxCell>
        </UserObject>
        <UserObject label="&lt;div style=&quot;font-size: 1px&quot;&gt;&lt;font style=&quot;font-size:8.47px;font-family:Calibri;color:#000000;direction:ltr;letter-spacing:0px;line-height:120%;opacity:1&quot;&gt;&lt;font style=&quot;border-color: var(--border-color); letter-spacing: 0px; direction: ltr; line-height: 10.164px; opacity: 1;&quot;&gt;Tomcat Serverâ€“ 1 (&lt;/font&gt;&lt;font style=&quot;border-color: var(--border-color); letter-spacing: 0px; direction: ltr; line-height: 10.164px; opacity: 1;&quot;&gt;Core â€“ 4 . RAM 16 GB)&lt;/font&gt;&lt;br&gt;&lt;/font&gt;&lt;/div&gt;" tags="Background" id="JCutN4eRb9OTuJJ_0cN7-253">
          <mxCell style="verticalAlign=top;align=left;overflow=width;vsdxID=1109;fillColor=#d7d0e3;gradientColor=#e7e3ee;gradientDirection=north;shape=stencil(nZBLDoAgDERP0z3SIyjew0SURgSD+Lu9kMZoXLhwN9O+tukAlrNpJg1SzDH4QW/URgNYgZTkjA4UkwJUgGXng+6DX1zLfmoymdXo17xh5zmRJ6Q42BWCfc2oJfdAr+Yv+AP9Cb7OJ3H/2JG1HNGz/84klThPVCc=);strokeColor=#404040;shadow=1;points=[[1,0.5,0],[0.5,0,0],[0.5,0.5,0],[0.5,0.5,0]];labelBackgroundColor=none;rounded=0;html=1;whiteSpace=wrap;" vertex="1" parent="1">
            <mxGeometry x="1646.25" y="1450.5" width="121.5" height="60" as="geometry" />
          </mxCell>
        </UserObject>
        <UserObject label="&lt;div style=&quot;font-size: 1px&quot;&gt;&lt;font style=&quot;font-size:8.47px;font-family:Calibri;color:#000000;direction:ltr;letter-spacing:0px;line-height:100%;opacity:1&quot;&gt;Pega NodeType:Search&lt;br&gt;&lt;/font&gt;&lt;/div&gt;" tags="Background" id="JCutN4eRb9OTuJJ_0cN7-254">
          <mxCell style="verticalAlign=middle;align=center;overflow=width;vsdxID=1217;fillColor=#44aac4;gradientColor=#31859b;gradientDirection=north;shape=stencil(vVPLcsMgDPwajtYA6qTmnKb/wTTYZkqNB9PG/fviymmCXSan5KbHSmIlluF+7PRgmORjDP7dnOwxdgxfmJS270ywMVkMDwz3jQ+mDf6zP5I/6Bk5Wx/+a+4wUZ3aQY1zleTfFBGc//qvBNfhLeXCAkdASehwhgsQFJny+nO/WsHTAqj0ZMcq+Kij9T2lF7DToTVVGlY1TrdZajwZM2zCy/Oc7U15tuCwK5ORoFRORoGqMzLb9fBHcUEQz/9MLpyF4+osHER+l8JmHsCk8B8KTNSaCa6ZbDbzd/b7c7mpl2RctNZY50iq1/m1NlOIdI2HHw==);strokeColor=#404040;shadow=1;spacingTop=-3;spacingBottom=-3;spacingLeft=-3;spacingRight=-3;points=[[0.5,0,0],[0.5,0,0],[0.5,0.5,0],[1,0.5,0],[0.5,0.5,0]];labelBackgroundColor=none;rounded=0;html=1;whiteSpace=wrap;" vertex="1" parent="1">
            <mxGeometry x="1657" y="1475" width="100" height="29" as="geometry" />
          </mxCell>
        </UserObject>
        <UserObject label="&lt;div style=&quot;font-size: 1px&quot;&gt;&lt;font style=&quot;font-size:11.29px;font-family:Calibri;color:#000000;direction:ltr;letter-spacing:0px;line-height:120%;opacity:1&quot;&gt;Background Nodes&lt;br&gt;&lt;/font&gt;&lt;/div&gt;" tags="Background" id="JCutN4eRb9OTuJJ_0cN7-255">
          <mxCell style="verticalAlign=top;align=center;overflow=width;vsdxID=1100;fillColor=#8fa350;gradientColor=none;fillOpacity=20;shape=stencil(vVPLlsIgDP0aluUgtFO71s5/cJS2nMHSk+JY/15qcBQ7OKtxl8cN4Sa5RGzGTg6KcDY6sF/qpPeuI2JLONd9p0A7bxFRE7FpLKgW7LHfoz/IGTlbB/s9vzBhXVVSXs1VnJ0xsmLs6n8iXMLO5yDAOS0FoiHAK1p8YGSK62/vVYwWoWbK5KTHDKyTTtse8wFtJLQq892yxsg2So0npYZFOPzP6F69aE7z8hWbnMds1jSP2Sznw97Fxc969UvnBJNi/bwXlkdMEoN5A5HUPaQubMHkdnOpwfxs/f+5/KkXb9y11mhjUKqP+Wdt+hDqWtQX);strokeColor=#404040;shadow=1;points=[[0.5,0,0],[0.5,0,0],[0.5,0.5,0],[1,0.5,0],[0.5,0.5,0]];labelBackgroundColor=none;rounded=0;html=1;whiteSpace=wrap;" vertex="1" parent="1">
            <mxGeometry x="1220" y="1431" width="180" height="99" as="geometry" />
          </mxCell>
        </UserObject>
        <UserObject label="&lt;div style=&quot;font-size: 1px&quot;&gt;&lt;/div&gt;" tags="Background" id="JCutN4eRb9OTuJJ_0cN7-256">
          <mxCell style="verticalAlign=top;align=center;overflow=width;vsdxID=1216;fillColor=#0070c0;gradientColor=none;fillOpacity=20;shape=stencil(vZNLcsMgDIZPw9IMFkkcr9PkHkyDbabUeGSSuLcvrugDu0xWyU5IvxCfkJg8jJ0aNAMxenRv+mbOvmPyhQGYvtNofLCYPDJ5aBzqFt2lP9N5ULNytt7ddb5hory64qKcs0B8kKcU4ut8IrnC1xDDKJe83JAaoxy2fEeeKc3/vq8KglhhKtRkxgKdV964nuJRbRW2ugjVisaqNgmNN62HlTu+z5pe54vDhss6jwO82i1wgG/LhGfdIfEsGuB1/U/lDMp+iSI57BOUXG+egJKbicyUiWo5ZQnIqjE///54krsbE4zfbWuMtbSsf+PL7Qwu2mx5/AQ=);strokeColor=#404040;shadow=1;points=[[0.5,0,0],[0.5,0,0],[0.5,0.5,0],[1,0.5,0],[0.5,0.5,0]];labelBackgroundColor=none;rounded=0;html=1;whiteSpace=wrap;" vertex="1" parent="1">
            <mxGeometry x="1230" y="1444" width="160" height="76" as="geometry" />
          </mxCell>
        </UserObject>
        <UserObject label="&lt;div style=&quot;font-size: 1px&quot;&gt;&lt;font style=&quot;font-size:8.47px;font-family:Calibri;color:#000000;direction:ltr;letter-spacing:0px;line-height:120%;opacity:1&quot;&gt;&lt;font style=&quot;border-color: var(--border-color); letter-spacing: 0px; direction: ltr; line-height: 10.164px; opacity: 1;&quot;&gt;Tomcat Serverâ€“ 1 (&lt;/font&gt;&lt;font style=&quot;border-color: var(--border-color); letter-spacing: 0px; direction: ltr; line-height: 10.164px; opacity: 1;&quot;&gt;Core â€“ 4 . RAM 16 GB)&lt;/font&gt;&lt;br&gt;&lt;/font&gt;&lt;/div&gt;" tags="Background" id="JCutN4eRb9OTuJJ_0cN7-259">
          <mxCell style="verticalAlign=top;align=left;overflow=width;vsdxID=1109;fillColor=#d7d0e3;gradientColor=#e7e3ee;gradientDirection=north;shape=stencil(nZBLDoAgDERP0z3SIyjew0SURgSD+Lu9kMZoXLhwN9O+tukAlrNpJg1SzDH4QW/URgNYgZTkjA4UkwJUgGXng+6DX1zLfmoymdXo17xh5zmRJ6Q42BWCfc2oJfdAr+Yv+AP9Cb7OJ3H/2JG1HNGz/84klThPVCc=);strokeColor=#404040;shadow=1;points=[[1,0.5,0],[0.5,0,0],[0.5,0.5,0],[0.5,0.5,0]];labelBackgroundColor=none;rounded=0;html=1;whiteSpace=wrap;" vertex="1" parent="1">
            <mxGeometry x="1255.5" y="1452" width="121.5" height="60" as="geometry" />
          </mxCell>
        </UserObject>
        <UserObject label="&lt;div style=&quot;font-size: 1px&quot;&gt;&lt;font style=&quot;font-size:8.47px;font-family:Calibri;color:#000000;direction:ltr;letter-spacing:0px;line-height:100%;opacity:1&quot;&gt;Pega NodeType:WebUser&lt;br&gt;&lt;/font&gt;&lt;/div&gt;" tags="Background" id="JCutN4eRb9OTuJJ_0cN7-260">
          <mxCell style="verticalAlign=middle;align=center;overflow=width;vsdxID=1217;fillColor=#44aac4;gradientColor=#31859b;gradientDirection=north;shape=stencil(vVPLcsMgDPwajtYA6qTmnKb/wTTYZkqNB9PG/fviymmCXSan5KbHSmIlluF+7PRgmORjDP7dnOwxdgxfmJS270ywMVkMDwz3jQ+mDf6zP5I/6Bk5Wx/+a+4wUZ3aQY1zleTfFBGc//qvBNfhLeXCAkdASehwhgsQFJny+nO/WsHTAqj0ZMcq+Kij9T2lF7DToTVVGlY1TrdZajwZM2zCy/Oc7U15tuCwK5ORoFRORoGqMzLb9fBHcUEQz/9MLpyF4+osHER+l8JmHsCk8B8KTNSaCa6ZbDbzd/b7c7mpl2RctNZY50iq1/m1NlOIdI2HHw==);strokeColor=#404040;shadow=1;spacingTop=-3;spacingBottom=-3;spacingLeft=-3;spacingRight=-3;points=[[0.5,0,0],[0.5,0,0],[0.5,0.5,0],[1,0.5,0],[0.5,0.5,0]];labelBackgroundColor=none;rounded=0;html=1;whiteSpace=wrap;" vertex="1" parent="1">
            <mxGeometry x="1267" y="1475" width="100" height="29" as="geometry" />
          </mxCell>
        </UserObject>
        <UserObject label="&lt;div style=&quot;font-size: 1px&quot;&gt;&lt;font style=&quot;font-size:11.29px;font-family:Calibri;color:#000000;direction:ltr;letter-spacing:0px;line-height:120%;opacity:1&quot;&gt;Stream Nodes&lt;br&gt;&lt;/font&gt;&lt;/div&gt;" tags="Background" id="JCutN4eRb9OTuJJ_0cN7-261">
          <mxCell style="verticalAlign=top;align=center;overflow=width;vsdxID=1100;fillColor=#8fa350;gradientColor=none;fillOpacity=20;shape=stencil(vVPLlsIgDP0aluUgtFO71s5/cJS2nMHSk+JY/15qcBQ7OKtxl8cN4Sa5RGzGTg6KcDY6sF/qpPeuI2JLONd9p0A7bxFRE7FpLKgW7LHfoz/IGTlbB/s9vzBhXVVSXs1VnJ0xsmLs6n8iXMLO5yDAOS0FoiHAK1p8YGSK62/vVYwWoWbK5KTHDKyTTtse8wFtJLQq892yxsg2So0npYZFOPzP6F69aE7z8hWbnMds1jSP2Sznw97Fxc969UvnBJNi/bwXlkdMEoN5A5HUPaQubMHkdnOpwfxs/f+5/KkXb9y11mhjUKqP+Wdt+hDqWtQX);strokeColor=#404040;shadow=1;points=[[0.5,0,0],[0.5,0,0],[0.5,0.5,0],[1,0.5,0],[0.5,0.5,0]];labelBackgroundColor=none;rounded=0;html=1;whiteSpace=wrap;" vertex="1" parent="1">
            <mxGeometry x="1409.5" y="1431" width="180" height="99" as="geometry" />
          </mxCell>
        </UserObject>
        <UserObject label="&lt;div style=&quot;font-size: 1px&quot;&gt;&lt;/div&gt;" tags="Background" id="JCutN4eRb9OTuJJ_0cN7-262">
          <mxCell style="verticalAlign=top;align=center;overflow=width;vsdxID=1216;fillColor=#0070c0;gradientColor=none;fillOpacity=20;shape=stencil(vZNLcsMgDIZPw9IMFkkcr9PkHkyDbabUeGSSuLcvrugDu0xWyU5IvxCfkJg8jJ0aNAMxenRv+mbOvmPyhQGYvtNofLCYPDJ5aBzqFt2lP9N5ULNytt7ddb5hory64qKcs0B8kKcU4ut8IrnC1xDDKJe83JAaoxy2fEeeKc3/vq8KglhhKtRkxgKdV964nuJRbRW2ugjVisaqNgmNN62HlTu+z5pe54vDhss6jwO82i1wgG/LhGfdIfEsGuB1/U/lDMp+iSI57BOUXG+egJKbicyUiWo5ZQnIqjE///54krsbE4zfbWuMtbSsf+PL7Qwu2mx5/AQ=);strokeColor=#404040;shadow=1;points=[[0.5,0,0],[0.5,0,0],[0.5,0.5,0],[1,0.5,0],[0.5,0.5,0]];labelBackgroundColor=none;rounded=0;html=1;whiteSpace=wrap;" vertex="1" parent="1">
            <mxGeometry x="1419.5" y="1444" width="160" height="76" as="geometry" />
          </mxCell>
        </UserObject>
        <UserObject label="&lt;div style=&quot;font-size: 1px&quot;&gt;&lt;font style=&quot;font-size:8.47px;font-family:Calibri;color:#000000;direction:ltr;letter-spacing:0px;line-height:120%;opacity:1&quot;&gt;&lt;font style=&quot;border-color: var(--border-color); letter-spacing: 0px; direction: ltr; line-height: 10.164px; opacity: 1;&quot;&gt;Tomcat Serverâ€“ 1 (&lt;/font&gt;&lt;font style=&quot;border-color: var(--border-color); letter-spacing: 0px; direction: ltr; line-height: 10.164px; opacity: 1;&quot;&gt;Core â€“ 4 . RAM 16 GB)&lt;/font&gt;&lt;br&gt;&lt;/font&gt;&lt;/div&gt;" tags="Background" id="JCutN4eRb9OTuJJ_0cN7-265">
          <mxCell style="verticalAlign=top;align=left;overflow=width;vsdxID=1109;fillColor=#d7d0e3;gradientColor=#e7e3ee;gradientDirection=north;shape=stencil(nZBLDoAgDERP0z3SIyjew0SURgSD+Lu9kMZoXLhwN9O+tukAlrNpJg1SzDH4QW/URgNYgZTkjA4UkwJUgGXng+6DX1zLfmoymdXo17xh5zmRJ6Q42BWCfc2oJfdAr+Yv+AP9Cb7OJ3H/2JG1HNGz/84klThPVCc=);strokeColor=#404040;shadow=1;points=[[1,0.5,0],[0.5,0,0],[0.5,0.5,0],[0.5,0.5,0]];labelBackgroundColor=none;rounded=0;html=1;whiteSpace=wrap;" vertex="1" parent="1">
            <mxGeometry x="1445" y="1452" width="121.5" height="60" as="geometry" />
          </mxCell>
        </UserObject>
        <UserObject label="&lt;div style=&quot;font-size: 1px&quot;&gt;&lt;font style=&quot;font-size:8.47px;font-family:Calibri;color:#000000;direction:ltr;letter-spacing:0px;line-height:100%;opacity:1&quot;&gt;Pega NodeType:Stream&lt;br&gt;&lt;/font&gt;&lt;/div&gt;" tags="Background" id="JCutN4eRb9OTuJJ_0cN7-266">
          <mxCell style="verticalAlign=middle;align=center;overflow=width;vsdxID=1217;fillColor=#44aac4;gradientColor=#31859b;gradientDirection=north;shape=stencil(vVPLcsMgDPwajtYA6qTmnKb/wTTYZkqNB9PG/fviymmCXSan5KbHSmIlluF+7PRgmORjDP7dnOwxdgxfmJS270ywMVkMDwz3jQ+mDf6zP5I/6Bk5Wx/+a+4wUZ3aQY1zleTfFBGc//qvBNfhLeXCAkdASehwhgsQFJny+nO/WsHTAqj0ZMcq+Kij9T2lF7DToTVVGlY1TrdZajwZM2zCy/Oc7U15tuCwK5ORoFRORoGqMzLb9fBHcUEQz/9MLpyF4+osHER+l8JmHsCk8B8KTNSaCa6ZbDbzd/b7c7mpl2RctNZY50iq1/m1NlOIdI2HHw==);strokeColor=#404040;shadow=1;spacingTop=-3;spacingBottom=-3;spacingLeft=-3;spacingRight=-3;points=[[0.5,0,0],[0.5,0,0],[0.5,0.5,0],[1,0.5,0],[0.5,0.5,0]];labelBackgroundColor=none;rounded=0;html=1;whiteSpace=wrap;" vertex="1" parent="1">
            <mxGeometry x="1456.5" y="1475" width="100" height="29" as="geometry" />
          </mxCell>
        </UserObject>
        <UserObject label="" tags="Background" id="JCutN4eRb9OTuJJ_0cN7-268">
          <mxCell style="vsdxID=1111;edgeStyle=orthogonalEdgeStyle;dashed=1;dashPattern=8.00 4.00 1.00 4.00;startArrow=none;endArrow=none;spacingTop=0;spacingBottom=0;spacingLeft=0;spacingRight=0;verticalAlign=middle;html=1;labelBackgroundColor=#ffffff;rounded=0;" edge="1" parent="1">
            <mxGeometry relative="1" as="geometry">
              <mxPoint as="offset" />
              <mxPoint x="1019" y="1360" as="sourcePoint" />
              <mxPoint x="1884" y="1360" as="targetPoint" />
            </mxGeometry>
          </mxCell>
        </UserObject>
        <UserObject label="&lt;div style=&quot;font-size: 1px&quot;&gt;&lt;font style=&quot;font-size:11.29px;font-family:Calibri;color:#000000;direction:ltr;letter-spacing:0px;line-height:120%;opacity:1&quot;&gt;Local Zone&lt;/font&gt;&lt;font style=&quot;font-size:11.29px;font-family:Calibri;color:#000000;direction:ltr;letter-spacing:0px;line-height:120%;opacity:1&quot;&gt;&lt;br&gt;&lt;/font&gt;&lt;/div&gt;" tags="Background" id="JCutN4eRb9OTuJJ_0cN7-269">
          <mxCell style="verticalAlign=top;align=left;overflow=width;vsdxID=1096;fillColor=#f0f0f0;gradientColor=#ffffff;gradientDirection=north;shape=stencil(nZBLDoAgDERP0z3SIyjew0SURgSD+Lu9kMZoXLhwN9O+tukAlrNpJg1SzDH4QW/URgNYgZTkjA4UkwJUgGXng+6DX1zLfmoymdXo17xh5zmRJ6Q42BWCfc2oJfdAr+Yv+AP9Cb7OJ3H/2JG1HNGz/84klThPVCc=);strokeColor=#404040;shadow=1;points=[[1,0.5,0],[0.5,0,0],[0.5,0.5,0],[0.5,0.5,0]];labelBackgroundColor=none;rounded=0;html=1;whiteSpace=wrap;" vertex="1" parent="1">
            <mxGeometry x="1885.5" y="1388" width="604.5" height="422" as="geometry" />
          </mxCell>
        </UserObject>
        <UserObject label="&lt;div style=&quot;font-size: 1px&quot;&gt;&lt;font style=&quot;font-size:11.29px;font-family:Calibri;color:#000000;direction:ltr;letter-spacing:0px;line-height:120%;opacity:1&quot;&gt;WebUser Nodes&lt;br&gt;&lt;/font&gt;&lt;/div&gt;" tags="Background" id="JCutN4eRb9OTuJJ_0cN7-270">
          <mxCell style="verticalAlign=top;align=center;overflow=width;vsdxID=1100;fillColor=#8fa350;gradientColor=none;fillOpacity=20;shape=stencil(vVPLlsIgDP0aluUgtFO71s5/cJS2nMHSk+JY/15qcBQ7OKtxl8cN4Sa5RGzGTg6KcDY6sF/qpPeuI2JLONd9p0A7bxFRE7FpLKgW7LHfoz/IGTlbB/s9vzBhXVVSXs1VnJ0xsmLs6n8iXMLO5yDAOS0FoiHAK1p8YGSK62/vVYwWoWbK5KTHDKyTTtse8wFtJLQq892yxsg2So0npYZFOPzP6F69aE7z8hWbnMds1jSP2Sznw97Fxc969UvnBJNi/bwXlkdMEoN5A5HUPaQubMHkdnOpwfxs/f+5/KkXb9y11mhjUKqP+Wdt+hDqWtQX);strokeColor=#404040;shadow=1;points=[[0.5,0,0],[0.5,0,0],[0.5,0.5,0],[1,0.5,0],[0.5,0.5,0]];labelBackgroundColor=none;rounded=0;html=1;whiteSpace=wrap;" vertex="1" parent="1">
            <mxGeometry x="1960" y="1440" width="180" height="99" as="geometry" />
          </mxCell>
        </UserObject>
        <UserObject label="&lt;div style=&quot;font-size: 1px&quot;&gt;&lt;font style=&quot;font-size:33.87px;font-family:Calibri;color:#000000;direction:ltr;letter-spacing:0px;line-height:120%;opacity:1&quot;&gt;STG TST Environment&lt;br&gt;&lt;/font&gt;&lt;/div&gt;" tags="Background" id="JCutN4eRb9OTuJJ_0cN7-271">
          <mxCell style="verticalAlign=middle;align=center;overflow=width;vsdxID=1101;fillColor=#dae8fc;gradientDirection=north;shape=stencil(nZBLDoAgDERP0z3SIyjew0SURgSD+Lu9kMZoXLhwN9O+tukAlrNpJg1SzDH4QW/URgNYgZTkjA4UkwJUgGXng+6DX1zLfmoymdXo17xh5zmRJ6Q42BWCfc2oJfdAr+Yv+AP9Cb7OJ3H/2JG1HNGz/84klThPVCc=);strokeColor=#6c8ebf;shadow=1;points=[[1,0.5,0],[0.5,0,0],[0.5,0.5,0],[0.5,0.5,0]];labelBackgroundColor=none;rounded=0;html=1;whiteSpace=wrap;" vertex="1" parent="1">
            <mxGeometry x="1883" y="1283.5" width="597" height="49" as="geometry" />
          </mxCell>
        </UserObject>
        <UserObject label="" tags="Background" id="JCutN4eRb9OTuJJ_0cN7-272">
          <mxCell style="vsdxID=1187;fillColor=none;gradientColor=none;points=[[0.5,0.5,0]];labelBackgroundColor=none;rounded=0;strokeColor=none;html=1;whiteSpace=wrap;" vertex="1" parent="1">
            <mxGeometry x="2036.5" y="1640" width="360" height="110" as="geometry" />
          </mxCell>
        </UserObject>
        <mxCell id="JCutN4eRb9OTuJJ_0cN7-273" style="vsdxID=1188;edgeStyle=none;startArrow=none;endArrow=none;startSize=5;endSize=5;spacingTop=0;spacingBottom=0;spacingLeft=0;spacingRight=0;verticalAlign=middle;html=1;labelBackgroundColor=none;rounded=0;" edge="1" parent="JCutN4eRb9OTuJJ_0cN7-272">
          <mxGeometry relative="1" as="geometry">
            <mxPoint x="-1" as="offset" />
            <Array as="points" />
            <mxPoint x="76.9811320754717" y="61.285714285714285" as="sourcePoint" />
            <mxPoint x="185.66037735849062" y="61.285714285714285" as="targetPoint" />
          </mxGeometry>
        </mxCell>
        <mxCell id="JCutN4eRb9OTuJJ_0cN7-274" style="vsdxID=1189;fillColor=#FFFFFF;gradientColor=none;shape=stencil(nZBLDoAgDERP0z3SIyjew0SURgSD+Lu9kMZoXLhwN9O+tukAlrNpJg1SzDH4QW/URgNYgZTkjA4UkwJUgGXng+6DX1zLfmoymdXo17xh5zmRJ6Q42BWCfc2oJfdAr+Yv+AP9Cb7OJ3H/2JG1HNGz/84klThPVCc=);points=[[0.5,0.5,0]];labelBackgroundColor=none;rounded=0;html=1;whiteSpace=wrap;" vertex="1" parent="JCutN4eRb9OTuJJ_0cN7-272">
          <mxGeometry x="185.66037735849062" y="41.642857142857146" width="79.24528301886792" height="36.92857142857143" as="geometry" />
        </mxCell>
        <mxCell id="JCutN4eRb9OTuJJ_0cN7-275" style="vsdxID=1190;fillColor=#fff2cc;shape=stencil(vVzbdtw2DPwaP0aHF1Ein3v5D5/WSXzqxjkbt03+vtjuSoRmsNSKafuWyOCOSIIACAz0EH/48vHx89NDcF/eTq+/Pf31/Ovbx4f440MIz58+Pp2e3+RfD/Gnh/jD+9fT04fT6x+ffr38//PjWfL8r99f/zz/wtfLOHceEdy3y//mwc3/PPj5Ivvy/Omm7DQNaWwID8635X/543R5E7+MCOU64vpkdkNMl0dfw+WRHwe3SF0fzXEYw1UqXh5FX6UiSt2AH/PgMuCrX76CTX7IGfDVW17BpjD4aYu/s1znEfOR9eUBuHk4QRmBE8xDnrfzS7C43g0wt+tLrRPzfpibC7sO8Digoo6AqkQW2DiUchQ5DtNE4NkDeBxiIPxcAD8MZSb8MjXxwyKg8QsuuUglwl+lFD6vfGnuuIxBeNGBRPAB4UW3cPkFC9BFqDTR/apdCh53XoQYncFzIPTgd9DHzOiZ4H0k+DgCvhvmTPhjG1/GRMJHcyJSE564QObsLJUYP+7gR8/4ZYs/lqqhFT/BkRepyRP+1Jy/jKGDL2Mi4Y8z4U8j4aPqh2VFbsM7Vj44eWLyZ7Q8IjQBejbQc3vyuZqUip4DwQeGz5HgPRoekWq60nFef0bj4+bPqz4o/IKLPw+e51+aR1/GOLQ8uPNTtacLeFxjhhV8Wt96BReptiOfWPPiqg0KH41+HDzCp2WhNbxvGn0ZMzO8R/i0ngWNnwk/oeGLO2ZXxvhC+AGXf2S7K1LgdEQq4cGPi125hT8OEQ1v9bAKn7yOSKHuj6sj0vjtkx8HAx7svgiR3eEwUqRI9UWqDS9ng/HHCfBXC7LBx+2vplDjt7e/ui+Fn3D5JQ5A0xPZ7vuqyhU/NWMOGZPo6A8JTY+vSlLx0fD6gTd/x+u4gXWfnI4b0OfVQHEFF//J4HkH3KPLjat/X9CjuFzeejh4IjTz3NvRrowZ0ejHdQMVPEU8kXxezNWBKPzmzsuYCZ2ejMHp5yVw0viZ4D2b/bbPjXNd1wqPPlek1pdU8ODzRCry9HPz4MsYY/czHPyoHJrCx+2fFlXb4De1T8ZE1n30+SLFqw9XnZgGBi/txU/WqS+4+IlvWiIVCd5hwLNK3cIfDaNfUPXFm7HqFzB6UXkmBd/0+bH+jMbHvY81jFf4uPexGvCIUrfxVz+p8MHpxTCw6hU8esFSvdJWPbkKGtNH1fPW0SuofJy6qVK38N3qulr4bgkcW/ih1KD43vnLmICXDV5+kXLG9sP6B9PytrdfxiS2/JhnEKlgzB8sf5jXY3u3+suYiWOOAokGkYocc+F1Q6Q44mwf/jCtZlbDg9cXqckwfQHgp/qS9xo/GYOJNWVUF/i0ukJt+FH70sC2p233ZUhgdMzriZTjoCfj5o/Wfaft92SMcfgy2F6RCrz5GVe/noe7/X5Y45INPsDX4FZHPbj6pultRz0yxrHuz2D6QxhmAx91PyyXi/ujPhkTWPlx90N1qSrkxemr3Pa9Ma+MSbz6E07fW7uPaZ7gOMW6F/DLmNmI+AHeWUc/4fTdMB697cgYz5Y3YdGiVJuu8EH5RSqx5W/f9mRM5OUfM+Gz4R8ngncGfPPs+zwY6AHQs3XXi+D3RMqx7rev+l75KnXXB8MvUobljbj6c60V3JvqkDGU5lNJlAVsqpULlWqBqFekKMe7l+rxZqbL4+5PVa9VqmkmfOPK0051+WTlOjzUV7yZ6nKIn2r5795M33kMwTuGX2PjFZ6wSfX3Upx+rJn7mmLFK4dIRSPFC5bnXNTk/Ho7xasiHJ3iRd2PVnkF3e7ZYXB9o+12zwed8/vo987qQPC486E68HvT+/VXdHEBFz+w4qkSRMVKePD3ihu1+qTxE07e17hUFXdw8z3nePeKO94sbpHh9Xzwubh0lmL49vQ9xzyqalZLx0ZtK6Ddr9Xzu2t75zGs+zj7msC7WVgUmcCK3za6hX2OKpeGRShhvKMqr3ERCrjyexXdUq9wtwvKpSrn7XpyodzqXjU7V1Oiiulwzcm1YKBOAZRV8uqj7i7lqyEehyhwj4EGEwmMctoeePWW36oGQozniJeSKa3ntrhI2NgyczLyO/7fNTq+QQktIlMtMnsjZloc18zC1tg8FRgGmKfi+JGkCxCTLJTRqPYAORY91khZuaYlvMcU9thhIwZCjoX2FhUeORZ9bsgIQSwviBpvesEeL0x5J6ZY6FihPkp4++qLQibefKx2qVBJBUG4+j0xWI3tKCpT8Z8RgmC1qTP+JHfEFAsdJav4F0PAnvh75DorUyz0LaHiY86z6/6RjJQ/gCfj2o8Mi857FykeMyz07VBdBxC/59458cFnioW+HSt8jD/77t2Fk05IsdDZAXXvx9tPX97BSHohxUJnR1TeA3W/J++STYoH2v1MhocpFl1Zp2Jc+5FhoTNjCh53vy/nRuQqZljozKDK+cEVoDPnOKHhZYaFToyqlCvBH8+4eqvYhXdvnRdW8Ijfk3EOzOxjloVOi6uEO8D35dtnLncgy0JXBRQ8Tr+v3mCUW5BloYsiKhVE8MerLaO1++h2dU1IwWO+v6falAxmIbEsdE1M4eP2dxXbDMuLXl8XBFUgAuh9lUbj6CPNQtdDOQ76nkLrbFUbMOepq8EKHi1fT505c/qDaRa6Gq7wcfN76uyqgt+s8xvFLqrzd/AMNINB4TPPwTh8/wrPwlsML8JXbJAGfh/PhA8fsVyike9nmksfy2Yytn8mfGrnYJpFF8toNGkekGpQVCgFjwS3Ho5VsqpdSLPQTDCFHwj/MMVsousmkSw0B07ZfVS9PnZdNgw/7r3iACp83Ps+dqFx9JBloTmQCh8Xv4ddqWibCh/gs8XwQpZFF7e0WHV2rDZpBqzCR93v49Ya5FLk9Dtr95Fl0Ucs5pgHORaK+qzAkVDfQan21mUPwb116pFh0cUnDxa/BhkWmvWu8EHxO/n0mXceGRaa9a9um8gp7+knUJ0KCj8AfjSMPlIsuroplJ9SV33uJrEoHrj8fd0klOZjioXueVGpFlT+vm4aI9WFFAvd86NSTdhN09NNNBm5DmRYjGamCxkWnb1UhbUPKRa63WvFB/C+LrIRfS5TLHSvm0rxounp6aJT/XkqxYu6nznNxxSLviZCaiRjhoVudKSM//c1UJLdYYqF7vJU1QXc/L7+UeqdDmT3dZerKu5g73Zf/6xR2zL6d2dWPqN/93j/sOeIhzkWySxuIceis3/aqK/g9FWL983KYk/reGCvwyQL1d5ewZFk0dk3T+0cdt8+4tt9+4e/GxD5psVUC/11A1VNh/pK13cT/p0vNhz+UITRs+0o1NIfvrg+ymRutdD10d63MZDiEQdqWc7Us+q2sEZSxbVg1c14gXVbTLfFUy8VtwL3zNJtoTJ3xxFbz1HJ5A7+DBBZxlrjWH51syrbD5ssf+wSLhleZSvOr3J4ALzO3lTLtOzYfe9/UHyEtMHudA8PwBfanfBquu+bwUFxBynC3fc/PABfaDvhkmq0uf7Expg/nn6RP57WzyAtPuL0bX2yGPLrT0p0NNs/6b6+e/z6/OXd6fXt8e359dPmGL88nj48vRO4d+9fHj9c1+vypy9/PT19Vo/d973g7Tn/Jy8o/6ifq3r//PJy+dqV/jt+3koeXT6NFX/6Gw==);points=[[0.5,0.5,0]];labelBackgroundColor=none;rounded=0;html=1;whiteSpace=wrap;strokeColor=#d6b656;" vertex="1" parent="JCutN4eRb9OTuJJ_0cN7-272">
          <mxGeometry x="2.2641509433962264" width="253.58490566037736" height="73.07142857142858" as="geometry" />
        </mxCell>
        <mxCell id="JCutN4eRb9OTuJJ_0cN7-276" value="&lt;div style=&quot;font-size: 1px&quot;&gt;&lt;font style=&quot;font-size:14.11px;font-family:Calibri;color:#4d1e1a;direction:ltr;letter-spacing:0px;line-height:120%;opacity:1&quot;&gt;Oracle SERVER Core-4 Ram 16 GB 200 GB&lt;br&gt;&lt;/font&gt;&lt;/div&gt;&lt;div style=&quot;font-size: 1px&quot;&gt;&lt;font style=&quot;font-size:14.11px;font-family:Calibri;color:#4d1e1a;direction:ltr;letter-spacing:0px;line-height:120%;opacity:1&quot;&gt;Schemas&lt;/font&gt;&lt;/div&gt;&lt;div style=&quot;font-size: 1px&quot;&gt;&lt;font style=&quot;font-size:14.11px;font-family:Calibri;color:#4d1e1a;direction:ltr;letter-spacing:0px;line-height:120%;opacity:1&quot;&gt;PegaRules/&lt;/font&gt;&lt;span style=&quot;color: rgb(77, 30, 26); font-family: Calibri; font-size: 14.11px; letter-spacing: 0px; background-color: initial;&quot;&gt;PegaData/&lt;/span&gt;&lt;span style=&quot;color: rgb(77, 30, 26); font-family: Calibri; font-size: 14.11px; letter-spacing: 0px; background-color: initial;&quot;&gt;Customer&lt;/span&gt;&lt;/div&gt;&lt;div style=&quot;font-size: 1px&quot;&gt;&lt;br&gt;&lt;/div&gt;&lt;div style=&quot;font-size: 1px&quot;&gt;&lt;font style=&quot;font-size:14.11px;font-family:Calibri;color:#4d1e1a;direction:ltr;letter-spacing:0px;line-height:120%;opacity:1&quot;&gt;&lt;br&gt;&lt;/font&gt;&lt;/div&gt;" style="text;vsdxID=1187;fillColor=none;gradientColor=none;points=[[0.5,0.5,0]];labelBackgroundColor=none;rounded=0;strokeColor=none;html=1;whiteSpace=wrap;verticalAlign=middle;align=center;overflow=width;;html=1;" vertex="1" parent="JCutN4eRb9OTuJJ_0cN7-272">
          <mxGeometry x="-89.2301886792453" y="79.35714285714286" width="449.2301886792453" height="30.642857142857142" as="geometry" />
        </mxCell>
        <UserObject label="&lt;div style=&quot;font-size: 1px&quot;&gt;&lt;/div&gt;" tags="Background" id="JCutN4eRb9OTuJJ_0cN7-277">
          <mxCell style="verticalAlign=top;align=center;overflow=width;vsdxID=1216;fillColor=#0070c0;gradientColor=none;fillOpacity=20;shape=stencil(vZNLcsMgDIZPw9IMFkkcr9PkHkyDbabUeGSSuLcvrugDu0xWyU5IvxCfkJg8jJ0aNAMxenRv+mbOvmPyhQGYvtNofLCYPDJ5aBzqFt2lP9N5ULNytt7ddb5hory64qKcs0B8kKcU4ut8IrnC1xDDKJe83JAaoxy2fEeeKc3/vq8KglhhKtRkxgKdV964nuJRbRW2ugjVisaqNgmNN62HlTu+z5pe54vDhss6jwO82i1wgG/LhGfdIfEsGuB1/U/lDMp+iSI57BOUXG+egJKbicyUiWo5ZQnIqjE///54krsbE4zfbWuMtbSsf+PL7Qwu2mx5/AQ=);strokeColor=#404040;shadow=1;points=[[0.5,0,0],[0.5,0,0],[0.5,0.5,0],[1,0.5,0],[0.5,0.5,0]];labelBackgroundColor=none;rounded=0;html=1;whiteSpace=wrap;" vertex="1" parent="1">
            <mxGeometry x="1970" y="1453" width="160" height="76" as="geometry" />
          </mxCell>
        </UserObject>
        <UserObject label="&lt;div style=&quot;font-size: 1px&quot;&gt;&lt;font style=&quot;font-size:8.47px;font-family:Calibri;color:#000000;direction:ltr;letter-spacing:0px;line-height:120%;opacity:1&quot;&gt;&lt;font style=&quot;border-color: var(--border-color); letter-spacing: 0px; direction: ltr; line-height: 10.164px; opacity: 1;&quot;&gt;Tomcat Serverâ€“ 1 (&lt;/font&gt;&lt;font style=&quot;border-color: var(--border-color); letter-spacing: 0px; direction: ltr; line-height: 10.164px; opacity: 1;&quot;&gt;Core â€“ 4 . RAM 16 GB)&lt;/font&gt;&lt;br&gt;&lt;/font&gt;&lt;/div&gt;" tags="Background" id="JCutN4eRb9OTuJJ_0cN7-280">
          <mxCell style="verticalAlign=top;align=left;overflow=width;vsdxID=1109;fillColor=#d7d0e3;gradientColor=#e7e3ee;gradientDirection=north;shape=stencil(nZBLDoAgDERP0z3SIyjew0SURgSD+Lu9kMZoXLhwN9O+tukAlrNpJg1SzDH4QW/URgNYgZTkjA4UkwJUgGXng+6DX1zLfmoymdXo17xh5zmRJ6Q42BWCfc2oJfdAr+Yv+AP9Cb7OJ3H/2JG1HNGz/84klThPVCc=);strokeColor=#404040;shadow=1;points=[[1,0.5,0],[0.5,0,0],[0.5,0.5,0],[0.5,0.5,0]];labelBackgroundColor=none;rounded=0;html=1;whiteSpace=wrap;" vertex="1" parent="1">
            <mxGeometry x="1995.5" y="1461" width="121.5" height="60" as="geometry" />
          </mxCell>
        </UserObject>
        <UserObject label="&lt;div style=&quot;font-size: 1px&quot;&gt;&lt;font style=&quot;font-size:8.47px;font-family:Calibri;color:#000000;direction:ltr;letter-spacing:0px;line-height:100%;opacity:1&quot;&gt;Pega NodeType:WebUser&lt;br&gt;&lt;/font&gt;&lt;/div&gt;" tags="Background" id="JCutN4eRb9OTuJJ_0cN7-281">
          <mxCell style="verticalAlign=middle;align=center;overflow=width;vsdxID=1217;fillColor=#44aac4;gradientColor=#31859b;gradientDirection=north;shape=stencil(vVPLcsMgDPwajtYA6qTmnKb/wTTYZkqNB9PG/fviymmCXSan5KbHSmIlluF+7PRgmORjDP7dnOwxdgxfmJS270ywMVkMDwz3jQ+mDf6zP5I/6Bk5Wx/+a+4wUZ3aQY1zleTfFBGc//qvBNfhLeXCAkdASehwhgsQFJny+nO/WsHTAqj0ZMcq+Kij9T2lF7DToTVVGlY1TrdZajwZM2zCy/Oc7U15tuCwK5ORoFRORoGqMzLb9fBHcUEQz/9MLpyF4+osHER+l8JmHsCk8B8KTNSaCa6ZbDbzd/b7c7mpl2RctNZY50iq1/m1NlOIdI2HHw==);strokeColor=#404040;shadow=1;spacingTop=-3;spacingBottom=-3;spacingLeft=-3;spacingRight=-3;points=[[0.5,0,0],[0.5,0,0],[0.5,0.5,0],[1,0.5,0],[0.5,0.5,0]];labelBackgroundColor=none;rounded=0;html=1;whiteSpace=wrap;" vertex="1" parent="1">
            <mxGeometry x="2007" y="1484" width="100" height="29" as="geometry" />
          </mxCell>
        </UserObject>
        <UserObject label="&lt;div style=&quot;font-size: 1px&quot;&gt;&lt;font style=&quot;font-size:11.29px;font-family:Calibri;color:#000000;direction:ltr;letter-spacing:0px;line-height:120%;opacity:1&quot;&gt;Background Nodes&lt;br&gt;&lt;/font&gt;&lt;/div&gt;" tags="Background" id="JCutN4eRb9OTuJJ_0cN7-286">
          <mxCell style="verticalAlign=top;align=center;overflow=width;vsdxID=1100;fillColor=#8fa350;gradientColor=none;fillOpacity=20;shape=stencil(vVPLlsIgDP0aluUgtFO71s5/cJS2nMHSk+JY/15qcBQ7OKtxl8cN4Sa5RGzGTg6KcDY6sF/qpPeuI2JLONd9p0A7bxFRE7FpLKgW7LHfoz/IGTlbB/s9vzBhXVVSXs1VnJ0xsmLs6n8iXMLO5yDAOS0FoiHAK1p8YGSK62/vVYwWoWbK5KTHDKyTTtse8wFtJLQq892yxsg2So0npYZFOPzP6F69aE7z8hWbnMds1jSP2Sznw97Fxc969UvnBJNi/bwXlkdMEoN5A5HUPaQubMHkdnOpwfxs/f+5/KkXb9y11mhjUKqP+Wdt+hDqWtQX);strokeColor=#404040;shadow=1;points=[[0.5,0,0],[0.5,0,0],[0.5,0.5,0],[1,0.5,0],[0.5,0.5,0]];labelBackgroundColor=none;rounded=0;html=1;whiteSpace=wrap;" vertex="1" parent="1">
            <mxGeometry x="2147.5" y="1440" width="180" height="99" as="geometry" />
          </mxCell>
        </UserObject>
        <UserObject label="&lt;div style=&quot;font-size: 1px&quot;&gt;&lt;/div&gt;" tags="Background" id="JCutN4eRb9OTuJJ_0cN7-287">
          <mxCell style="verticalAlign=top;align=center;overflow=width;vsdxID=1216;fillColor=#0070c0;gradientColor=none;fillOpacity=20;shape=stencil(vZNLcsMgDIZPw9IMFkkcr9PkHkyDbabUeGSSuLcvrugDu0xWyU5IvxCfkJg8jJ0aNAMxenRv+mbOvmPyhQGYvtNofLCYPDJ5aBzqFt2lP9N5ULNytt7ddb5hory64qKcs0B8kKcU4ut8IrnC1xDDKJe83JAaoxy2fEeeKc3/vq8KglhhKtRkxgKdV964nuJRbRW2ugjVisaqNgmNN62HlTu+z5pe54vDhss6jwO82i1wgG/LhGfdIfEsGuB1/U/lDMp+iSI57BOUXG+egJKbicyUiWo5ZQnIqjE///54krsbE4zfbWuMtbSsf+PL7Qwu2mx5/AQ=);strokeColor=#404040;shadow=1;points=[[0.5,0,0],[0.5,0,0],[0.5,0.5,0],[1,0.5,0],[0.5,0.5,0]];labelBackgroundColor=none;rounded=0;html=1;whiteSpace=wrap;" vertex="1" parent="1">
            <mxGeometry x="2157.5" y="1453" width="160" height="76" as="geometry" />
          </mxCell>
        </UserObject>
        <UserObject label="&lt;div style=&quot;font-size: 1px&quot;&gt;&lt;font style=&quot;font-size:8.47px;font-family:Calibri;color:#000000;direction:ltr;letter-spacing:0px;line-height:120%;opacity:1&quot;&gt;&lt;font style=&quot;border-color: var(--border-color); letter-spacing: 0px; direction: ltr; line-height: 10.164px; opacity: 1;&quot;&gt;Tomcat Serverâ€“ 1 (&lt;/font&gt;&lt;font style=&quot;border-color: var(--border-color); letter-spacing: 0px; direction: ltr; line-height: 10.164px; opacity: 1;&quot;&gt;Core â€“ 4 . RAM 16 GB)&lt;/font&gt;&lt;br&gt;&lt;/font&gt;&lt;/div&gt;" tags="Background" id="JCutN4eRb9OTuJJ_0cN7-288">
          <mxCell style="verticalAlign=top;align=left;overflow=width;vsdxID=1109;fillColor=#d7d0e3;gradientColor=#e7e3ee;gradientDirection=north;shape=stencil(nZBLDoAgDERP0z3SIyjew0SURgSD+Lu9kMZoXLhwN9O+tukAlrNpJg1SzDH4QW/URgNYgZTkjA4UkwJUgGXng+6DX1zLfmoymdXo17xh5zmRJ6Q42BWCfc2oJfdAr+Yv+AP9Cb7OJ3H/2JG1HNGz/84klThPVCc=);strokeColor=#404040;shadow=1;points=[[1,0.5,0],[0.5,0,0],[0.5,0.5,0],[0.5,0.5,0]];labelBackgroundColor=none;rounded=0;html=1;whiteSpace=wrap;" vertex="1" parent="1">
            <mxGeometry x="2183" y="1461" width="121.5" height="60" as="geometry" />
          </mxCell>
        </UserObject>
        <UserObject label="&lt;div style=&quot;font-size: 1px&quot;&gt;&lt;font style=&quot;font-size:8.47px;font-family:Calibri;color:#000000;direction:ltr;letter-spacing:0px;line-height:100%;opacity:1&quot;&gt;Pega NodeType:Backgorund,&lt;/font&gt;&lt;/div&gt;&lt;div style=&quot;font-size: 1px&quot;&gt;&lt;font style=&quot;font-size:8.47px;font-family:Calibri;color:#000000;direction:ltr;letter-spacing:0px;line-height:100%;opacity:1&quot;&gt;Stream,Seatch&lt;br&gt;&lt;/font&gt;&lt;/div&gt;" tags="Background" id="JCutN4eRb9OTuJJ_0cN7-289">
          <mxCell style="verticalAlign=middle;align=center;overflow=width;vsdxID=1217;fillColor=#44aac4;gradientColor=#31859b;gradientDirection=north;shape=stencil(vVPLcsMgDPwajtYA6qTmnKb/wTTYZkqNB9PG/fviymmCXSan5KbHSmIlluF+7PRgmORjDP7dnOwxdgxfmJS270ywMVkMDwz3jQ+mDf6zP5I/6Bk5Wx/+a+4wUZ3aQY1zleTfFBGc//qvBNfhLeXCAkdASehwhgsQFJny+nO/WsHTAqj0ZMcq+Kij9T2lF7DToTVVGlY1TrdZajwZM2zCy/Oc7U15tuCwK5ORoFRORoGqMzLb9fBHcUEQz/9MLpyF4+osHER+l8JmHsCk8B8KTNSaCa6ZbDbzd/b7c7mpl2RctNZY50iq1/m1NlOIdI2HHw==);strokeColor=#404040;shadow=1;spacingTop=-3;spacingBottom=-3;spacingLeft=-3;spacingRight=-3;points=[[0.5,0,0],[0.5,0,0],[0.5,0.5,0],[1,0.5,0],[0.5,0.5,0]];labelBackgroundColor=none;rounded=0;html=1;whiteSpace=wrap;" vertex="1" parent="1">
            <mxGeometry x="2194.5" y="1484" width="100" height="29" as="geometry" />
          </mxCell>
        </UserObject>
        <UserObject label="" tags="Background" id="JCutN4eRb9OTuJJ_0cN7-294">
          <mxCell style="vsdxID=1111;edgeStyle=orthogonalEdgeStyle;dashed=1;dashPattern=8.00 4.00 1.00 4.00;startArrow=none;endArrow=none;spacingTop=0;spacingBottom=0;spacingLeft=0;spacingRight=0;verticalAlign=middle;html=1;labelBackgroundColor=#ffffff;rounded=0;" edge="1" parent="1">
            <mxGeometry relative="1" as="geometry">
              <mxPoint as="offset" />
              <mxPoint x="1883" y="1360" as="sourcePoint" />
              <mxPoint x="2490" y="1360" as="targetPoint" />
            </mxGeometry>
          </mxCell>
        </UserObject>
        <UserObject label="&lt;div style=&quot;font-size: 1px&quot;&gt;&lt;font style=&quot;font-size:11.29px;font-family:Calibri;color:#000000;direction:ltr;letter-spacing:0px;line-height:120%;opacity:1&quot;&gt;Local Zone&lt;/font&gt;&lt;font style=&quot;font-size:11.29px;font-family:Calibri;color:#000000;direction:ltr;letter-spacing:0px;line-height:120%;opacity:1&quot;&gt;&lt;br&gt;&lt;/font&gt;&lt;/div&gt;" tags="Background" id="JCutN4eRb9OTuJJ_0cN7-295">
          <mxCell style="verticalAlign=top;align=left;overflow=width;vsdxID=1096;fillColor=#f0f0f0;gradientColor=#ffffff;gradientDirection=north;shape=stencil(nZBLDoAgDERP0z3SIyjew0SURgSD+Lu9kMZoXLhwN9O+tukAlrNpJg1SzDH4QW/URgNYgZTkjA4UkwJUgGXng+6DX1zLfmoymdXo17xh5zmRJ6Q42BWCfc2oJfdAr+Yv+AP9Cb7OJ3H/2JG1HNGz/84klThPVCc=);strokeColor=#404040;shadow=1;points=[[1,0.5,0],[0.5,0,0],[0.5,0.5,0],[0.5,0.5,0]];labelBackgroundColor=none;rounded=0;html=1;whiteSpace=wrap;" vertex="1" parent="1">
            <mxGeometry x="2522.5" y="1388" width="604.5" height="422" as="geometry" />
          </mxCell>
        </UserObject>
        <UserObject label="&lt;div style=&quot;font-size: 1px&quot;&gt;&lt;font style=&quot;font-size:11.29px;font-family:Calibri;color:#000000;direction:ltr;letter-spacing:0px;line-height:120%;opacity:1&quot;&gt;WebUser Nodes&lt;br&gt;&lt;/font&gt;&lt;/div&gt;" tags="Background" id="JCutN4eRb9OTuJJ_0cN7-296">
          <mxCell style="verticalAlign=top;align=center;overflow=width;vsdxID=1100;fillColor=#8fa350;gradientColor=none;fillOpacity=20;shape=stencil(vVPLlsIgDP0aluUgtFO71s5/cJS2nMHSk+JY/15qcBQ7OKtxl8cN4Sa5RGzGTg6KcDY6sF/qpPeuI2JLONd9p0A7bxFRE7FpLKgW7LHfoz/IGTlbB/s9vzBhXVVSXs1VnJ0xsmLs6n8iXMLO5yDAOS0FoiHAK1p8YGSK62/vVYwWoWbK5KTHDKyTTtse8wFtJLQq892yxsg2So0npYZFOPzP6F69aE7z8hWbnMds1jSP2Sznw97Fxc969UvnBJNi/bwXlkdMEoN5A5HUPaQubMHkdnOpwfxs/f+5/KkXb9y11mhjUKqP+Wdt+hDqWtQX);strokeColor=#404040;shadow=1;points=[[0.5,0,0],[0.5,0,0],[0.5,0.5,0],[1,0.5,0],[0.5,0.5,0]];labelBackgroundColor=none;rounded=0;html=1;whiteSpace=wrap;" vertex="1" parent="1">
            <mxGeometry x="2597" y="1440" width="180" height="99" as="geometry" />
          </mxCell>
        </UserObject>
        <UserObject label="&lt;div style=&quot;font-size: 1px&quot;&gt;&lt;font style=&quot;font-size:33.87px;font-family:Calibri;color:#000000;direction:ltr;letter-spacing:0px;line-height:120%;opacity:1&quot;&gt;Dev Environment&lt;br&gt;&lt;/font&gt;&lt;/div&gt;" tags="Background" id="JCutN4eRb9OTuJJ_0cN7-297">
          <mxCell style="verticalAlign=middle;align=center;overflow=width;vsdxID=1101;fillColor=#dae8fc;gradientDirection=north;shape=stencil(nZBLDoAgDERP0z3SIyjew0SURgSD+Lu9kMZoXLhwN9O+tukAlrNpJg1SzDH4QW/URgNYgZTkjA4UkwJUgGXng+6DX1zLfmoymdXo17xh5zmRJ6Q42BWCfc2oJfdAr+Yv+AP9Cb7OJ3H/2JG1HNGz/84klThPVCc=);strokeColor=#6c8ebf;shadow=1;points=[[1,0.5,0],[0.5,0,0],[0.5,0.5,0],[0.5,0.5,0]];labelBackgroundColor=none;rounded=0;html=1;whiteSpace=wrap;" vertex="1" parent="1">
            <mxGeometry x="2520" y="1283.5" width="597" height="49" as="geometry" />
          </mxCell>
        </UserObject>
        <UserObject label="" tags="Background" id="JCutN4eRb9OTuJJ_0cN7-298">
          <mxCell style="vsdxID=1187;fillColor=none;gradientColor=none;points=[[0.5,0.5,0]];labelBackgroundColor=none;rounded=0;strokeColor=none;html=1;whiteSpace=wrap;" vertex="1" parent="1">
            <mxGeometry x="2673.5" y="1640" width="360" height="110" as="geometry" />
          </mxCell>
        </UserObject>
        <mxCell id="JCutN4eRb9OTuJJ_0cN7-299" style="vsdxID=1188;edgeStyle=none;startArrow=none;endArrow=none;startSize=5;endSize=5;spacingTop=0;spacingBottom=0;spacingLeft=0;spacingRight=0;verticalAlign=middle;html=1;labelBackgroundColor=none;rounded=0;" edge="1" parent="JCutN4eRb9OTuJJ_0cN7-298">
          <mxGeometry relative="1" as="geometry">
            <mxPoint x="-1" as="offset" />
            <Array as="points" />
            <mxPoint x="76.9811320754717" y="61.285714285714285" as="sourcePoint" />
            <mxPoint x="185.66037735849062" y="61.285714285714285" as="targetPoint" />
          </mxGeometry>
        </mxCell>
        <mxCell id="JCutN4eRb9OTuJJ_0cN7-300" style="vsdxID=1189;fillColor=#FFFFFF;gradientColor=none;shape=stencil(nZBLDoAgDERP0z3SIyjew0SURgSD+Lu9kMZoXLhwN9O+tukAlrNpJg1SzDH4QW/URgNYgZTkjA4UkwJUgGXng+6DX1zLfmoymdXo17xh5zmRJ6Q42BWCfc2oJfdAr+Yv+AP9Cb7OJ3H/2JG1HNGz/84klThPVCc=);points=[[0.5,0.5,0]];labelBackgroundColor=none;rounded=0;html=1;whiteSpace=wrap;" vertex="1" parent="JCutN4eRb9OTuJJ_0cN7-298">
          <mxGeometry x="185.66037735849062" y="41.642857142857146" width="79.24528301886792" height="36.92857142857143" as="geometry" />
        </mxCell>
        <mxCell id="JCutN4eRb9OTuJJ_0cN7-301" style="vsdxID=1190;fillColor=#fff2cc;shape=stencil(vVzbdtw2DPwaP0aHF1Ein3v5D5/WSXzqxjkbt03+vtjuSoRmsNSKafuWyOCOSIIACAz0EH/48vHx89NDcF/eTq+/Pf31/Ovbx4f440MIz58+Pp2e3+RfD/Gnh/jD+9fT04fT6x+ffr38//PjWfL8r99f/zz/wtfLOHceEdy3y//mwc3/PPj5Ivvy/Omm7DQNaWwID8635X/543R5E7+MCOU64vpkdkNMl0dfw+WRHwe3SF0fzXEYw1UqXh5FX6UiSt2AH/PgMuCrX76CTX7IGfDVW17BpjD4aYu/s1znEfOR9eUBuHk4QRmBE8xDnrfzS7C43g0wt+tLrRPzfpibC7sO8Digoo6AqkQW2DiUchQ5DtNE4NkDeBxiIPxcAD8MZSb8MjXxwyKg8QsuuUglwl+lFD6vfGnuuIxBeNGBRPAB4UW3cPkFC9BFqDTR/apdCh53XoQYncFzIPTgd9DHzOiZ4H0k+DgCvhvmTPhjG1/GRMJHcyJSE564QObsLJUYP+7gR8/4ZYs/lqqhFT/BkRepyRP+1Jy/jKGDL2Mi4Y8z4U8j4aPqh2VFbsM7Vj44eWLyZ7Q8IjQBejbQc3vyuZqUip4DwQeGz5HgPRoekWq60nFef0bj4+bPqz4o/IKLPw+e51+aR1/GOLQ8uPNTtacLeFxjhhV8Wt96BReptiOfWPPiqg0KH41+HDzCp2WhNbxvGn0ZMzO8R/i0ngWNnwk/oeGLO2ZXxvhC+AGXf2S7K1LgdEQq4cGPi125hT8OEQ1v9bAKn7yOSKHuj6sj0vjtkx8HAx7svgiR3eEwUqRI9UWqDS9ng/HHCfBXC7LBx+2vplDjt7e/ui+Fn3D5JQ5A0xPZ7vuqyhU/NWMOGZPo6A8JTY+vSlLx0fD6gTd/x+u4gXWfnI4b0OfVQHEFF//J4HkH3KPLjat/X9CjuFzeejh4IjTz3NvRrowZ0ejHdQMVPEU8kXxezNWBKPzmzsuYCZ2ejMHp5yVw0viZ4D2b/bbPjXNd1wqPPlek1pdU8ODzRCry9HPz4MsYY/czHPyoHJrCx+2fFlXb4De1T8ZE1n30+SLFqw9XnZgGBi/txU/WqS+4+IlvWiIVCd5hwLNK3cIfDaNfUPXFm7HqFzB6UXkmBd/0+bH+jMbHvY81jFf4uPexGvCIUrfxVz+p8MHpxTCw6hU8esFSvdJWPbkKGtNH1fPW0SuofJy6qVK38N3qulr4bgkcW/ih1KD43vnLmICXDV5+kXLG9sP6B9PytrdfxiS2/JhnEKlgzB8sf5jXY3u3+suYiWOOAokGkYocc+F1Q6Q44mwf/jCtZlbDg9cXqckwfQHgp/qS9xo/GYOJNWVUF/i0ukJt+FH70sC2p233ZUhgdMzriZTjoCfj5o/Wfaft92SMcfgy2F6RCrz5GVe/noe7/X5Y45INPsDX4FZHPbj6pultRz0yxrHuz2D6QxhmAx91PyyXi/ujPhkTWPlx90N1qSrkxemr3Pa9Ma+MSbz6E07fW7uPaZ7gOMW6F/DLmNmI+AHeWUc/4fTdMB697cgYz5Y3YdGiVJuu8EH5RSqx5W/f9mRM5OUfM+Gz4R8ngncGfPPs+zwY6AHQs3XXi+D3RMqx7rev+l75KnXXB8MvUobljbj6c60V3JvqkDGU5lNJlAVsqpULlWqBqFekKMe7l+rxZqbL4+5PVa9VqmkmfOPK0051+WTlOjzUV7yZ6nKIn2r5795M33kMwTuGX2PjFZ6wSfX3Upx+rJn7mmLFK4dIRSPFC5bnXNTk/Ho7xasiHJ3iRd2PVnkF3e7ZYXB9o+12zwed8/vo987qQPC486E68HvT+/VXdHEBFz+w4qkSRMVKePD3ihu1+qTxE07e17hUFXdw8z3nePeKO94sbpHh9Xzwubh0lmL49vQ9xzyqalZLx0ZtK6Ddr9Xzu2t75zGs+zj7msC7WVgUmcCK3za6hX2OKpeGRShhvKMqr3ERCrjyexXdUq9wtwvKpSrn7XpyodzqXjU7V1Oiiulwzcm1YKBOAZRV8uqj7i7lqyEehyhwj4EGEwmMctoeePWW36oGQozniJeSKa3ntrhI2NgyczLyO/7fNTq+QQktIlMtMnsjZloc18zC1tg8FRgGmKfi+JGkCxCTLJTRqPYAORY91khZuaYlvMcU9thhIwZCjoX2FhUeORZ9bsgIQSwviBpvesEeL0x5J6ZY6FihPkp4++qLQibefKx2qVBJBUG4+j0xWI3tKCpT8Z8RgmC1qTP+JHfEFAsdJav4F0PAnvh75DorUyz0LaHiY86z6/6RjJQ/gCfj2o8Mi857FykeMyz07VBdBxC/59458cFnioW+HSt8jD/77t2Fk05IsdDZAXXvx9tPX97BSHohxUJnR1TeA3W/J++STYoH2v1MhocpFl1Zp2Jc+5FhoTNjCh53vy/nRuQqZljozKDK+cEVoDPnOKHhZYaFToyqlCvBH8+4eqvYhXdvnRdW8Ijfk3EOzOxjloVOi6uEO8D35dtnLncgy0JXBRQ8Tr+v3mCUW5BloYsiKhVE8MerLaO1++h2dU1IwWO+v6falAxmIbEsdE1M4eP2dxXbDMuLXl8XBFUgAuh9lUbj6CPNQtdDOQ76nkLrbFUbMOepq8EKHi1fT505c/qDaRa6Gq7wcfN76uyqgt+s8xvFLqrzd/AMNINB4TPPwTh8/wrPwlsML8JXbJAGfh/PhA8fsVyike9nmksfy2Yytn8mfGrnYJpFF8toNGkekGpQVCgFjwS3Ho5VsqpdSLPQTDCFHwj/MMVsousmkSw0B07ZfVS9PnZdNgw/7r3iACp83Ps+dqFx9JBloTmQCh8Xv4ddqWibCh/gs8XwQpZFF7e0WHV2rDZpBqzCR93v49Ya5FLk9Dtr95Fl0Ucs5pgHORaK+qzAkVDfQan21mUPwb116pFh0cUnDxa/BhkWmvWu8EHxO/n0mXceGRaa9a9um8gp7+knUJ0KCj8AfjSMPlIsuroplJ9SV33uJrEoHrj8fd0klOZjioXueVGpFlT+vm4aI9WFFAvd86NSTdhN09NNNBm5DmRYjGamCxkWnb1UhbUPKRa63WvFB/C+LrIRfS5TLHSvm0rxounp6aJT/XkqxYu6nznNxxSLviZCaiRjhoVudKSM//c1UJLdYYqF7vJU1QXc/L7+UeqdDmT3dZerKu5g73Zf/6xR2zL6d2dWPqN/93j/sOeIhzkWySxuIceis3/aqK/g9FWL983KYk/reGCvwyQL1d5ewZFk0dk3T+0cdt8+4tt9+4e/GxD5psVUC/11A1VNh/pK13cT/p0vNhz+UITRs+0o1NIfvrg+ymRutdD10d63MZDiEQdqWc7Us+q2sEZSxbVg1c14gXVbTLfFUy8VtwL3zNJtoTJ3xxFbz1HJ5A7+DBBZxlrjWH51syrbD5ssf+wSLhleZSvOr3J4ALzO3lTLtOzYfe9/UHyEtMHudA8PwBfanfBquu+bwUFxBynC3fc/PABfaDvhkmq0uf7Expg/nn6RP57WzyAtPuL0bX2yGPLrT0p0NNs/6b6+e/z6/OXd6fXt8e359dPmGL88nj48vRO4d+9fHj9c1+vypy9/PT19Vo/d973g7Tn/Jy8o/6ifq3r//PJy+dqV/jt+3koeXT6NFX/6Gw==);points=[[0.5,0.5,0]];labelBackgroundColor=none;rounded=0;html=1;whiteSpace=wrap;strokeColor=#d6b656;" vertex="1" parent="JCutN4eRb9OTuJJ_0cN7-298">
          <mxGeometry x="2.2641509433962264" width="253.58490566037736" height="73.07142857142858" as="geometry" />
        </mxCell>
        <mxCell id="JCutN4eRb9OTuJJ_0cN7-302" value="&lt;div style=&quot;font-size: 1px&quot;&gt;&lt;font style=&quot;font-size:14.11px;font-family:Calibri;color:#4d1e1a;direction:ltr;letter-spacing:0px;line-height:120%;opacity:1&quot;&gt;Oracle SERVER Core-4 Ram 16 GB 200 GB&lt;br&gt;&lt;/font&gt;&lt;/div&gt;&lt;div style=&quot;font-size: 1px&quot;&gt;&lt;font style=&quot;font-size:14.11px;font-family:Calibri;color:#4d1e1a;direction:ltr;letter-spacing:0px;line-height:120%;opacity:1&quot;&gt;Schemas&lt;/font&gt;&lt;/div&gt;&lt;div style=&quot;font-size: 1px&quot;&gt;&lt;font style=&quot;font-size:14.11px;font-family:Calibri;color:#4d1e1a;direction:ltr;letter-spacing:0px;line-height:120%;opacity:1&quot;&gt;PegaRules/&lt;/font&gt;&lt;span style=&quot;color: rgb(77, 30, 26); font-family: Calibri; font-size: 14.11px; letter-spacing: 0px; background-color: initial;&quot;&gt;PegaData/&lt;/span&gt;&lt;span style=&quot;color: rgb(77, 30, 26); font-family: Calibri; font-size: 14.11px; letter-spacing: 0px; background-color: initial;&quot;&gt;Customer&lt;/span&gt;&lt;/div&gt;&lt;div style=&quot;font-size: 1px&quot;&gt;&lt;br&gt;&lt;/div&gt;&lt;div style=&quot;font-size: 1px&quot;&gt;&lt;font style=&quot;font-size:14.11px;font-family:Calibri;color:#4d1e1a;direction:ltr;letter-spacing:0px;line-height:120%;opacity:1&quot;&gt;&lt;br&gt;&lt;/font&gt;&lt;/div&gt;" style="text;vsdxID=1187;fillColor=none;gradientColor=none;points=[[0.5,0.5,0]];labelBackgroundColor=none;rounded=0;strokeColor=none;html=1;whiteSpace=wrap;verticalAlign=middle;align=center;overflow=width;;html=1;" vertex="1" parent="JCutN4eRb9OTuJJ_0cN7-298">
          <mxGeometry x="-89.2301886792453" y="79.35714285714286" width="449.2301886792453" height="30.642857142857142" as="geometry" />
        </mxCell>
        <UserObject label="&lt;div style=&quot;font-size: 1px&quot;&gt;&lt;/div&gt;" tags="Background" id="JCutN4eRb9OTuJJ_0cN7-303">
          <mxCell style="verticalAlign=top;align=center;overflow=width;vsdxID=1216;fillColor=#0070c0;gradientColor=none;fillOpacity=20;shape=stencil(vZNLcsMgDIZPw9IMFkkcr9PkHkyDbabUeGSSuLcvrugDu0xWyU5IvxCfkJg8jJ0aNAMxenRv+mbOvmPyhQGYvtNofLCYPDJ5aBzqFt2lP9N5ULNytt7ddb5hory64qKcs0B8kKcU4ut8IrnC1xDDKJe83JAaoxy2fEeeKc3/vq8KglhhKtRkxgKdV964nuJRbRW2ugjVisaqNgmNN62HlTu+z5pe54vDhss6jwO82i1wgG/LhGfdIfEsGuB1/U/lDMp+iSI57BOUXG+egJKbicyUiWo5ZQnIqjE///54krsbE4zfbWuMtbSsf+PL7Qwu2mx5/AQ=);strokeColor=#404040;shadow=1;points=[[0.5,0,0],[0.5,0,0],[0.5,0.5,0],[1,0.5,0],[0.5,0.5,0]];labelBackgroundColor=none;rounded=0;html=1;whiteSpace=wrap;" vertex="1" parent="1">
            <mxGeometry x="2607" y="1453" width="160" height="76" as="geometry" />
          </mxCell>
        </UserObject>
        <UserObject label="&lt;div style=&quot;font-size: 1px&quot;&gt;&lt;font style=&quot;font-size:8.47px;font-family:Calibri;color:#000000;direction:ltr;letter-spacing:0px;line-height:120%;opacity:1&quot;&gt;&lt;font style=&quot;border-color: var(--border-color); letter-spacing: 0px; direction: ltr; line-height: 10.164px; opacity: 1;&quot;&gt;Tomcat Serverâ€“ 1 (&lt;/font&gt;&lt;font style=&quot;border-color: var(--border-color); letter-spacing: 0px; direction: ltr; line-height: 10.164px; opacity: 1;&quot;&gt;Core â€“ 4 . RAM 16 GB)&lt;/font&gt;&lt;br&gt;&lt;/font&gt;&lt;/div&gt;" tags="Background" id="JCutN4eRb9OTuJJ_0cN7-304">
          <mxCell style="verticalAlign=top;align=left;overflow=width;vsdxID=1109;fillColor=#d7d0e3;gradientColor=#e7e3ee;gradientDirection=north;shape=stencil(nZBLDoAgDERP0z3SIyjew0SURgSD+Lu9kMZoXLhwN9O+tukAlrNpJg1SzDH4QW/URgNYgZTkjA4UkwJUgGXng+6DX1zLfmoymdXo17xh5zmRJ6Q42BWCfc2oJfdAr+Yv+AP9Cb7OJ3H/2JG1HNGz/84klThPVCc=);strokeColor=#404040;shadow=1;points=[[1,0.5,0],[0.5,0,0],[0.5,0.5,0],[0.5,0.5,0]];labelBackgroundColor=none;rounded=0;html=1;whiteSpace=wrap;" vertex="1" parent="1">
            <mxGeometry x="2632.5" y="1461" width="121.5" height="60" as="geometry" />
          </mxCell>
        </UserObject>
        <UserObject label="&lt;div style=&quot;font-size: 1px&quot;&gt;&lt;font style=&quot;font-size:8.47px;font-family:Calibri;color:#000000;direction:ltr;letter-spacing:0px;line-height:100%;opacity:1&quot;&gt;Pega NodeType:WebUser&lt;br&gt;&lt;/font&gt;&lt;/div&gt;" tags="Background" id="JCutN4eRb9OTuJJ_0cN7-305">
          <mxCell style="verticalAlign=middle;align=center;overflow=width;vsdxID=1217;fillColor=#44aac4;gradientColor=#31859b;gradientDirection=north;shape=stencil(vVPLcsMgDPwajtYA6qTmnKb/wTTYZkqNB9PG/fviymmCXSan5KbHSmIlluF+7PRgmORjDP7dnOwxdgxfmJS270ywMVkMDwz3jQ+mDf6zP5I/6Bk5Wx/+a+4wUZ3aQY1zleTfFBGc//qvBNfhLeXCAkdASehwhgsQFJny+nO/WsHTAqj0ZMcq+Kij9T2lF7DToTVVGlY1TrdZajwZM2zCy/Oc7U15tuCwK5ORoFRORoGqMzLb9fBHcUEQz/9MLpyF4+osHER+l8JmHsCk8B8KTNSaCa6ZbDbzd/b7c7mpl2RctNZY50iq1/m1NlOIdI2HHw==);strokeColor=#404040;shadow=1;spacingTop=-3;spacingBottom=-3;spacingLeft=-3;spacingRight=-3;points=[[0.5,0,0],[0.5,0,0],[0.5,0.5,0],[1,0.5,0],[0.5,0.5,0]];labelBackgroundColor=none;rounded=0;html=1;whiteSpace=wrap;" vertex="1" parent="1">
            <mxGeometry x="2644" y="1484" width="100" height="29" as="geometry" />
          </mxCell>
        </UserObject>
        <UserObject label="&lt;div style=&quot;font-size: 1px&quot;&gt;&lt;font style=&quot;font-size:11.29px;font-family:Calibri;color:#000000;direction:ltr;letter-spacing:0px;line-height:120%;opacity:1&quot;&gt;Background Nodes&lt;br&gt;&lt;/font&gt;&lt;/div&gt;" tags="Background" id="JCutN4eRb9OTuJJ_0cN7-306">
          <mxCell style="verticalAlign=top;align=center;overflow=width;vsdxID=1100;fillColor=#8fa350;gradientColor=none;fillOpacity=20;shape=stencil(vVPLlsIgDP0aluUgtFO71s5/cJS2nMHSk+JY/15qcBQ7OKtxl8cN4Sa5RGzGTg6KcDY6sF/qpPeuI2JLONd9p0A7bxFRE7FpLKgW7LHfoz/IGTlbB/s9vzBhXVVSXs1VnJ0xsmLs6n8iXMLO5yDAOS0FoiHAK1p8YGSK62/vVYwWoWbK5KTHDKyTTtse8wFtJLQq892yxsg2So0npYZFOPzP6F69aE7z8hWbnMds1jSP2Sznw97Fxc969UvnBJNi/bwXlkdMEoN5A5HUPaQubMHkdnOpwfxs/f+5/KkXb9y11mhjUKqP+Wdt+hDqWtQX);strokeColor=#404040;shadow=1;points=[[0.5,0,0],[0.5,0,0],[0.5,0.5,0],[1,0.5,0],[0.5,0.5,0]];labelBackgroundColor=none;rounded=0;html=1;whiteSpace=wrap;" vertex="1" parent="1">
            <mxGeometry x="2784.5" y="1440" width="180" height="99" as="geometry" />
          </mxCell>
        </UserObject>
        <UserObject label="&lt;div style=&quot;font-size: 1px&quot;&gt;&lt;/div&gt;" tags="Background" id="JCutN4eRb9OTuJJ_0cN7-307">
          <mxCell style="verticalAlign=top;align=center;overflow=width;vsdxID=1216;fillColor=#0070c0;gradientColor=none;fillOpacity=20;shape=stencil(vZNLcsMgDIZPw9IMFkkcr9PkHkyDbabUeGSSuLcvrugDu0xWyU5IvxCfkJg8jJ0aNAMxenRv+mbOvmPyhQGYvtNofLCYPDJ5aBzqFt2lP9N5ULNytt7ddb5hory64qKcs0B8kKcU4ut8IrnC1xDDKJe83JAaoxy2fEeeKc3/vq8KglhhKtRkxgKdV964nuJRbRW2ugjVisaqNgmNN62HlTu+z5pe54vDhss6jwO82i1wgG/LhGfdIfEsGuB1/U/lDMp+iSI57BOUXG+egJKbicyUiWo5ZQnIqjE///54krsbE4zfbWuMtbSsf+PL7Qwu2mx5/AQ=);strokeColor=#404040;shadow=1;points=[[0.5,0,0],[0.5,0,0],[0.5,0.5,0],[1,0.5,0],[0.5,0.5,0]];labelBackgroundColor=none;rounded=0;html=1;whiteSpace=wrap;" vertex="1" parent="1">
            <mxGeometry x="2794.5" y="1453" width="160" height="76" as="geometry" />
          </mxCell>
        </UserObject>
        <UserObject label="&lt;div style=&quot;font-size: 1px&quot;&gt;&lt;font style=&quot;font-size:8.47px;font-family:Calibri;color:#000000;direction:ltr;letter-spacing:0px;line-height:120%;opacity:1&quot;&gt;&lt;font style=&quot;border-color: var(--border-color); letter-spacing: 0px; direction: ltr; line-height: 10.164px; opacity: 1;&quot;&gt;Tomcat Serverâ€“ 1 (&lt;/font&gt;&lt;font style=&quot;border-color: var(--border-color); letter-spacing: 0px; direction: ltr; line-height: 10.164px; opacity: 1;&quot;&gt;Core â€“ 4 . RAM 16 GB)&lt;/font&gt;&lt;br&gt;&lt;/font&gt;&lt;/div&gt;" tags="Background" id="JCutN4eRb9OTuJJ_0cN7-308">
          <mxCell style="verticalAlign=top;align=left;overflow=width;vsdxID=1109;fillColor=#d7d0e3;gradientColor=#e7e3ee;gradientDirection=north;shape=stencil(nZBLDoAgDERP0z3SIyjew0SURgSD+Lu9kMZoXLhwN9O+tukAlrNpJg1SzDH4QW/URgNYgZTkjA4UkwJUgGXng+6DX1zLfmoymdXo17xh5zmRJ6Q42BWCfc2oJfdAr+Yv+AP9Cb7OJ3H/2JG1HNGz/84klThPVCc=);strokeColor=#404040;shadow=1;points=[[1,0.5,0],[0.5,0,0],[0.5,0.5,0],[0.5,0.5,0]];labelBackgroundColor=none;rounded=0;html=1;whiteSpace=wrap;" vertex="1" parent="1">
            <mxGeometry x="2820" y="1461" width="121.5" height="60" as="geometry" />
          </mxCell>
        </UserObject>
        <UserObject label="&lt;div style=&quot;font-size: 1px&quot;&gt;&lt;font style=&quot;font-size:8.47px;font-family:Calibri;color:#000000;direction:ltr;letter-spacing:0px;line-height:100%;opacity:1&quot;&gt;Pega NodeType:Backgorund,&lt;/font&gt;&lt;/div&gt;&lt;div style=&quot;font-size: 1px&quot;&gt;&lt;font style=&quot;font-size:8.47px;font-family:Calibri;color:#000000;direction:ltr;letter-spacing:0px;line-height:100%;opacity:1&quot;&gt;Stream,Seatch&lt;br&gt;&lt;/font&gt;&lt;/div&gt;" tags="Background" id="JCutN4eRb9OTuJJ_0cN7-309">
          <mxCell style="verticalAlign=middle;align=center;overflow=width;vsdxID=1217;fillColor=#44aac4;gradientColor=#31859b;gradientDirection=north;shape=stencil(vVPLcsMgDPwajtYA6qTmnKb/wTTYZkqNB9PG/fviymmCXSan5KbHSmIlluF+7PRgmORjDP7dnOwxdgxfmJS270ywMVkMDwz3jQ+mDf6zP5I/6Bk5Wx/+a+4wUZ3aQY1zleTfFBGc//qvBNfhLeXCAkdASehwhgsQFJny+nO/WsHTAqj0ZMcq+Kij9T2lF7DToTVVGlY1TrdZajwZM2zCy/Oc7U15tuCwK5ORoFRORoGqMzLb9fBHcUEQz/9MLpyF4+osHER+l8JmHsCk8B8KTNSaCa6ZbDbzd/b7c7mpl2RctNZY50iq1/m1NlOIdI2HHw==);strokeColor=#404040;shadow=1;spacingTop=-3;spacingBottom=-3;spacingLeft=-3;spacingRight=-3;points=[[0.5,0,0],[0.5,0,0],[0.5,0.5,0],[1,0.5,0],[0.5,0.5,0]];labelBackgroundColor=none;rounded=0;html=1;whiteSpace=wrap;" vertex="1" parent="1">
            <mxGeometry x="2831.5" y="1484" width="100" height="29" as="geometry" />
          </mxCell>
        </UserObject>
        <UserObject label="" tags="Background" id="JCutN4eRb9OTuJJ_0cN7-310">
          <mxCell style="vsdxID=1111;edgeStyle=orthogonalEdgeStyle;dashed=1;dashPattern=8.00 4.00 1.00 4.00;startArrow=none;endArrow=none;spacingTop=0;spacingBottom=0;spacingLeft=0;spacingRight=0;verticalAlign=middle;html=1;labelBackgroundColor=#ffffff;rounded=0;" edge="1" parent="1">
            <mxGeometry relative="1" as="geometry">
              <mxPoint as="offset" />
              <mxPoint x="2520" y="1360" as="sourcePoint" />
              <mxPoint x="3127" y="1360" as="targetPoint" />
            </mxGeometry>
          </mxCell>
        </UserObject>
        <UserObject label="&lt;div style=&quot;font-size: 1px&quot;&gt;&lt;font style=&quot;font-size:11.29px;font-family:Calibri;color:#000000;direction:ltr;letter-spacing:0px;line-height:120%;opacity:1&quot;&gt;Local Zone&lt;/font&gt;&lt;font style=&quot;font-size:11.29px;font-family:Calibri;color:#000000;direction:ltr;letter-spacing:0px;line-height:120%;opacity:1&quot;&gt;&lt;br&gt;&lt;/font&gt;&lt;/div&gt;" tags="Background" id="JCutN4eRb9OTuJJ_0cN7-311">
          <mxCell style="verticalAlign=top;align=left;overflow=width;vsdxID=1096;fillColor=#f0f0f0;gradientColor=#ffffff;gradientDirection=north;shape=stencil(nZBLDoAgDERP0z3SIyjew0SURgSD+Lu9kMZoXLhwN9O+tukAlrNpJg1SzDH4QW/URgNYgZTkjA4UkwJUgGXng+6DX1zLfmoymdXo17xh5zmRJ6Q42BWCfc2oJfdAr+Yv+AP9Cb7OJ3H/2JG1HNGz/84klThPVCc=);strokeColor=#404040;shadow=1;points=[[1,0.5,0],[0.5,0,0],[0.5,0.5,0],[0.5,0.5,0]];labelBackgroundColor=none;rounded=0;html=1;whiteSpace=wrap;" vertex="1" parent="1">
            <mxGeometry x="3162.5" y="1388" width="604.5" height="422" as="geometry" />
          </mxCell>
        </UserObject>
        <UserObject label="&lt;div style=&quot;font-size: 1px&quot;&gt;&lt;font style=&quot;font-size:11.29px;font-family:Calibri;color:#000000;direction:ltr;letter-spacing:0px;line-height:120%;opacity:1&quot;&gt;WebUser Nodes&lt;br&gt;&lt;/font&gt;&lt;/div&gt;" tags="Background" id="JCutN4eRb9OTuJJ_0cN7-312">
          <mxCell style="verticalAlign=top;align=center;overflow=width;vsdxID=1100;fillColor=#8fa350;gradientColor=none;fillOpacity=20;shape=stencil(vVPLlsIgDP0aluUgtFO71s5/cJS2nMHSk+JY/15qcBQ7OKtxl8cN4Sa5RGzGTg6KcDY6sF/qpPeuI2JLONd9p0A7bxFRE7FpLKgW7LHfoz/IGTlbB/s9vzBhXVVSXs1VnJ0xsmLs6n8iXMLO5yDAOS0FoiHAK1p8YGSK62/vVYwWoWbK5KTHDKyTTtse8wFtJLQq892yxsg2So0npYZFOPzP6F69aE7z8hWbnMds1jSP2Sznw97Fxc969UvnBJNi/bwXlkdMEoN5A5HUPaQubMHkdnOpwfxs/f+5/KkXb9y11mhjUKqP+Wdt+hDqWtQX);strokeColor=#404040;shadow=1;points=[[0.5,0,0],[0.5,0,0],[0.5,0.5,0],[1,0.5,0],[0.5,0.5,0]];labelBackgroundColor=none;rounded=0;html=1;whiteSpace=wrap;" vertex="1" parent="1">
            <mxGeometry x="3237" y="1440" width="180" height="99" as="geometry" />
          </mxCell>
        </UserObject>
        <UserObject label="&lt;div style=&quot;font-size: 1px&quot;&gt;&lt;font style=&quot;font-size:33.87px;font-family:Calibri;color:#000000;direction:ltr;letter-spacing:0px;line-height:120%;opacity:1&quot;&gt;UAT Environment&lt;br&gt;&lt;/font&gt;&lt;/div&gt;" tags="Background" id="JCutN4eRb9OTuJJ_0cN7-313">
          <mxCell style="verticalAlign=middle;align=center;overflow=width;vsdxID=1101;fillColor=#dae8fc;gradientDirection=north;shape=stencil(nZBLDoAgDERP0z3SIyjew0SURgSD+Lu9kMZoXLhwN9O+tukAlrNpJg1SzDH4QW/URgNYgZTkjA4UkwJUgGXng+6DX1zLfmoymdXo17xh5zmRJ6Q42BWCfc2oJfdAr+Yv+AP9Cb7OJ3H/2JG1HNGz/84klThPVCc=);strokeColor=#6c8ebf;shadow=1;points=[[1,0.5,0],[0.5,0,0],[0.5,0.5,0],[0.5,0.5,0]];labelBackgroundColor=none;rounded=0;html=1;whiteSpace=wrap;" vertex="1" parent="1">
            <mxGeometry x="3160" y="1283.5" width="597" height="49" as="geometry" />
          </mxCell>
        </UserObject>
        <UserObject label="" tags="Background" id="JCutN4eRb9OTuJJ_0cN7-314">
          <mxCell style="vsdxID=1187;fillColor=none;gradientColor=none;points=[[0.5,0.5,0]];labelBackgroundColor=none;rounded=0;strokeColor=none;html=1;whiteSpace=wrap;" vertex="1" parent="1">
            <mxGeometry x="3313.5" y="1640" width="360" height="110" as="geometry" />
          </mxCell>
        </UserObject>
        <mxCell id="JCutN4eRb9OTuJJ_0cN7-315" style="vsdxID=1188;edgeStyle=none;startArrow=none;endArrow=none;startSize=5;endSize=5;spacingTop=0;spacingBottom=0;spacingLeft=0;spacingRight=0;verticalAlign=middle;html=1;labelBackgroundColor=none;rounded=0;" edge="1" parent="JCutN4eRb9OTuJJ_0cN7-314">
          <mxGeometry relative="1" as="geometry">
            <mxPoint x="-1" as="offset" />
            <Array as="points" />
            <mxPoint x="76.9811320754717" y="61.285714285714285" as="sourcePoint" />
            <mxPoint x="185.66037735849062" y="61.285714285714285" as="targetPoint" />
          </mxGeometry>
        </mxCell>
        <mxCell id="JCutN4eRb9OTuJJ_0cN7-316" style="vsdxID=1189;fillColor=#FFFFFF;gradientColor=none;shape=stencil(nZBLDoAgDERP0z3SIyjew0SURgSD+Lu9kMZoXLhwN9O+tukAlrNpJg1SzDH4QW/URgNYgZTkjA4UkwJUgGXng+6DX1zLfmoymdXo17xh5zmRJ6Q42BWCfc2oJfdAr+Yv+AP9Cb7OJ3H/2JG1HNGz/84klThPVCc=);points=[[0.5,0.5,0]];labelBackgroundColor=none;rounded=0;html=1;whiteSpace=wrap;" vertex="1" parent="JCutN4eRb9OTuJJ_0cN7-314">
          <mxGeometry x="185.66037735849062" y="41.642857142857146" width="79.24528301886792" height="36.92857142857143" as="geometry" />
        </mxCell>
        <mxCell id="JCutN4eRb9OTuJJ_0cN7-317" style="vsdxID=1190;fillColor=#fff2cc;shape=stencil(vVzbdtw2DPwaP0aHF1Ein3v5D5/WSXzqxjkbt03+vtjuSoRmsNSKafuWyOCOSIIACAz0EH/48vHx89NDcF/eTq+/Pf31/Ovbx4f440MIz58+Pp2e3+RfD/Gnh/jD+9fT04fT6x+ffr38//PjWfL8r99f/zz/wtfLOHceEdy3y//mwc3/PPj5Ivvy/Omm7DQNaWwID8635X/543R5E7+MCOU64vpkdkNMl0dfw+WRHwe3SF0fzXEYw1UqXh5FX6UiSt2AH/PgMuCrX76CTX7IGfDVW17BpjD4aYu/s1znEfOR9eUBuHk4QRmBE8xDnrfzS7C43g0wt+tLrRPzfpibC7sO8Digoo6AqkQW2DiUchQ5DtNE4NkDeBxiIPxcAD8MZSb8MjXxwyKg8QsuuUglwl+lFD6vfGnuuIxBeNGBRPAB4UW3cPkFC9BFqDTR/apdCh53XoQYncFzIPTgd9DHzOiZ4H0k+DgCvhvmTPhjG1/GRMJHcyJSE564QObsLJUYP+7gR8/4ZYs/lqqhFT/BkRepyRP+1Jy/jKGDL2Mi4Y8z4U8j4aPqh2VFbsM7Vj44eWLyZ7Q8IjQBejbQc3vyuZqUip4DwQeGz5HgPRoekWq60nFef0bj4+bPqz4o/IKLPw+e51+aR1/GOLQ8uPNTtacLeFxjhhV8Wt96BReptiOfWPPiqg0KH41+HDzCp2WhNbxvGn0ZMzO8R/i0ngWNnwk/oeGLO2ZXxvhC+AGXf2S7K1LgdEQq4cGPi125hT8OEQ1v9bAKn7yOSKHuj6sj0vjtkx8HAx7svgiR3eEwUqRI9UWqDS9ng/HHCfBXC7LBx+2vplDjt7e/ui+Fn3D5JQ5A0xPZ7vuqyhU/NWMOGZPo6A8JTY+vSlLx0fD6gTd/x+u4gXWfnI4b0OfVQHEFF//J4HkH3KPLjat/X9CjuFzeejh4IjTz3NvRrowZ0ejHdQMVPEU8kXxezNWBKPzmzsuYCZ2ejMHp5yVw0viZ4D2b/bbPjXNd1wqPPlek1pdU8ODzRCry9HPz4MsYY/czHPyoHJrCx+2fFlXb4De1T8ZE1n30+SLFqw9XnZgGBi/txU/WqS+4+IlvWiIVCd5hwLNK3cIfDaNfUPXFm7HqFzB6UXkmBd/0+bH+jMbHvY81jFf4uPexGvCIUrfxVz+p8MHpxTCw6hU8esFSvdJWPbkKGtNH1fPW0SuofJy6qVK38N3qulr4bgkcW/ih1KD43vnLmICXDV5+kXLG9sP6B9PytrdfxiS2/JhnEKlgzB8sf5jXY3u3+suYiWOOAokGkYocc+F1Q6Q44mwf/jCtZlbDg9cXqckwfQHgp/qS9xo/GYOJNWVUF/i0ukJt+FH70sC2p233ZUhgdMzriZTjoCfj5o/Wfaft92SMcfgy2F6RCrz5GVe/noe7/X5Y45INPsDX4FZHPbj6pultRz0yxrHuz2D6QxhmAx91PyyXi/ujPhkTWPlx90N1qSrkxemr3Pa9Ma+MSbz6E07fW7uPaZ7gOMW6F/DLmNmI+AHeWUc/4fTdMB697cgYz5Y3YdGiVJuu8EH5RSqx5W/f9mRM5OUfM+Gz4R8ngncGfPPs+zwY6AHQs3XXi+D3RMqx7rev+l75KnXXB8MvUobljbj6c60V3JvqkDGU5lNJlAVsqpULlWqBqFekKMe7l+rxZqbL4+5PVa9VqmkmfOPK0051+WTlOjzUV7yZ6nKIn2r5795M33kMwTuGX2PjFZ6wSfX3Upx+rJn7mmLFK4dIRSPFC5bnXNTk/Ho7xasiHJ3iRd2PVnkF3e7ZYXB9o+12zwed8/vo987qQPC486E68HvT+/VXdHEBFz+w4qkSRMVKePD3ihu1+qTxE07e17hUFXdw8z3nePeKO94sbpHh9Xzwubh0lmL49vQ9xzyqalZLx0ZtK6Ddr9Xzu2t75zGs+zj7msC7WVgUmcCK3za6hX2OKpeGRShhvKMqr3ERCrjyexXdUq9wtwvKpSrn7XpyodzqXjU7V1Oiiulwzcm1YKBOAZRV8uqj7i7lqyEehyhwj4EGEwmMctoeePWW36oGQozniJeSKa3ntrhI2NgyczLyO/7fNTq+QQktIlMtMnsjZloc18zC1tg8FRgGmKfi+JGkCxCTLJTRqPYAORY91khZuaYlvMcU9thhIwZCjoX2FhUeORZ9bsgIQSwviBpvesEeL0x5J6ZY6FihPkp4++qLQibefKx2qVBJBUG4+j0xWI3tKCpT8Z8RgmC1qTP+JHfEFAsdJav4F0PAnvh75DorUyz0LaHiY86z6/6RjJQ/gCfj2o8Mi857FykeMyz07VBdBxC/59458cFnioW+HSt8jD/77t2Fk05IsdDZAXXvx9tPX97BSHohxUJnR1TeA3W/J++STYoH2v1MhocpFl1Zp2Jc+5FhoTNjCh53vy/nRuQqZljozKDK+cEVoDPnOKHhZYaFToyqlCvBH8+4eqvYhXdvnRdW8Ijfk3EOzOxjloVOi6uEO8D35dtnLncgy0JXBRQ8Tr+v3mCUW5BloYsiKhVE8MerLaO1++h2dU1IwWO+v6falAxmIbEsdE1M4eP2dxXbDMuLXl8XBFUgAuh9lUbj6CPNQtdDOQ76nkLrbFUbMOepq8EKHi1fT505c/qDaRa6Gq7wcfN76uyqgt+s8xvFLqrzd/AMNINB4TPPwTh8/wrPwlsML8JXbJAGfh/PhA8fsVyike9nmksfy2Yytn8mfGrnYJpFF8toNGkekGpQVCgFjwS3Ho5VsqpdSLPQTDCFHwj/MMVsousmkSw0B07ZfVS9PnZdNgw/7r3iACp83Ps+dqFx9JBloTmQCh8Xv4ddqWibCh/gs8XwQpZFF7e0WHV2rDZpBqzCR93v49Ya5FLk9Dtr95Fl0Ucs5pgHORaK+qzAkVDfQan21mUPwb116pFh0cUnDxa/BhkWmvWu8EHxO/n0mXceGRaa9a9um8gp7+knUJ0KCj8AfjSMPlIsuroplJ9SV33uJrEoHrj8fd0klOZjioXueVGpFlT+vm4aI9WFFAvd86NSTdhN09NNNBm5DmRYjGamCxkWnb1UhbUPKRa63WvFB/C+LrIRfS5TLHSvm0rxounp6aJT/XkqxYu6nznNxxSLviZCaiRjhoVudKSM//c1UJLdYYqF7vJU1QXc/L7+UeqdDmT3dZerKu5g73Zf/6xR2zL6d2dWPqN/93j/sOeIhzkWySxuIceis3/aqK/g9FWL983KYk/reGCvwyQL1d5ewZFk0dk3T+0cdt8+4tt9+4e/GxD5psVUC/11A1VNh/pK13cT/p0vNhz+UITRs+0o1NIfvrg+ymRutdD10d63MZDiEQdqWc7Us+q2sEZSxbVg1c14gXVbTLfFUy8VtwL3zNJtoTJ3xxFbz1HJ5A7+DBBZxlrjWH51syrbD5ssf+wSLhleZSvOr3J4ALzO3lTLtOzYfe9/UHyEtMHudA8PwBfanfBquu+bwUFxBynC3fc/PABfaDvhkmq0uf7Expg/nn6RP57WzyAtPuL0bX2yGPLrT0p0NNs/6b6+e/z6/OXd6fXt8e359dPmGL88nj48vRO4d+9fHj9c1+vypy9/PT19Vo/d973g7Tn/Jy8o/6ifq3r//PJy+dqV/jt+3koeXT6NFX/6Gw==);points=[[0.5,0.5,0]];labelBackgroundColor=none;rounded=0;html=1;whiteSpace=wrap;strokeColor=#d6b656;" vertex="1" parent="JCutN4eRb9OTuJJ_0cN7-314">
          <mxGeometry x="2.2641509433962264" width="253.58490566037736" height="73.07142857142858" as="geometry" />
        </mxCell>
        <mxCell id="JCutN4eRb9OTuJJ_0cN7-318" value="&lt;div style=&quot;font-size: 1px&quot;&gt;&lt;font style=&quot;font-size:14.11px;font-family:Calibri;color:#4d1e1a;direction:ltr;letter-spacing:0px;line-height:120%;opacity:1&quot;&gt;Oracle SERVER Core-4 Ram 16 GB 200 GB&lt;br&gt;&lt;/font&gt;&lt;/div&gt;&lt;div style=&quot;font-size: 1px&quot;&gt;&lt;font style=&quot;font-size:14.11px;font-family:Calibri;color:#4d1e1a;direction:ltr;letter-spacing:0px;line-height:120%;opacity:1&quot;&gt;Schemas&lt;/font&gt;&lt;/div&gt;&lt;div style=&quot;font-size: 1px&quot;&gt;&lt;font style=&quot;font-size:14.11px;font-family:Calibri;color:#4d1e1a;direction:ltr;letter-spacing:0px;line-height:120%;opacity:1&quot;&gt;PegaRules/&lt;/font&gt;&lt;span style=&quot;color: rgb(77, 30, 26); font-family: Calibri; font-size: 14.11px; letter-spacing: 0px; background-color: initial;&quot;&gt;PegaData/&lt;/span&gt;&lt;span style=&quot;color: rgb(77, 30, 26); font-family: Calibri; font-size: 14.11px; letter-spacing: 0px; background-color: initial;&quot;&gt;Customer&lt;/span&gt;&lt;/div&gt;&lt;div style=&quot;font-size: 1px&quot;&gt;&lt;br&gt;&lt;/div&gt;&lt;div style=&quot;font-size: 1px&quot;&gt;&lt;font style=&quot;font-size:14.11px;font-family:Calibri;color:#4d1e1a;direction:ltr;letter-spacing:0px;line-height:120%;opacity:1&quot;&gt;&lt;br&gt;&lt;/font&gt;&lt;/div&gt;" style="text;vsdxID=1187;fillColor=none;gradientColor=none;points=[[0.5,0.5,0]];labelBackgroundColor=none;rounded=0;strokeColor=none;html=1;whiteSpace=wrap;verticalAlign=middle;align=center;overflow=width;;html=1;" vertex="1" parent="JCutN4eRb9OTuJJ_0cN7-314">
          <mxGeometry x="-89.2301886792453" y="79.35714285714286" width="449.2301886792453" height="30.642857142857142" as="geometry" />
        </mxCell>
        <UserObject label="&lt;div style=&quot;font-size: 1px&quot;&gt;&lt;/div&gt;" tags="Background" id="JCutN4eRb9OTuJJ_0cN7-319">
          <mxCell style="verticalAlign=top;align=center;overflow=width;vsdxID=1216;fillColor=#0070c0;gradientColor=none;fillOpacity=20;shape=stencil(vZNLcsMgDIZPw9IMFkkcr9PkHkyDbabUeGSSuLcvrugDu0xWyU5IvxCfkJg8jJ0aNAMxenRv+mbOvmPyhQGYvtNofLCYPDJ5aBzqFt2lP9N5ULNytt7ddb5hory64qKcs0B8kKcU4ut8IrnC1xDDKJe83JAaoxy2fEeeKc3/vq8KglhhKtRkxgKdV964nuJRbRW2ugjVisaqNgmNN62HlTu+z5pe54vDhss6jwO82i1wgG/LhGfdIfEsGuB1/U/lDMp+iSI57BOUXG+egJKbicyUiWo5ZQnIqjE///54krsbE4zfbWuMtbSsf+PL7Qwu2mx5/AQ=);strokeColor=#404040;shadow=1;points=[[0.5,0,0],[0.5,0,0],[0.5,0.5,0],[1,0.5,0],[0.5,0.5,0]];labelBackgroundColor=none;rounded=0;html=1;whiteSpace=wrap;" vertex="1" parent="1">
            <mxGeometry x="3247" y="1453" width="160" height="76" as="geometry" />
          </mxCell>
        </UserObject>
        <UserObject label="&lt;div style=&quot;font-size: 1px&quot;&gt;&lt;font style=&quot;font-size:8.47px;font-family:Calibri;color:#000000;direction:ltr;letter-spacing:0px;line-height:120%;opacity:1&quot;&gt;&lt;font style=&quot;border-color: var(--border-color); letter-spacing: 0px; direction: ltr; line-height: 10.164px; opacity: 1;&quot;&gt;Tomcat Serverâ€“ 1 (&lt;/font&gt;&lt;font style=&quot;border-color: var(--border-color); letter-spacing: 0px; direction: ltr; line-height: 10.164px; opacity: 1;&quot;&gt;Core â€“ 4 . RAM 16 GB)&lt;/font&gt;&lt;br&gt;&lt;/font&gt;&lt;/div&gt;" tags="Background" id="JCutN4eRb9OTuJJ_0cN7-320">
          <mxCell style="verticalAlign=top;align=left;overflow=width;vsdxID=1109;fillColor=#d7d0e3;gradientColor=#e7e3ee;gradientDirection=north;shape=stencil(nZBLDoAgDERP0z3SIyjew0SURgSD+Lu9kMZoXLhwN9O+tukAlrNpJg1SzDH4QW/URgNYgZTkjA4UkwJUgGXng+6DX1zLfmoymdXo17xh5zmRJ6Q42BWCfc2oJfdAr+Yv+AP9Cb7OJ3H/2JG1HNGz/84klThPVCc=);strokeColor=#404040;shadow=1;points=[[1,0.5,0],[0.5,0,0],[0.5,0.5,0],[0.5,0.5,0]];labelBackgroundColor=none;rounded=0;html=1;whiteSpace=wrap;" vertex="1" parent="1">
            <mxGeometry x="3272.5" y="1461" width="121.5" height="60" as="geometry" />
          </mxCell>
        </UserObject>
        <UserObject label="&lt;div style=&quot;font-size: 1px&quot;&gt;&lt;font style=&quot;font-size:8.47px;font-family:Calibri;color:#000000;direction:ltr;letter-spacing:0px;line-height:100%;opacity:1&quot;&gt;Pega NodeType:WebUser&lt;br&gt;&lt;/font&gt;&lt;/div&gt;" tags="Background" id="JCutN4eRb9OTuJJ_0cN7-321">
          <mxCell style="verticalAlign=middle;align=center;overflow=width;vsdxID=1217;fillColor=#44aac4;gradientColor=#31859b;gradientDirection=north;shape=stencil(vVPLcsMgDPwajtYA6qTmnKb/wTTYZkqNB9PG/fviymmCXSan5KbHSmIlluF+7PRgmORjDP7dnOwxdgxfmJS270ywMVkMDwz3jQ+mDf6zP5I/6Bk5Wx/+a+4wUZ3aQY1zleTfFBGc//qvBNfhLeXCAkdASehwhgsQFJny+nO/WsHTAqj0ZMcq+Kij9T2lF7DToTVVGlY1TrdZajwZM2zCy/Oc7U15tuCwK5ORoFRORoGqMzLb9fBHcUEQz/9MLpyF4+osHER+l8JmHsCk8B8KTNSaCa6ZbDbzd/b7c7mpl2RctNZY50iq1/m1NlOIdI2HHw==);strokeColor=#404040;shadow=1;spacingTop=-3;spacingBottom=-3;spacingLeft=-3;spacingRight=-3;points=[[0.5,0,0],[0.5,0,0],[0.5,0.5,0],[1,0.5,0],[0.5,0.5,0]];labelBackgroundColor=none;rounded=0;html=1;whiteSpace=wrap;" vertex="1" parent="1">
            <mxGeometry x="3284" y="1484" width="100" height="29" as="geometry" />
          </mxCell>
        </UserObject>
        <UserObject label="&lt;div style=&quot;font-size: 1px&quot;&gt;&lt;font style=&quot;font-size:11.29px;font-family:Calibri;color:#000000;direction:ltr;letter-spacing:0px;line-height:120%;opacity:1&quot;&gt;Background Nodes&lt;br&gt;&lt;/font&gt;&lt;/div&gt;" tags="Background" id="JCutN4eRb9OTuJJ_0cN7-322">
          <mxCell style="verticalAlign=top;align=center;overflow=width;vsdxID=1100;fillColor=#8fa350;gradientColor=none;fillOpacity=20;shape=stencil(vVPLlsIgDP0aluUgtFO71s5/cJS2nMHSk+JY/15qcBQ7OKtxl8cN4Sa5RGzGTg6KcDY6sF/qpPeuI2JLONd9p0A7bxFRE7FpLKgW7LHfoz/IGTlbB/s9vzBhXVVSXs1VnJ0xsmLs6n8iXMLO5yDAOS0FoiHAK1p8YGSK62/vVYwWoWbK5KTHDKyTTtse8wFtJLQq892yxsg2So0npYZFOPzP6F69aE7z8hWbnMds1jSP2Sznw97Fxc969UvnBJNi/bwXlkdMEoN5A5HUPaQubMHkdnOpwfxs/f+5/KkXb9y11mhjUKqP+Wdt+hDqWtQX);strokeColor=#404040;shadow=1;points=[[0.5,0,0],[0.5,0,0],[0.5,0.5,0],[1,0.5,0],[0.5,0.5,0]];labelBackgroundColor=none;rounded=0;html=1;whiteSpace=wrap;" vertex="1" parent="1">
            <mxGeometry x="3424.5" y="1440" width="180" height="99" as="geometry" />
          </mxCell>
        </UserObject>
        <UserObject label="&lt;div style=&quot;font-size: 1px&quot;&gt;&lt;/div&gt;" tags="Background" id="JCutN4eRb9OTuJJ_0cN7-323">
          <mxCell style="verticalAlign=top;align=center;overflow=width;vsdxID=1216;fillColor=#0070c0;gradientColor=none;fillOpacity=20;shape=stencil(vZNLcsMgDIZPw9IMFkkcr9PkHkyDbabUeGSSuLcvrugDu0xWyU5IvxCfkJg8jJ0aNAMxenRv+mbOvmPyhQGYvtNofLCYPDJ5aBzqFt2lP9N5ULNytt7ddb5hory64qKcs0B8kKcU4ut8IrnC1xDDKJe83JAaoxy2fEeeKc3/vq8KglhhKtRkxgKdV964nuJRbRW2ugjVisaqNgmNN62HlTu+z5pe54vDhss6jwO82i1wgG/LhGfdIfEsGuB1/U/lDMp+iSI57BOUXG+egJKbicyUiWo5ZQnIqjE///54krsbE4zfbWuMtbSsf+PL7Qwu2mx5/AQ=);strokeColor=#404040;shadow=1;points=[[0.5,0,0],[0.5,0,0],[0.5,0.5,0],[1,0.5,0],[0.5,0.5,0]];labelBackgroundColor=none;rounded=0;html=1;whiteSpace=wrap;" vertex="1" parent="1">
            <mxGeometry x="3434.5" y="1453" width="160" height="76" as="geometry" />
          </mxCell>
        </UserObject>
        <UserObject label="&lt;div style=&quot;font-size: 1px&quot;&gt;&lt;font style=&quot;font-size:8.47px;font-family:Calibri;color:#000000;direction:ltr;letter-spacing:0px;line-height:120%;opacity:1&quot;&gt;&lt;font style=&quot;border-color: var(--border-color); letter-spacing: 0px; direction: ltr; line-height: 10.164px; opacity: 1;&quot;&gt;Tomcat Serverâ€“ 1 (&lt;/font&gt;&lt;font style=&quot;border-color: var(--border-color); letter-spacing: 0px; direction: ltr; line-height: 10.164px; opacity: 1;&quot;&gt;Core â€“ 4 . RAM 16 GB)&lt;/font&gt;&lt;br&gt;&lt;/font&gt;&lt;/div&gt;" tags="Background" id="JCutN4eRb9OTuJJ_0cN7-324">
          <mxCell style="verticalAlign=top;align=left;overflow=width;vsdxID=1109;fillColor=#d7d0e3;gradientColor=#e7e3ee;gradientDirection=north;shape=stencil(nZBLDoAgDERP0z3SIyjew0SURgSD+Lu9kMZoXLhwN9O+tukAlrNpJg1SzDH4QW/URgNYgZTkjA4UkwJUgGXng+6DX1zLfmoymdXo17xh5zmRJ6Q42BWCfc2oJfdAr+Yv+AP9Cb7OJ3H/2JG1HNGz/84klThPVCc=);strokeColor=#404040;shadow=1;points=[[1,0.5,0],[0.5,0,0],[0.5,0.5,0],[0.5,0.5,0]];labelBackgroundColor=none;rounded=0;html=1;whiteSpace=wrap;" vertex="1" parent="1">
            <mxGeometry x="3460" y="1461" width="121.5" height="60" as="geometry" />
          </mxCell>
        </UserObject>
        <UserObject label="&lt;div style=&quot;font-size: 1px&quot;&gt;&lt;font style=&quot;font-size:8.47px;font-family:Calibri;color:#000000;direction:ltr;letter-spacing:0px;line-height:100%;opacity:1&quot;&gt;Pega NodeType:Backgorund,&lt;/font&gt;&lt;/div&gt;&lt;div style=&quot;font-size: 1px&quot;&gt;&lt;font style=&quot;font-size:8.47px;font-family:Calibri;color:#000000;direction:ltr;letter-spacing:0px;line-height:100%;opacity:1&quot;&gt;Stream,Seatch&lt;br&gt;&lt;/font&gt;&lt;/div&gt;" tags="Background" id="JCutN4eRb9OTuJJ_0cN7-325">
          <mxCell style="verticalAlign=middle;align=center;overflow=width;vsdxID=1217;fillColor=#44aac4;gradientColor=#31859b;gradientDirection=north;shape=stencil(vVPLcsMgDPwajtYA6qTmnKb/wTTYZkqNB9PG/fviymmCXSan5KbHSmIlluF+7PRgmORjDP7dnOwxdgxfmJS270ywMVkMDwz3jQ+mDf6zP5I/6Bk5Wx/+a+4wUZ3aQY1zleTfFBGc//qvBNfhLeXCAkdASehwhgsQFJny+nO/WsHTAqj0ZMcq+Kij9T2lF7DToTVVGlY1TrdZajwZM2zCy/Oc7U15tuCwK5ORoFRORoGqMzLb9fBHcUEQz/9MLpyF4+osHER+l8JmHsCk8B8KTNSaCa6ZbDbzd/b7c7mpl2RctNZY50iq1/m1NlOIdI2HHw==);strokeColor=#404040;shadow=1;spacingTop=-3;spacingBottom=-3;spacingLeft=-3;spacingRight=-3;points=[[0.5,0,0],[0.5,0,0],[0.5,0.5,0],[1,0.5,0],[0.5,0.5,0]];labelBackgroundColor=none;rounded=0;html=1;whiteSpace=wrap;" vertex="1" parent="1">
            <mxGeometry x="3471.5" y="1484" width="100" height="29" as="geometry" />
          </mxCell>
        </UserObject>
        <UserObject label="" tags="Background" id="JCutN4eRb9OTuJJ_0cN7-326">
          <mxCell style="vsdxID=1111;edgeStyle=orthogonalEdgeStyle;dashed=1;dashPattern=8.00 4.00 1.00 4.00;startArrow=none;endArrow=none;spacingTop=0;spacingBottom=0;spacingLeft=0;spacingRight=0;verticalAlign=middle;html=1;labelBackgroundColor=#ffffff;rounded=0;" edge="1" parent="1">
            <mxGeometry relative="1" as="geometry">
              <mxPoint as="offset" />
              <mxPoint x="3160" y="1360" as="sourcePoint" />
              <mxPoint x="3767" y="1360" as="targetPoint" />
            </mxGeometry>
          </mxCell>
        </UserObject>
      </root>
    </mxGraphModel>
  </diagram>
</mxfile>
